<?xml version="1.0" encoding="UTF-8"?>
<svg id="Ebene_2" data-name="Ebene 2" xmlns="http://www.w3.org/2000/svg" viewBox="0 0 275.44 49.9">
  <defs>
    <style>
      .cls-1 {
        fill: #1d1d1b;
      }
    </style>
  </defs>
  <g id="schrift">
    <g>
      <path class="cls-1" d="M104.2,24.18c-.3-.04-.52-.1-.67-.16v-2.35s.03,0,.03.01,0,.01.02.01c.17.03.36.05.58.05.58,0,1.02-.13,1.31-.4s.44-.71.44-1.32V6.5h3.05v14.1c0,.68-.13,1.3-.4,1.85s-.69.99-1.26,1.31-1.3.49-2.19.49c-.3,0-.6-.02-.9-.06ZM105.85,1.45h3.17v3.2h-3.17V1.45ZM105.9,6.5h1.53v2.43h-1.53v-2.43Z"/>
      <path class="cls-1" d="M113.57,18.68c-.65-.31-1.17-.75-1.56-1.32-.39-.58-.59-1.25-.59-2.01,0-1.28.42-2.23,1.26-2.84s2-1.01,3.49-1.21l1.75-.23c.48-.07.83-.19,1.04-.36.21-.18.31-.42.31-.74,0-.45-.18-.83-.54-1.14s-.85-.46-1.46-.46c-.7,0-1.27.18-1.7.55-.43.37-.68.88-.75,1.52h-3.15c.07-.85.33-1.6.8-2.26.47-.66,1.1-1.17,1.89-1.54s1.7-.55,2.74-.55c1.22,0,2.21.21,2.99.64.77.42,1.34,1.04,1.7,1.84s.54,1.78.54,2.95v7.17h-2.83v-.5c0-.15.02-.38.05-.67.03-.17.06-.33.08-.5-.35.65-.85,1.17-1.51,1.55s-1.49.58-2.49.58c-.72,0-1.4-.15-2.05-.46ZM117.92,16.52c.45-.25.8-.6,1.06-1.04.26-.44.39-.95.39-1.51v-1.32c-.13.12-.31.21-.53.29-.22.08-.52.15-.92.24l-1,.2c-.78.15-1.38.37-1.79.65-.41.28-.61.68-.61,1.2s.18.93.55,1.23c.37.3.83.45,1.38.45s1.02-.12,1.47-.38Z"/>
      <path class="cls-1" d="M125.27,1.2h3.05v5.85c0,.2,0,.36-.02.48,0,.12,0,.23-.03.35-.02.12-.03.24-.05.38.37-.67.85-1.19,1.46-1.57.61-.38,1.37-.58,2.29-.58s1.65.2,2.3.6c.65.4,1.15.97,1.49,1.7s.51,1.6.51,2.6v7.7h-3.05v-7.25c0-.9-.2-1.61-.61-2.14-.41-.52-.97-.79-1.69-.79-.48,0-.92.13-1.33.4s-.71.63-.94,1.09c-.22.46-.34.97-.34,1.54v7.15h-3.05V1.2Z"/>
      <path class="cls-1" d="M139.27,6.5h3.05v.93c0,.45-.03.88-.1,1.27.37-.78.84-1.41,1.42-1.89.58-.47,1.3-.71,2.15-.71.23,0,.45.02.65.08v2.95c-.27-.07-.56-.1-.88-.1-.65,0-1.22.12-1.7.36-.48.24-.86.63-1.14,1.16-.28.53-.41,1.23-.41,2.1v6.05h-3.05V6.5Z"/>
      <path class="cls-1" d="M150.36,18.37c-.94-.52-1.68-1.27-2.2-2.25-.53-.98-.79-2.17-.79-3.55,0-1.27.26-2.39.79-3.38.52-.98,1.25-1.75,2.19-2.29.93-.54,1.98-.81,3.15-.81s2.27.27,3.15.81c.88.54,1.56,1.31,2.03,2.3.47.99.7,2.15.7,3.46v.67h-8.88c0,.63.13,1.21.4,1.73s.63.92,1.1,1.23c.47.3,1,.45,1.6.45.68,0,1.26-.18,1.74-.54s.76-.85.86-1.49h3.1c-.08.83-.37,1.59-.86,2.26-.49.67-1.15,1.2-1.99,1.59s-1.78.58-2.85.58c-1.22,0-2.3-.26-3.24-.78ZM155.45,9.14c-.5-.51-1.16-.76-1.97-.76s-1.5.26-2.05.78c-.55.52-.87,1.18-.95,2h5.77c-.03-.83-.3-1.5-.8-2.01Z"/>
      <path class="cls-1" d="M164.38,23.72c-.79-.37-1.4-.88-1.84-1.55-.43-.67-.65-1.44-.65-2.33h2.12c0,.82.28,1.48.85,1.99.57.51,1.33.76,2.3.76,1.15,0,2.04-.31,2.67-.94.63-.62.95-1.56.95-2.81v-2.27c-.32.62-.83,1.1-1.55,1.46-.72.36-1.52.54-2.4.54-1.1,0-2.06-.25-2.89-.75s-1.46-1.21-1.91-2.14c-.45-.92-.68-2-.68-3.24s.24-2.3.73-3.24,1.15-1.67,1.99-2.19,1.79-.78,2.84-.78c.92,0,1.7.2,2.35.59s1.16.87,1.53,1.44v-1.62h2.15v11.45c0,2.07-.48,3.61-1.45,4.64s-2.42,1.54-4.35,1.54c-1.05,0-1.97-.18-2.76-.55ZM169.18,16.35c.56-.37.99-.89,1.3-1.56.31-.67.46-1.45.46-2.34s-.16-1.64-.47-2.33c-.32-.68-.75-1.22-1.31-1.6-.56-.38-1.19-.58-1.89-.58s-1.35.19-1.91.56c-.56.38-.99.9-1.3,1.59-.31.68-.46,1.47-.46,2.35s.15,1.66.46,2.34c.31.68.74,1.2,1.3,1.56.56.37,1.2.55,1.91.55s1.35-.18,1.91-.55Z"/>
      <path class="cls-1" d="M178.61,18.32c-.88-.5-1.55-1.23-2.03-2.2-.47-.97-.71-2.13-.71-3.5,0-1.22.25-2.31.74-3.27.49-.97,1.17-1.73,2.05-2.27s1.85-.83,2.94-.83c1.18,0,2.19.26,3.03.79.83.52,1.47,1.27,1.9,2.23.43.96.65,2.09.65,3.39v.42h-9.15c.02.9.19,1.67.51,2.33.33.65.77,1.15,1.33,1.49.56.34,1.19.51,1.89.51.82,0,1.52-.19,2.1-.56s.94-1,1.08-1.86h2.12c-.08.75-.33,1.43-.75,2.05-.42.62-1.01,1.11-1.79,1.49-.78.38-1.71.56-2.79.56-1.2,0-2.24-.25-3.11-.75ZM184.01,8.92c-.58-.65-1.38-.98-2.41-.98s-1.79.34-2.42,1.02c-.63.68-.99,1.54-1.08,2.58h6.78c0-1.1-.29-1.98-.86-2.62Z"/>
      <path class="cls-1" d="M191.6,18.52c-.77-.37-1.36-.88-1.78-1.53-.42-.65-.63-1.41-.65-2.27h2.1c.03.83.32,1.49.86,1.96.54.48,1.29.71,2.24.71.83,0,1.5-.18,2.01-.54s.76-.84.76-1.44c0-.48-.17-.88-.51-1.19-.34-.31-.87-.53-1.59-.66l-1.83-.35c-1.15-.22-2.05-.62-2.7-1.2s-.97-1.33-.97-2.23c0-.68.2-1.29.6-1.83.4-.53.95-.95,1.66-1.26.71-.31,1.51-.46,2.41-.46.97,0,1.8.15,2.5.46s1.25.75,1.64,1.32c.39.58.61,1.27.66,2.09h-2.12c-.08-.72-.37-1.26-.86-1.62-.49-.37-1.15-.55-1.96-.55-.72,0-1.29.16-1.72.48-.43.32-.65.73-.65,1.25,0,.47.17.83.5,1.1s.85.47,1.55.6l1.88.35c1.15.22,2.05.61,2.69,1.18s.96,1.33.96,2.3c0,.72-.2,1.37-.6,1.96-.4.59-.97,1.06-1.71,1.4-.74.34-1.61.51-2.61.51-1.07,0-1.98-.18-2.75-.55Z"/>
      <path class="cls-1" d="M204.58,18.55c-.51-.23-.92-.61-1.23-1.14s-.46-1.21-.46-2.06v-6.92h-2.25v-1.77h2.25v-3.98h2.15v3.98h2.5v1.77h-2.5v6.7c0,.45.07.81.21,1.09.14.27.34.47.6.59.26.12.58.17.96.17.25,0,.55-.02.9-.07v1.85c-.22.05-.44.09-.68.11s-.47.04-.72.04c-.65,0-1.23-.12-1.74-.35Z"/>
      <path class="cls-1" d="M211.62,18.62c-.63-.3-1.13-.73-1.5-1.29s-.55-1.2-.55-1.94c0-1.08.37-1.93,1.11-2.55.74-.62,1.7-1.02,2.89-1.2l2.58-.4c.45-.07.77-.19.95-.38.18-.18.27-.46.27-.82,0-.65-.22-1.16-.67-1.54s-1.03-.56-1.75-.56c-.9,0-1.59.22-2.08.66-.48.44-.74,1.05-.77,1.81h-2.15c.03-.75.24-1.44.62-2.08.38-.63.94-1.14,1.66-1.52.73-.38,1.57-.58,2.54-.58s1.83.18,2.54.55,1.25.89,1.61,1.57c.37.68.55,1.49.55,2.43v7.9h-2.05v-1.62c-.3.63-.77,1.12-1.41,1.48s-1.4.52-2.29.52c-.77,0-1.47-.15-2.1-.45ZM215.73,16.99c.51-.27.91-.66,1.2-1.15s.44-1.05.44-1.69v-1.78c-.07.12-.21.22-.44.3-.22.08-.52.16-.89.23l-1.75.32c-.77.15-1.38.4-1.82.75-.45.35-.68.83-.68,1.43s.21,1.08.64,1.45c.42.37.95.55,1.59.55s1.2-.14,1.71-.41Z"/>
      <path class="cls-1" d="M223.02,1.2h2.15v17.5h-2.15V1.2ZM223.02,1.2h1.08v1.77h-1.08v-1.77ZM223.02,16.92h2.15v1.77h-2.15v-1.77Z"/>
      <path class="cls-1" d="M231.41,18.55c-.51-.23-.92-.61-1.23-1.14s-.46-1.21-.46-2.06v-6.92h-2.25v-1.77h2.25v-3.98h2.15v3.98h2.5v1.77h-2.5v6.7c0,.45.07.81.21,1.09.14.27.34.47.6.59.26.12.58.17.96.17.25,0,.55-.02.9-.07v1.85c-.22.05-.44.09-.68.11s-.47.04-.72.04c-.65,0-1.23-.12-1.74-.35Z"/>
      <path class="cls-1" d="M238.94,18.52c-.65-.37-1.14-.9-1.47-1.61-.33-.71-.5-1.57-.5-2.59v-7.67h2.15v7.22c0,1.18.22,2.07.65,2.65s1.13.88,2.1.88c.65,0,1.2-.16,1.66-.49.46-.32.81-.79,1.05-1.4.24-.61.36-1.35.36-2.21v-6.65h2.12v12.05h-2.1v-1.67c-.28.63-.76,1.13-1.42,1.5-.67.37-1.41.55-2.23.55-.93,0-1.72-.18-2.38-.55Z"/>
      <path class="cls-1" d="M250.77,6.65h2.12v1.62c.35-.57.87-1.05,1.55-1.44.68-.39,1.41-.59,2.17-.59.92,0,1.71.19,2.38.56.67.38,1.18.93,1.54,1.66.36.73.54,1.61.54,2.62v7.6h-2.15v-7.33c0-1.17-.21-2.03-.62-2.59-.42-.56-1.09-.84-2.03-.84-.68,0-1.28.16-1.79.48-.51.32-.9.74-1.16,1.27-.27.53-.4,1.12-.4,1.75v7.25h-2.15V6.65Z"/>
      <path class="cls-1" d="M266.88,23.72c-.79-.37-1.4-.88-1.84-1.55-.43-.67-.65-1.44-.65-2.33h2.12c0,.82.28,1.48.85,1.99.57.51,1.33.76,2.3.76,1.15,0,2.04-.31,2.67-.94.63-.62.95-1.56.95-2.81v-2.27c-.32.62-.83,1.1-1.55,1.46-.72.36-1.52.54-2.4.54-1.1,0-2.06-.25-2.89-.75s-1.46-1.21-1.91-2.14c-.45-.92-.68-2-.68-3.24s.24-2.3.73-3.24,1.15-1.67,1.99-2.19,1.79-.78,2.84-.78c.92,0,1.7.2,2.35.59s1.16.87,1.53,1.44v-1.62h2.15v11.45c0,2.07-.48,3.61-1.45,4.64s-2.42,1.54-4.35,1.54c-1.05,0-1.97-.18-2.76-.55ZM271.68,16.35c.56-.37.99-.89,1.3-1.56.31-.67.46-1.45.46-2.34s-.16-1.64-.47-2.33c-.32-.68-.75-1.22-1.31-1.6-.56-.38-1.19-.58-1.89-.58s-1.35.19-1.91.56c-.56.38-.99.9-1.3,1.59-.31.68-.46,1.47-.46,2.35s.15,1.66.46,2.34c.31.68.74,1.2,1.3,1.56.56.37,1.2.55,1.91.55s1.35-.18,1.91-.55Z"/>
      <path class="cls-1" d="M106.2,36.65h2.15v1.62c.38-.62.88-1.11,1.49-1.48s1.29-.55,2.04-.55c.82,0,1.54.2,2.16.6s1.11.99,1.46,1.77c.43-.73.99-1.31,1.66-1.74s1.43-.64,2.26-.64,1.57.18,2.2.53c.63.35,1.13.89,1.49,1.61s.54,1.62.54,2.69v7.62h-2.15v-7.2c0-1.18-.2-2.07-.59-2.66s-1.04-.89-1.94-.89c-.62,0-1.15.16-1.6.49-.45.33-.79.76-1.03,1.3s-.35,1.14-.35,1.79v7.17h-2.15v-7.12c0-1.18-.2-2.08-.59-2.7-.39-.62-1.02-.92-1.89-.92-.6,0-1.13.17-1.59.5-.46.33-.81.78-1.06,1.34-.25.56-.38,1.17-.38,1.84v7.08h-2.15v-12.05Z"/>
      <path class="cls-1" d="M128.52,48.62c-.63-.3-1.13-.73-1.5-1.29s-.55-1.2-.55-1.94c0-1.08.37-1.93,1.11-2.55.74-.62,1.7-1.02,2.89-1.2l2.58-.4c.45-.07.77-.19.95-.38.18-.18.27-.46.27-.82,0-.65-.22-1.16-.67-1.54s-1.03-.56-1.75-.56c-.9,0-1.59.22-2.08.66-.48.44-.74,1.05-.77,1.81h-2.15c.03-.75.24-1.44.62-2.08.38-.63.94-1.14,1.66-1.52.73-.38,1.57-.58,2.54-.58s1.83.18,2.54.55,1.25.89,1.61,1.57c.37.68.55,1.49.55,2.43v7.9h-2.05v-1.62c-.3.63-.77,1.12-1.41,1.48s-1.4.52-2.29.52c-.77,0-1.47-.15-2.1-.45ZM132.64,46.99c.51-.27.91-.66,1.2-1.15s.44-1.05.44-1.69v-1.78c-.07.12-.21.22-.44.3-.22.08-.52.16-.89.23l-1.75.32c-.77.15-1.38.4-1.82.75-.45.35-.68.83-.68,1.43s.21,1.08.64,1.45c.42.37.95.55,1.59.55s1.2-.14,1.71-.41Z"/>
      <path class="cls-1" d="M139.92,36.65h2.12v1.62c.35-.57.87-1.05,1.55-1.44.68-.39,1.41-.59,2.17-.59.92,0,1.71.19,2.38.56.67.38,1.18.93,1.54,1.66.36.73.54,1.61.54,2.62v7.6h-2.15v-7.33c0-1.17-.21-2.03-.62-2.59-.42-.56-1.09-.84-2.03-.84-.68,0-1.28.16-1.79.48-.51.32-.9.74-1.16,1.27-.27.53-.4,1.12-.4,1.75v7.25h-2.15v-12.05Z"/>
      <path class="cls-1" d="M153.77,36.65h2.12v1.62c.35-.57.87-1.05,1.55-1.44.68-.39,1.41-.59,2.17-.59.92,0,1.71.19,2.38.56.67.38,1.18.93,1.54,1.66.36.73.54,1.61.54,2.62v7.6h-2.15v-7.33c0-1.17-.21-2.03-.62-2.59-.42-.56-1.09-.84-2.03-.84-.68,0-1.28.16-1.79.48-.51.32-.9.74-1.16,1.27-.27.53-.4,1.12-.4,1.75v7.25h-2.15v-12.05Z"/>
      <path class="cls-1" d="M167.62,31.2h2.15v7.08c.33-.6.83-1.09,1.5-1.46.67-.38,1.4-.56,2.2-.56.92,0,1.71.19,2.38.56.67.38,1.18.93,1.54,1.66.36.73.54,1.61.54,2.62v7.6h-2.15v-7.33c0-1.17-.22-2.03-.65-2.59-.43-.56-1.12-.84-2.07-.84-.67,0-1.25.16-1.74.48-.49.32-.87.74-1.14,1.27-.27.53-.4,1.12-.4,1.75v7.25h-2.15v-17.5Z"/>
      <path class="cls-1" d="M183.43,48.32c-.88-.5-1.55-1.23-2.03-2.2-.47-.97-.71-2.13-.71-3.5,0-1.22.25-2.31.74-3.27.49-.97,1.17-1.73,2.05-2.27s1.85-.83,2.94-.83c1.18,0,2.19.26,3.03.79.83.52,1.47,1.27,1.9,2.23.43.96.65,2.09.65,3.39v.42h-9.15c.02.9.19,1.67.51,2.33.33.65.77,1.15,1.33,1.49.56.34,1.19.51,1.89.51.82,0,1.52-.19,2.1-.56s.94-1,1.08-1.86h2.12c-.08.75-.33,1.43-.75,2.05-.42.62-1.01,1.11-1.79,1.49-.78.38-1.71.56-2.79.56-1.2,0-2.24-.25-3.11-.75ZM188.83,38.92c-.58-.65-1.38-.98-2.41-.98s-1.79.34-2.42,1.02c-.63.68-.99,1.54-1.08,2.58h6.78c0-1.1-.29-1.98-.86-2.62Z"/>
      <path class="cls-1" d="M194.75,31.8h2.5v2.57h-2.5v-2.57ZM194.95,36.65h2.15v12.05h-2.15v-12.05ZM194.95,36.65h1.08v1.77h-1.08v-1.77ZM194.95,46.92h2.15v1.77h-2.15v-1.77Z"/>
      <path class="cls-1" d="M200.8,36.65h2.15v1.62c.38-.62.88-1.11,1.49-1.48s1.29-.55,2.04-.55c.82,0,1.54.2,2.16.6s1.11.99,1.46,1.77c.43-.73.99-1.31,1.66-1.74s1.43-.64,2.26-.64,1.57.18,2.2.53c.63.35,1.13.89,1.49,1.61s.54,1.62.54,2.69v7.62h-2.15v-7.2c0-1.18-.2-2.07-.59-2.66s-1.04-.89-1.94-.89c-.62,0-1.15.16-1.6.49-.45.33-.79.76-1.03,1.3s-.35,1.14-.35,1.79v7.17h-2.15v-7.12c0-1.18-.2-2.08-.59-2.7-.39-.62-1.02-.92-1.89-.92-.6,0-1.13.17-1.59.5-.46.33-.81.78-1.06,1.34-.25.56-.38,1.17-.38,1.84v7.08h-2.15v-12.05Z"/>
    </g>
    <path class="cls-1" d="M87.49,18.69h-8.6c.29,1.93.43,4.11.43,6.52,0,3.8-.41,6.98-1.22,9.57-.82,2.58-1.97,4.51-3.46,5.8-1.49,1.28-3.25,1.93-5.29,1.93-3.11,0-5.58-1.45-7.39-4.35-1.81-2.89-2.71-7.16-2.71-12.81,0-4.12.41-7.53,1.21-10.24.82-2.71,1.97-4.72,3.46-6.03,1.28-1.13,2.79-1.77,4.54-1.93l-5.64-6.16c-1.23.47-2.39,1.08-3.47,1.85-2.82,1.99-5,4.85-6.51,8.58-.13.32-.25.66-.37.99-.1-.26-.19-.53-.29-.79-1.52-3.78-3.68-6.66-6.48-8.65-2.81-1.99-6.1-2.98-9.9-2.98s-7.11,1-9.93,2.98c-2.83,1.99-5,4.85-6.51,8.58-.16.38-.3.78-.44,1.18V1.22H0v7.53h10.37v39.93h8.54v-11.41c.12.35.24.7.37,1.04,1.47,3.75,3.6,6.62,6.41,8.61,2.8,1.99,6.17,2.98,10.1,2.98s7.23-1,10.03-2.98c2.8-1.99,4.94-4.83,6.41-8.51.11-.28.21-.57.31-.86.07.2.14.41.22.61,1.46,3.75,3.6,6.62,6.4,8.61,2.79,1.99,6.17,2.98,10.1,2.98s7.22-.99,10.03-2.98c2.79-1.99,4.93-4.82,6.4-8.5,1.46-3.68,2.2-8.09,2.2-13.19,0-2.27-.14-4.41-.43-6.39ZM44.61,34.92c-.81,2.58-1.97,4.51-3.46,5.8-1.49,1.29-3.25,1.93-5.29,1.93-3.12,0-5.59-1.45-7.39-4.34-1.81-2.89-2.71-7.17-2.71-12.81,0-4.12.41-7.53,1.22-10.24.81-2.71,1.97-4.73,3.46-6.03,1.49-1.31,3.3-1.97,5.42-1.97,3.12,0,5.56,1.5,7.32,4.51,1.76,3,2.64,7.54,2.64,13.59,0,3.8-.41,6.98-1.22,9.56Z"/>
  </g>
</svg>