<?xml version="1.0" encoding="UTF-8"?>
<svg id="Ebene_2" data-name="Ebene 2" xmlns="http://www.w3.org/2000/svg" viewBox="0 0 268.53 270.2">
  <defs>
    <style>
      .cls-1 {
        fill: none;
        stroke: #1d1d1b;
        stroke-linecap: round;
        stroke-linejoin: round;
        stroke-width: 5px;
      }
    </style>
  </defs>
  <g id="Ebene_1-2" data-name="Ebene 1">
    <g>
      <g>
        <path class="cls-1" d="M150.15,170.18l-4.66,4.37c-1.34,1.26-1.38,3.36-.07,4.66l7.17,7.17c1.3,1.3,3.44,1.31,4.75.01l2.1-2.08c1.31-1.29,1.31-3.42.01-4.72l-20.21-20.21c-1.3-1.3-1.3-3.43.01-4.72l2.1-2.08c1.31-1.29,3.44-1.29,4.75.01l21.2,21.2c1.3,1.3,2.37,3.87,2.37,5.71v7.26c0,1.84-1.06,4.41-2.37,5.71l-1.59,1.59c-1.3,1.3-3.87,2.37-5.71,2.37h-6.7c-1.84,0-4.41-1.06-5.71-2.37l-14.87-14.86c-1.3-1.3-1.3-3.43,0-4.73l1.95-1.95c1.3-1.3,1.3-3.43,0-4.73l-8.72-8.72c-1.3-1.3-1.3-3.43,0-4.73l15.59-15.59c1.3-1.3,3.43-1.3,4.73,0l20.23,20.23c1.3,1.3,2.37.86,2.37-.98v-6c0-1.84-1.06-4.41-2.37-5.71l-20.54-20.54c-1.3-1.3-3.43-1.3-4.73,0l-18.99,18.99"/>
        <path class="cls-1" d="M100.3,106.29l14.22,14.22c1.3,1.3,3.43,1.3,4.73,0l22.12-22.2c1.3-1.3,3.42-1.3,4.72,0l21.78,21.91c1.3,1.31,2.36,3.88,2.36,5.72v7.46c0,1.84-1.06,2.28-2.37.98l-21.9-21.9c-1.3-1.3-3.44-1.31-4.76-.03l-22.35,21.84"/>
        <path class="cls-1" d="M115.42,67.62c-1.3-1.3-3.41-1.28-4.69.04l-1.85,1.92c-1.28,1.33-3,1.82-3.83,1.09s-2.56-.24-3.84,1.08l-4.8,4.95c-1.28,1.32-2.33,3.91-2.33,5.75v.55c0,1.84,1.06,4.42,2.36,5.72l2.48,2.5c1.3,1.31,3.42,3.44,4.72,4.74l11.29,11.29c1.3,1.3,3.43,1.3,4.73,0l15.33-15.33c1.3-1.3,1.3-3.43,0-4.73l-19.57-19.57Z"/>
        <rect class="cls-1" x="108.75" y="76.73" width="10.01" height="19.24" rx="3.35" ry="3.35" transform="translate(-27.74 105.73) rotate(-45)"/>
        <path class="cls-1" d="M119.84,72.05h9.37c1.84,0,4.41,1.06,5.71,2.36l24.59,24.59c1.3,1.3,2.37,3.87,2.37,5.71v8.62"/>
        <path class="cls-1" d="M176.67,142.89l2.29-2.29c1.26-1.26,3.8-2.29,5.64-2.29h9.68c1.84,0,4.85,0,6.69,0h5.33c1.84,0,4.44-1.03,5.79-2.29l6.44-6.04c1.34-1.26,3.94-2.26,5.79-2.23l5.18.1c1.84.04,4.44-.97,5.77-2.24l14.41-13.69c1.33-1.27,3.48-1.23,4.76.09l1.16,1.19c1.29,1.32,1.29,3.48.01,4.8l-28.99,30c-1.28,1.32-3.42,1.37-4.76.11l-2.07-1.96c-1.34-1.26-1.4-3.39-.13-4.73l3.26-3.43c1.27-1.33,2.99-1.81,3.83-1.05s2.41,2.2,3.5,3.2l1.97,1.83"/>
        <path class="cls-1" d="M264.12,233.89h-4.61c-1.84,0-4.41-1.06-5.71-2.37l-6.23-6.23c-1.3-1.3-3.43-1.3-4.73,0l-2.51,2.51c-1.3,1.3-3.43,1.3-4.73,0l-15.16-15.16c-1.3-1.3-3.52-3.33-4.94-4.51l-2.77-2.31c-1.41-1.18-2.58-3.65-2.58-5.49l-.09-30.29c0-1.84,1.5-3.35,3.34-3.35h19.31c1.84,0,4.39-1.08,5.67-2.41l24.74-25.69c1.28-1.33,2.32-3.92,2.32-5.76v-7.87c0-1.84-1.06-2.28-2.36-.97l-30.62,30.85c-1.3,1.31-3.86,2.38-5.7,2.38h-12.49c-1.84,0-3.35-1.51-3.35-3.35v-6.12"/>
        <path class="cls-1" d="M170.76,128.84h31.59c1.84,0,4.49-.98,5.88-2.19l8.91-7.7c1.39-1.2,4.04-2.16,5.88-2.13l5.35.09c1.84.03,4.41-1.01,5.72-2.31l15.62-15.55c1.3-1.3,3.46-1.32,4.79-.05l11.3,10.83"/>
        <path class="cls-1" d="M266,96.49l-11.34-10.78c-1.33-1.27-3.48-1.23-4.77.08l-14.87,15.15c-1.29,1.31-3.45,1.36-4.8.11l-2.6-2.4c-1.35-1.25-3.52-1.2-4.81.1l-18.09,18.24c-1.3,1.31-3.86,2.38-5.7,2.38h-14.05c-1.84,0-4.5-.98-5.9-2.16l-5.75-4.86c-1.41-1.19-2.56-3.66-2.56-5.5v-2.97c0-1.84.99-4.49,2.19-5.88l4.29-4.97c1.2-1.39,3.69-2.53,5.53-2.53h4.79c1.84,0,4.41-1.06,5.72-2.36l15.78-15.67c1.31-1.3,3.44-1.29,4.74,0l11.3,11.3c1.3,1.3,3.15,3.19,4.1,4.19s2.76.73,4.03-.61l14.65-15.55c1.26-1.34,3.36-1.37,4.66-.07l11.1,11.1"/>
        <path class="cls-1" d="M208.68,86.53c1.3-1.3,3.47-1.35,4.83-.11l1.35,1.23c1.36,1.24,1.4,3.32.1,4.63l-8.72,8.72c-1.3,1.3-3.5,3.35-4.89,4.56l-1.12.98c-1.39,1.21-4.03,2.22-5.87,2.25l-9.31.16c-1.84.03-3.3-1.45-3.25-3.29l.06-1.98c.05-1.84,1.6-3.37,3.44-3.4l6.51-.12c1.84-.03,4.41-1.13,5.71-2.43l11.17-11.21Z"/>
        <path class="cls-1" d="M260.94,154.11c-1.27,1.33-3.37,3.49-4.67,4.79l-15.24,15.28c-1.3,1.3-3.87,2.37-5.71,2.37h-11.79c-1.84,0-3.35,1.52-3.35,3.36v13.39c0,1.84,1.04,4.44,2.31,5.77l14.16,14.83c1.27,1.33,3.36,1.34,4.63.01l3.09-3.21c1.28-1.33,2.3-3.92,2.28-5.76l-.27-20.04c-.02-1.84,1.03-4.4,2.35-5.68l14.89-14.52c1.32-1.28,2.4-3.84,2.4-5.68v-6.88c0-1.84-1.04-2.26-2.31-.93l-2.77,2.9Z"/>
        <path class="cls-1" d="M237.78,189.47c-.03-1.84-1.56-3.35-3.4-3.35h-1.3c-1.84,0-3.35,1.51-3.35,3.35v.3c0,1.84,1.06,4.41,2.37,5.71l3.53,3.53c1.3,1.3,2.34.86,2.31-.98l-.15-8.55Z"/>
        <path class="cls-1" d="M264.04,223.2h-2.64c-1.45,0-3.23-.58-3.94-1.3s-1.3-2.8-1.3-4.64v-28.29c0-1.84,1.07-4.41,2.37-5.71l7.3-7.27"/>
        <line class="cls-1" x1="265.75" y1="189.91" x2="265.75" y2="215.39"/>
        <path class="cls-1" d="M265.22,242.87h-11.15c-1.84,0-4.41-1.06-5.71-2.37l-1.7-1.7c-1.3-1.3-3.42-1.29-4.71.03l-3.57,3.65c-1.29,1.32-2.34,3.9-2.34,5.74v18.59"/>
        <path class="cls-1" d="M245.52,266.82v-11.59c0-1.84,1.51-3.35,3.35-3.35h16.89"/>
        <path class="cls-1" d="M254.98,266.82l2.27-2.66c1.2-1.4,3.65-2.54,5.46-2.54h3.29"/>
        <path class="cls-1" d="M183.08,245.97c1.84,0,4.39-1.09,5.66-2.42l15.05-15.73c1.27-1.33,3.38-1.35,4.68-.05l6.29,6.31c1.3,1.3,2.36,3.87,2.36,5.72v10.5c0,1.84-1.03,4.44-2.3,5.78l-6.63,7.04c-1.26,1.34-3.8,2.43-5.64,2.43h-38.87c-1.84,0-3.34-1.51-3.33-3.35l.07-12.84c.01-1.84,1.52-3.35,3.36-3.35l19.29-.03Z"/>
        <path class="cls-1" d="M170.03,255.42h17.08c1.84,0,4.36-1.11,5.61-2.47l10.92-11.91c1.24-1.36,2.74-1.57,3.33-.48s1.09,3.32,1.12,4.96-.99,4.07-2.26,5.4l-4.62,4.87c-1.27,1.33-3.39,1.38-4.72.1l-3.43-3.3"/>
        <path class="cls-1" d="M79.4,223.09c1.84.08,4.4,1.22,5.68,2.53l9.19,9.38c1.29,1.32,1.31,3.49.04,4.82l-1.68,1.77c-1.26,1.34-3.37,1.37-4.68.08l-9.85-9.75c-1.31-1.29-2.35-3.85-2.3-5.67s1.58-3.26,3.42-3.18h.18Z"/>
        <path class="cls-1" d="M124.69,266.8l-10.47-10.15c-1.32-1.28-2.4-3.84-2.4-5.68v-7.77c0-1.84-1.05-4.42-2.34-5.74l-20.58-21.05c-1.29-1.32-3.84-2.39-5.69-2.39h-14.2c-1.84,0-3.35.68-3.35,1.51s0,2.04,0,2.68v10.73c0,1.84,1.08,4.4,2.4,5.68l7.26,7.09c1.32,1.29,3.44,3.42,4.73,4.74l2.57,2.65c1.28,1.32,3.84,2.38,5.68,2.36l4.52-.06c1.84-.02,4.36-1.16,5.6-2.52l2.42-2.66c1.24-1.36,2.27-.97,2.29.87l.08,6.99c.02,1.84,1.1,4.41,2.41,5.7l7.25,7.2"/>
        <path class="cls-1" d="M138.13,267.02l-14.46-14.28c-1.31-1.29-2.46-3.86-2.56-5.69l-.48-8.81c-.1-1.84-1.26-4.39-2.58-5.68l-26.71-26c-1.32-1.28-3.9-2.34-5.74-2.34l-20.02-.02c-1.84,0-4.45,1.02-5.8,2.28l-7.87,7.32c-1.35,1.25-1.41,3.37-.15,4.71l2.3,2.43c1.27,1.34,2.3,3.93,2.3,5.78v7.81c0,.87,1.06,2.64,2.37,3.94l14.03,14.03c1.3,1.3,2.37,3.87,2.37,5.71v8.48"/>
        <path class="cls-1" d="M131.93,239.05v5.11c0,1.84,1.02,4.46,2.26,5.81l14.41,15.72c1.24,1.36,2.26.96,2.26-.88v-23.85c0-1.84,1.51-3.35,3.35-3.35h24.34c1.84,0,4.39-1.09,5.66-2.41l19.86-20.68c1.27-1.33,3.38-1.34,4.67-.04l15.95,16.08c1.3,1.31,2.34,3.88,2.31,5.72l-.38,27.17c-.03,1.84-1.55,3.35-3.39,3.35h-6.35"/>
        <path class="cls-1" d="M3.65,214.02h27.24c1.84,0,4.38,1.09,5.65,2.43l7.91,8.32c1.27,1.33,2.31,3.93,2.31,5.77v6.08c0,1.84,1.06,4.41,2.37,5.71l15.79,15.78c1.3,1.3,2.37,3.85,2.37,5.66v3.29"/>
        <path class="cls-1" d="M3.17,223.49h23.78c1.84,0,4.38,1.1,5.64,2.44l2.4,2.55c1.26,1.34,2.29,3.94,2.29,5.78v6.29c0,1.84,1.06,4.42,2.35,5.72l15.21,15.36c1.3,1.31,2.35,3.14,2.35,4.07v1.69"/>
        <path class="cls-1" d="M3.25,232.95h21.22c1.84,0,3.3,1.51,3.24,3.35l-.09,2.77c-.06,1.84-.1,4.68-.1,6.31s1.08,4.02,2.39,5.3l17.44,17.02"/>
        <path class="cls-1" d="M4.03,242.54h10.98c1.84,0,3.35,1.51,3.35,3.35v2.65c0,1.84,1.07,4.41,2.38,5.7l10.33,10.22c1.31,1.29.87,2.38-.97,2.41l-17.86.29c-1.84.03-3.35-1.45-3.35-3.28v-8.65c0-1.84-1.09-3.35-2.43-3.35h-2.43"/>
        <path class="cls-1" d="M3.17,204.56h31.94c1.84,0,4.37,1.11,5.62,2.46l.18.19c1.25,1.35,3.34,1.39,4.64.09l9.51-9.51c1.3-1.3,3.87-2.37,5.71-2.37h27.58"/>
        <path class="cls-1" d="M3.25,195.09h37.77c1.84,0,4.44-1.03,5.79-2.29l5.64-5.29c1.34-1.26,3.95-2.29,5.79-2.29h24.51"/>
        <path class="cls-1" d="M3.65,185.22h30.29c1.84,0,3.35-1.51,3.35-3.35v-40.35c0-1.84-1.51-3.34-3.35-3.33l-18.74.09c-1.84,0-4.4-1.06-5.68-2.38l-5.87-6.03"/>
        <path class="cls-1" d="M3.06,147.76h21.42c1.84,0,3.35,1.51,3.35,3.35v2.77c0,1.84-1.51,3.35-3.35,3.35H3.65"/>
        <path class="cls-1" d="M21.7,166.7h2.78c1.85,0,3.35,1.5,3.35,3.35v2.77c0,1.85-1.5,3.35-3.35,3.35h-2.77c-1.85,0-3.35-1.5-3.35-3.35v-2.77c0-1.85,1.5-3.34,3.34-3.34Z"/>
        <path class="cls-1" d="M3.65,166.7h2.62c1.44,0,2.62,1.51,2.62,3.35v3.43c0,1.84-1.18,3.35-2.62,3.35h-2.62"/>
        <path class="cls-1" d="M56.21,157.23v-5.91c0-1.84,1.28-3.35,2.83-3.35s3.69,1.02,4.73,2.26,1.9,3.76,1.9,5.6v7.51c0,1.84-1.51,3.35-3.35,3.35h-12.24c-1.84,0-3.35-1.51-3.35-3.35v-21.7c0-1.84,1.51-3.35,3.35-3.35h11.33c1.84,0,4.41,1.06,5.71,2.36l5.64,5.64c1.3,1.3,2.38,3.87,2.39,5.71l.04,6c.01,1.84-.01,4.5-.06,5.91s.98,3.64,2.27,4.95l4.84,4.9c1.29,1.31.84,2.4-1,2.41l-27.98.24c-1.84.02-4.11.92-5.04,2.01l-1.69,1.98"/>
        <path class="cls-1" d="M264.48,69.76l-11.42-11.42c-1.3-1.3-3.43-1.3-4.73,0l-8.41,8.41c-1.3,1.3-3.43,1.3-4.73,0l-15.09-15.09c-1.3-1.3-1.3-3.43,0-4.73l13.61-13.61c1.3-1.3,2.37-3.87,2.36-5.71V2.89"/>
        <path class="cls-1" d="M236.05,84.16v-1.63c0-.9-1.06-2.69-2.37-3.99l-20.37-20.37c-1.3-1.3-3.43-1.3-4.73,0l-12.59,12.59c-1.3,1.3-3.44,1.31-4.75.02l-13.64-13.39c-1.31-1.29-2.33-3.29-2.25-4.44s1.21-3.15,2.52-4.45l17.15-16.93c1.31-1.29,3.45-1.29,4.75.01l1.74,1.74c1.3,1.3,3.43,1.3,4.73,0l8.88-8.88c1.3-1.3,2.37-3.87,2.37-5.71V2.89"/>
        <path class="cls-1" d="M226.52,2.88v20.52c0,1.84-1.06,4.41-2.37,5.71l-28.03,28.03c-1.3,1.3-3.43,1.3-4.73,0l-1.84-1.84c-1.3-1.3-1.3-3.43,0-4.73l5.16-5.16c1.3-1.3,3.46-1.33,4.8-.07l4.19,3.95"/>
        <path class="cls-1" d="M236.3,44.82h2.13c1.85,0,3.35,1.5,3.35,3.35v2.44c0,1.85-1.5,3.35-3.35,3.35h-2.13c-1.85,0-3.35-1.5-3.35-3.35v-2.44c0-1.85,1.5-3.35,3.35-3.35Z" transform="translate(34.58 182.29) rotate(-44.99)"/>
        <path class="cls-1" d="M264.62,56.04l-16.71-16.31c-1.32-1.29-2.4-3.84-2.4-5.68V2.69"/>
        <path class="cls-1" d="M264.44,43.04l-7.05-7.28c-1.28-1.32-2.33-3.91-2.33-5.75V2.89"/>
        <line class="cls-1" x1="264.62" y1="2.89" x2="264.62" y2="29.51"/>
        <path class="cls-1" d="M207.43,2.55v13.33c0,1.84-.8,4.15-1.79,5.13s-2.85.72-4.15-.58l-2.36-2.36c-1.3-1.3-3.43-1.3-4.73,0l-15.51,15.51c-1.3,1.3-3.43,3.43-4.73,4.73l-6.28,6.28c-1.3,1.3-3.43,1.3-4.73,0l-1.58-1.58c-1.3-1.3-1.3-3.43,0-4.73l19.86-19.86c1.3-1.3,1.3-3.43,0-4.73l-11.12-11.1"/>
        <path class="cls-1" d="M184.36,3.36l4.15,3.52c1.4,1.19,3.7,1.19,5.1,0l.8-.68c1.4-1.19,2.83-2.47,3.16-2.83l.61-.66"/>
        <path class="cls-1" d="M156.99,2.56l11.16,10.86c1.32,1.28,1.33,3.4.03,4.7l-13.35,13.34c-1.3,1.3-3.87,2.37-5.71,2.37h-9.18c-1.84,0-4.48-1-5.86-2.21l-.42-.37c-1.38-1.22-3.38-3.21-4.44-4.44s-3.26-2.2-4.9-2.16-4.01,1.17-5.28,2.5l-3.74,3.94c-1.27,1.33-3.81,2.43-5.65,2.42h-2.72c-1.84,0-3.35-1.51-3.35-3.35l-.04-27.01"/>
        <path class="cls-1" d="M113.03,2.84l-.08,15.54c0,1.84,1.06,2.29,2.37,1.01l2.08-2.03c1.32-1.29,3.9-2.34,5.74-2.34h4.37c1.84,0,4.39,1.09,5.67,2.41l4.58,4.77c1.28,1.33,3.83,2.43,5.67,2.46l1.09.02c1.84.03,4.39-1.04,5.67-2.36l4.48-4.65c1.28-1.32,1.24-3.45-.09-4.73l-10.75-10.37"/>
        <path class="cls-1" d="M144.65,15.75l-10.48-10.62c-1.29-1.31-3.86-2.38-5.7-2.38h-3.82c-1.84,0-3.35,1.15-3.35,2.55v2.55"/>
        <path class="cls-1" d="M61.3,128.84H19.38c-1.84,0-4.44-1.04-5.78-2.3l-3.71-3.51c-1.34-1.26-3.47-2.3-4.73-2.3h-2.29"/>
        <path class="cls-1" d="M55.94,119.37h-21.39c-1.04,0-2.96-1.06-4.26-2.37l-4.49-4.49c-1.3-1.3-3.87-2.37-5.71-2.37H3.06"/>
        <path class="cls-1" d="M32.65,119.37h-9.65c-1.84,0-4.41-1.06-5.71-2.37l-6.36-6.36"/>
        <path class="cls-1" d="M3.72,100.44h20.43c1.84,0,4.41,1.06,5.71,2.37l4.19,4.19c1.3,1.3,3.87,2.37,5.71,2.37h14.45"/>
        <path class="cls-1" d="M3.72,90.98h25.93c1.01,0,2.89,1.06,4.2,2.37l5.17,5.17c1.3,1.3,3.87,2.37,5.71,2.37h1.54c1.84,0,4.47.01,5.84.03s1.43-1.04.12-2.34l-20.25-20.25c-1.3-1.3-2.73-2.73-3.18-3.18s-.83-2.32-.84-4.16l-.12-20.55c-.01-1.84,1.05-2.28,2.35-.98l4.17,4.17c1.3,1.3,2.42,3.87,2.5,5.71l.3,7.79c.07,1.84,1.19,4.41,2.5,5.71l7.99,7.99c1.3,1.3,2.36.86,2.34-.98l-.12-17.43c-.01-1.84,1.06-4.4,2.38-5.68l11.05-10.74c1.32-1.28,3.9-2.32,5.74-2.31h1.22c1.84.02,4.4-1.04,5.7-2.35l15.96-16.19c1.29-1.31,2.34-3.89,2.32-5.73l-.15-16.43"/>
        <path class="cls-1" d="M10.01,2.5l-4.59,4.59c-1.3,1.3-1.3,3.43,0,4.73l35.37,35.37c1.3,1.3,3.43,1.3,4.73,0l8.89-8.89c1.3-1.3,1.3-3.43,0-4.73l-2.34-2.34c-1.3-1.3-3.43-1.3-4.73,0l-10.87,10.87"/>
        <path class="cls-1" d="M2.5,21.94l13.88,13.88c1.3,1.3,2.37,3.87,2.37,5.71v36.63c0,1.84-1.51,3.35-3.35,3.35H3.72"/>
        <path class="cls-1" d="M3.06,35.95l3.16,3.16c1.3,1.3,2.38,3.87,2.4,5.71l.24,23.88c.02,1.84-1.13,3.35-2.55,3.35h-2.58"/>
        <path class="cls-1" d="M84.61,2.84l-.07,14.07c0,1.84-1.08,4.41-2.38,5.71l-9.47,9.46c-1.3,1.3-3.48,1.36-4.85.12l-15.25-13.76c-1.37-1.23-3.55-1.18-4.85.12l-8.6,8.6c-1.3,1.3-3.43,1.3-4.73,0l-15.44-15.44c-1.3-1.3-1.3-3.43,0-4.73l4.45-4.45"/>
        <path class="cls-1" d="M35.81,3.01l-3.61,3.61c-1.3,1.3-1.3,3.43,0,4.73l2.18,2.18c1.3,1.3,3.43,1.3,4.73,0l8.62-8.62c1.3-1.3,3.43-1.31,4.74,0l15.44,15.33c1.31,1.3,3.42,1.28,4.7-.05l.2-.21c1.28-1.32,2.33-3.91,2.33-5.75v-7.69c0-1.84-1.51-3.35-3.35-3.35h-6.12"/>
        <line class="cls-1" x1="141.99" y1="258.04" x2="141.99" y2="240.38"/>
      </g>
      <polyline class="cls-1" points="101.27 266.84 95.14 260.72 85.33 260.94 85.37 266.8"/>
    </g>
  </g>
</svg>