<?xml version="1.0" encoding="UTF-8"?>
<svg id="Ebene_2" data-name="Ebene 2" xmlns="http://www.w3.org/2000/svg" viewBox="0 0 3980 1025">
  <defs>
    <style>
      .cls-1 {
        fill: #1d1d1b;
      }

      .cls-2 {
        fill: none;
      }
    </style>
  </defs>
  <g id="Ebene_2-2" data-name="Ebene 2">
    <path class="cls-1" d="M563.65,509.83c0,69.42-56.07,126.38-124.6,126.38s-123.71-56.96-123.71-126.38,55.18-125.49,123.71-125.49,124.6,56.07,124.6,125.49Z"/>
    <path class="cls-1" d="M1922.56,496.48c-65.87,0-119.26,53.39-119.26,119.26s53.39,119.26,119.26,119.26c65.55.32,118.94-52.57,119.26-118.12v-1.14c0-65.87-53.39-119.26-119.26-119.26ZM1922.56,496.48c-65.87,0-119.26,53.39-119.26,119.26s53.39,119.26,119.26,119.26c65.55.32,118.94-52.57,119.26-118.12v-1.14c0-65.87-53.39-119.26-119.26-119.26ZM0,0v1025h3980V0H0ZM415.02,824h-226.06V201h226.06c173.55,0,311.5,136.17,311.5,311.5s-137.95,311.5-311.5,311.5ZM902.55,824h-93.45V201h93.45v623ZM1590.96,668.25c0,93.45-71.2,164.65-166.43,164.65s-167.33-71.2-167.33-164.65v-312.39c0-46.28-31.15-78.32-73-78.32s-73.87,32-73.87,78.32v468.14h-93.43v-463.69c0-97.9,72.06-168.21,167.32-168.21s166.43,70.31,166.43,168.21v312.39c0,46.28,31.15,73.87,73.87,73.87s73-27.59,73-73.87V201h93.44v467.25ZM1611.96,824l265.21-596.3c11.57-24.03,25.79-35.6,45.39-35.6s33.82,11.57,44.5,35.6l263.45,596.3h-618.55ZM3059.53,824h-93.45v-470.81c0-42.72-29.37-73.87-69.42-73.87s-70.3,31.15-70.3,73.87v318.62c0,92.56-66.75,161.09-158.42,161.09s-157.54-68.53-157.54-161.09v-318.62c0-42.72-29.37-73.87-70.3-73.87s-70.32,31.15-70.32,73.87v470.81h-93.44v-460.13c0-99.68,69.42-171.77,163.76-171.77s163.76,72.09,163.76,171.77v313.28c0,39.16,26.7,68.53,64.08,68.53s65-29.37,65-68.53v-313.28c-.04-99.68,69.38-171.77,163.72-171.77s162.87,72.09,162.87,171.77v460.13ZM3465.29,832.9c-183.34,0-325.74-142.4-325.74-320.4s142.41-320.4,325.74-320.4,325.74,142.4,325.74,320.4-142.4,320.4-325.74,320.4ZM3465.24,370.99c-76.54,0-137.95,63.19-137.95,141.51s61.41,140.62,137.95,140.62c75.72-.02,138-63.19,138-140.62s-62.3-141.51-138-141.51ZM1803.3,615.74c0,65.87,53.39,119.26,119.26,119.26,65.55.32,118.94-52.57,119.26-118.12v-1.14c0-65.87-53.39-119.26-119.26-119.26s-119.26,53.39-119.26,119.26ZM1922.56,496.48c-65.87,0-119.26,53.39-119.26,119.26s53.39,119.26,119.26,119.26c65.55.32,118.94-52.57,119.26-118.12v-1.14c0-65.87-53.39-119.26-119.26-119.26ZM1922.56,496.48c-65.87,0-119.26,53.39-119.26,119.26s53.39,119.26,119.26,119.26c65.55.32,118.94-52.57,119.26-118.12v-1.14c0-65.87-53.39-119.26-119.26-119.26Z"/>
  </g>
  <g id="Layer_1" data-name="Layer 1">
    <g id="Layer_2" data-name="Layer 2">
      <g id="Layer_1-2" data-name="Layer 1-2">
        <path class="cls-2" d="M415.02,201h-226.06v623h226.06c173.55,0,311.5-137.06,311.5-311.5s-137.95-311.5-311.5-311.5ZM439.05,636.21c-68.53,0-123.71-56.96-123.71-126.38s55.18-125.49,123.71-125.49,124.6,56.07,124.6,125.49-56.07,126.38-124.6,126.38Z"/>
        <rect class="cls-2" x="809.1" y="201" width="93.45" height="623"/>
        <path class="cls-2" d="M1590.96,201v467.25c0,93.45-71.2,164.65-166.43,164.65s-167.33-71.2-167.33-164.65v-312.39c0-46.28-31.15-78.32-73-78.32s-73.87,32-73.87,78.32v468.14h-93.43v-463.69c0-97.9,72.06-168.21,167.32-168.21s166.43,70.31,166.43,168.21v312.39c0,46.28,31.15,73.87,73.87,73.87s73-27.59,73-73.87V201h93.44Z"/>
        <path class="cls-2" d="M1967.06,227.7c-10.68-24.03-24.9-35.6-44.5-35.6s-33.82,11.57-45.39,35.6l-265.21,596.3h618.55l-263.45-596.3ZM1922.56,735c-65.87,0-119.26-53.39-119.26-119.26s53.39-119.26,119.26-119.26,119.26,53.39,119.26,119.26v1.14c-.32,65.55-53.71,118.44-119.26,118.12Z"/>
        <path class="cls-2" d="M3059.53,363.87v460.13h-93.45v-470.81c0-42.72-29.37-73.87-69.42-73.87s-70.3,31.15-70.3,73.87v318.62c0,92.56-66.75,161.09-158.42,161.09s-157.54-68.53-157.54-161.09v-318.62c0-42.72-29.37-73.87-70.3-73.87s-70.32,31.15-70.32,73.87v470.81h-93.44v-460.13c0-99.68,69.42-171.77,163.76-171.77s163.76,72.09,163.76,171.77v313.28c0,39.16,26.7,68.53,64.08,68.53s65-29.37,65-68.53v-313.28c-.04-99.68,69.38-171.77,163.72-171.77s162.87,72.09,162.87,171.77Z"/>
        <path class="cls-2" d="M3465.29,192.1c-183.33,0-325.74,142.4-325.74,320.4s142.4,320.4,325.74,320.4,325.74-142.4,325.74-320.4-143.29-320.4-325.74-320.4ZM3465.24,653.12c-76.54,0-137.95-63.19-137.95-140.62s61.41-141.51,137.95-141.51,138,63.19,138,141.51-62.28,140.6-138,140.62Z"/>
      </g>
    </g>
  </g>
</svg>