<?xml version="1.0" encoding="UTF-8"?>
<svg id="Ebene_2" data-name="Ebene 2" xmlns="http://www.w3.org/2000/svg" viewBox="0 0 449.9 291.7">
  <defs>
    <style>
      .cls-1 {
        fill: #1d1d1b;
      }
    </style>
  </defs>
  <g id="Ebene_1-2" data-name="Ebene 1">
    <path class="cls-1" d="M20.5,214v5.3H6.6v6.7h12.1v4.9H6.6v11.9H.3v-28.8h20.2Z"/>
    <path class="cls-1" d="M24.1,228.3c.1-1.3.4-2.5,1-3.3.6-.9,1.3-1.6,2.3-2.1.9-.5,1.9-.9,3.1-1.2,1.1-.2,2.3-.3,3.4-.3s2.1.1,3.2.2c1.1.2,2.1.4,2.9.9.9.4,1.6,1,2.2,1.8.6.8.9,1.8.9,3v10.8c0,.9.1,1.8.2,2.7s.3,1.5.6,1.9h-5.8c-.1-.3-.2-.7-.3-1s-.1-.7-.1-1c-.9.9-2,1.6-3.2,2s-2.5.6-3.8.6c-1,0-1.9-.1-2.8-.4s-1.6-.6-2.3-1.1-1.1-1.2-1.5-1.9c-.4-.8-.5-1.7-.5-2.8,0-1.2.2-2.2.6-2.9.4-.8.9-1.4,1.6-1.8s1.4-.8,2.3-1c.9-.2,1.7-.4,2.6-.5s1.7-.2,2.5-.3c.8-.1,1.6-.2,2.2-.4s1.2-.4,1.5-.7c.4-.3.6-.8.5-1.3,0-.6-.1-1.1-.3-1.5s-.5-.7-.8-.8c-.3-.2-.7-.3-1.2-.4s-.9-.1-1.4-.1c-1.1,0-2,.2-2.7.7-.6.5-1,1.3-1.1,2.4l-5.8-.2h0ZM37.4,232.5c-.2.2-.5.4-.9.5s-.8.2-1.2.3-.9.2-1.3.2c-.5.1-.9.1-1.4.2-.4.1-.9.2-1.3.3s-.8.3-1.1.5-.6.5-.8.9-.3.8-.3,1.3.1.9.3,1.3.4.6.8.8c.3.2.7.3,1.1.4.4.1.9.1,1.3.1,1.1,0,2-.2,2.6-.6s1.1-.8,1.4-1.3c.3-.5.5-1,.5-1.6.1-.5.1-1,.1-1.3l.2-2h0Z"/>
    <path class="cls-1" d="M54.6,214v15.4l7.2-7.5h6.8l-7.9,7.7,8.7,13.2h-6.9l-5.7-9.3-2.2,2.1v7.2h-5.7v-28.8h5.7Z"/>
    <path class="cls-1" d="M86.4,242.7v-2.9h-.1c-.7,1.2-1.7,2.1-2.8,2.6s-2.3.8-3.5.8c-1.5,0-2.8-.2-3.8-.6s-1.8-1-2.3-1.7c-.6-.7-1-1.6-1.2-2.7s-.3-2.2-.3-3.5v-12.8h5.7v11.8c0,1.7.3,3,.8,3.8s1.5,1.3,2.9,1.3c1.6,0,2.7-.5,3.4-1.4.7-.9,1-2.5,1-4.6v-10.9h5.7v20.8h-5.5Z"/>
    <path class="cls-1" d="M102.8,214v28.8h-5.7v-28.8h5.7Z"/>
    <path class="cls-1" d="M119.6,221.9v3.8h-4.2v10.3c0,1,.2,1.6.5,1.9s1,.5,1.9.5h.9c.3,0,.6-.1.9-.1v4.4c-.5.1-1,.1-1.6.2h-1.7c-.9,0-1.7-.1-2.5-.2s-1.5-.3-2.1-.7c-.6-.3-1.1-.8-1.4-1.5-.4-.7-.5-1.5-.5-2.5v-12.3h-3.5v-3.8h3.5v-6.2h5.7v6.2h4.1Z"/>
    <path class="cls-1" d="M123.9,225c.6-.9,1.3-1.6,2.3-2.1.9-.5,1.9-.9,3.1-1.2,1.1-.2,2.3-.3,3.5-.3,1,0,2.1.1,3.2.2,1.1.2,2.1.4,2.9.9.9.4,1.6,1,2.2,1.8.6.8.9,1.8.9,3v10.8c0,.9,0,1.8.2,2.7.1.9.3,1.5.6,1.9h-5.8c-.1-.3-.2-.7-.3-1s-.1-.7-.1-1c-.9.9-2,1.6-3.2,2s-2.5.6-3.8.6c-1,0-1.9-.1-2.8-.4s-1.6-.6-2.3-1.1c-.6-.5-1.1-1.2-1.5-1.9-.4-.8-.5-1.7-.5-2.8,0-1.2.2-2.2.6-2.9.4-.8,1-1.4,1.6-1.8.7-.5,1.4-.8,2.3-1,.9-.2,1.7-.4,2.6-.5s1.7-.2,2.5-.3c.8-.1,1.6-.2,2.2-.4s1.2-.4,1.5-.7c.4-.3.5-.8.5-1.3,0-.6-.1-1.1-.3-1.5s-.5-.7-.8-.8c-.3-.2-.7-.3-1.2-.4s-.9-.1-1.4-.1c-1.1,0-2,.2-2.7.7-.6.5-1,1.3-1.1,2.4h-5.7c-.1-1.5.2-2.6.8-3.5ZM131.1,214v4.7h-5.4v-4.7h5.4ZM135.2,233c-.4.1-.8.2-1.2.3s-.9.2-1.3.2c-.5.1-.9.1-1.4.2-.4.1-.9.2-1.3.3-.4.1-.8.3-1.1.5s-.6.5-.8.9-.3.8-.3,1.3.1.9.3,1.3.4.6.8.8.7.3,1.1.4c.4.1.9.1,1.3.1,1.1,0,2-.2,2.6-.6s1.1-.8,1.4-1.3c.3-.5.5-1,.5-1.6.1-.5.1-1,.1-1.3v-2c0,.3-.3.4-.7.5ZM139.4,214v4.7h-5.4v-4.7h5.4Z"/>
    <path class="cls-1" d="M158.5,221.9v3.8h-4.2v10.3c0,1,.2,1.6.5,1.9s1,.5,1.9.5h.9c.3,0,.6-.1.9-.1v4.4c-.5.1-1,.1-1.6.2h-1.7c-.9,0-1.7-.1-2.5-.2s-1.5-.3-2.1-.7c-.6-.3-1.1-.8-1.4-1.5-.4-.7-.5-1.5-.5-2.5v-12.3h-3.5v-3.8h3.5v-6.2h5.7v6.2h4.1Z"/>
    <path class="cls-1" d="M191.7,242.5c-1.4.6-2.8.9-4.1.9-2.2,0-4.2-.4-5.9-1.2s-3.2-1.8-4.5-3.2c-1.2-1.3-2.1-2.9-2.8-4.7-.6-1.8-1-3.8-1-5.9s.3-4.1,1-6c.6-1.8,1.6-3.5,2.8-4.8s2.7-2.5,4.5-3.2c1.8-.8,3.7-1.2,5.9-1.2,1.5,0,2.9.2,4.3.7,1.4.4,2.6,1.1,3.8,2s2,1.9,2.8,3.2c.7,1.3,1.2,2.7,1.3,4.3h-6c-.4-1.6-1.1-2.8-2.2-3.6s-2.4-1.2-3.9-1.2c-1.4,0-2.6.3-3.6.8s-1.8,1.3-2.4,2.2c-.6.9-1.1,2-1.4,3.2s-.4,2.4-.4,3.7c0,1.2.1,2.4.4,3.5.3,1.1.7,2.2,1.4,3.1.6.9,1.4,1.7,2.4,2.2s2.2.8,3.6.8c2.1,0,3.7-.5,4.9-1.6,1.1-1.1,1.8-2.6,2-4.6h-6.4v-4.7h12.1v15.6h-4l-.9-3.3c-1.1,1.4-2.4,2.4-3.7,3Z"/>
    <path class="cls-1" d="M211.5,237.7c.9.8,2.1,1.2,3.7,1.2,1.2,0,2.1-.3,3-.9.8-.6,1.3-1.2,1.5-1.8h5c-.8,2.5-2,4.3-3.7,5.4s-3.7,1.6-6,1.6c-1.6,0-3.1-.3-4.4-.8-1.3-.5-2.4-1.3-3.4-2.2s-1.6-2.1-2.1-3.5c-.5-1.3-.8-2.8-.8-4.4s.3-3,.8-4.3,1.2-2.5,2.2-3.5,2.1-1.8,3.4-2.3c1.3-.6,2.8-.8,4.3-.8,1.8,0,3.3.3,4.6,1s2.4,1.6,3.2,2.8,1.5,2.5,1.8,4c.4,1.5.5,3,.4,4.6h-15c.2,1.8.7,3.1,1.5,3.9ZM218,226.8c-.7-.8-1.7-1.1-3.1-1.1-.9,0-1.7.2-2.3.5s-1.1.7-1.5,1.2-.6.9-.8,1.5-.2,1-.3,1.4h9.3c-.1-1.7-.6-2.8-1.3-3.5Z"/>
    <path class="cls-1" d="M234.2,237.6c.2.4.6.8,1,1.1.4.3.9.5,1.4.6s1.1.2,1.6.2c.4,0,.8,0,1.3-.1.4-.1.9-.2,1.2-.4s.7-.5.9-.8c.2-.3.4-.8.4-1.3,0-.9-.6-1.5-1.7-1.9s-2.7-.9-4.8-1.3c-.8-.2-1.6-.4-2.4-.7s-1.5-.6-2.1-1-1.1-.9-1.5-1.6c-.4-.6-.6-1.4-.6-2.3,0-1.3.3-2.4.8-3.3s1.2-1.5,2.1-2c.9-.5,1.8-.8,2.9-1s2.2-.3,3.3-.3,2.2.1,3.3.3c1.1.2,2,.6,2.8,1.1s1.5,1.2,2.1,2,.9,1.9,1,3.2h-5.4c-.1-1.1-.5-1.8-1.2-2.2s-1.6-.6-2.7-.6c-.3,0-.7,0-1.1.1-.4,0-.7.1-1,.3s-.6.3-.8.6c-.2.3-.3.6-.3,1,0,.5.2.9.6,1.2.4.3.9.6,1.5.8.6.2,1.3.4,2.1.5s1.6.3,2.4.5,1.6.4,2.4.7c.8.3,1.5.6,2.1,1.1s1.1,1,1.5,1.7.6,1.5.6,2.4c0,1.4-.3,2.5-.8,3.5s-1.3,1.7-2.2,2.2c-.9.6-1.9,1-3,1.2s-2.3.3-3.5.3-2.4-.1-3.6-.4c-1.2-.2-2.2-.6-3.1-1.2-.9-.6-1.6-1.3-2.2-2.2s-.9-2.1-1-3.5h5.4c-.1.5,0,1,.3,1.5Z"/>
    <path class="cls-1" d="M263.3,221.9v3.8h-4.2v10.3c0,1,.2,1.6.5,1.9s1,.5,1.9.5h.9c.3,0,.6-.1.9-.1v4.4c-.5.1-1,.1-1.6.2h-1.7c-.9,0-1.7-.1-2.5-.2s-1.5-.3-2.1-.7c-.6-.3-1.1-.8-1.4-1.5-.4-.7-.5-1.5-.5-2.5v-12.3h-3.5v-3.8h3.5v-6.2h5.7v6.2h4.1Z"/>
    <path class="cls-1" d="M266.6,228.3c.1-1.3.4-2.5,1-3.3.6-.9,1.3-1.6,2.3-2.1.9-.5,1.9-.9,3.1-1.2,1.1-.2,2.3-.3,3.5-.3,1,0,2.1.1,3.2.2,1.1.2,2.1.4,2.9.9.9.4,1.6,1,2.2,1.8s.9,1.8.9,3v10.8c0,.9,0,1.8.2,2.7.1.9.3,1.5.6,1.9h-6.1c-.1-.3-.2-.7-.3-1-.1-.3-.1-.7-.1-1-.9.9-2,1.6-3.2,2s-2.5.6-3.8.6c-1,0-1.9-.1-2.8-.4s-1.6-.6-2.3-1.1c-.6-.5-1.1-1.2-1.5-1.9-.4-.8-.5-1.7-.5-2.8,0-1.2.2-2.2.6-2.9.4-.8,1-1.4,1.6-1.8.7-.5,1.4-.8,2.3-1s1.7-.4,2.6-.5,1.7-.2,2.5-.3c.8-.1,1.6-.2,2.2-.4s1.2-.4,1.5-.7c.4-.3.5-.8.5-1.3,0-.6-.1-1.1-.3-1.5-.2-.4-.5-.7-.8-.8-.3-.2-.7-.3-1.2-.4s-.9-.1-1.4-.1c-1.1,0-2,.2-2.7.7-.6.5-1,1.3-1.1,2.4l-5.6-.2h0ZM279.8,232.5c-.2.2-.5.4-.9.5s-.8.2-1.2.3-.9.2-1.3.2c-.5.1-.9.1-1.4.2-.4.1-.9.2-1.3.3-.4.1-.8.3-1.1.5s-.6.5-.8.9-.3.8-.3,1.3.1.9.3,1.3.4.6.8.8.7.3,1.1.4.9.1,1.3.1c1.1,0,2-.2,2.6-.6s1.1-.8,1.4-1.3.5-1,.5-1.6c.1-.5.1-1,.1-1.3l.2-2h0Z"/>
    <path class="cls-1" d="M296.6,214v28.8h-5.7v-28.8h5.7Z"/>
    <path class="cls-1" d="M313.4,221.9v3.8h-4.2v10.3c0,1,.2,1.6.5,1.9s1,.5,1.9.5h.9c.3,0,.6-.1.9-.1v4.4c-.5.1-1,.1-1.6.2h-1.7c-.9,0-1.7-.1-2.5-.2s-1.5-.3-2.1-.7c-.6-.3-1.1-.8-1.4-1.5-.4-.7-.5-1.5-.5-2.5v-12.3h-3.5v-3.8h3.5v-6.2h5.7v6.2h4.1Z"/>
    <path class="cls-1" d="M331,242.7v-2.9h-.1c-.7,1.2-1.7,2.1-2.8,2.6-1.2.5-2.3.8-3.5.8-1.5,0-2.8-.2-3.8-.6s-1.8-1-2.3-1.7c-.6-.7-1-1.6-1.2-2.7s-.3-2.2-.3-3.5v-12.8h5.7v11.8c0,1.7.3,3,.8,3.8s1.5,1.3,2.9,1.3c1.6,0,2.7-.5,3.4-1.4.7-.9,1-2.5,1-4.6v-10.9h5.7v20.8h-5.5Z"/>
    <path class="cls-1" d="M347.1,221.9v2.9h.1c.7-1.2,1.7-2.1,2.8-2.6,1.2-.5,2.3-.8,3.5-.8,1.5,0,2.8.2,3.8.6s1.8,1,2.3,1.7,1,1.6,1.2,2.7.3,2.2.3,3.5v12.8h-5.7v-11.8c0-1.7-.3-3-.8-3.8s-1.5-1.3-2.9-1.3c-1.6,0-2.7.5-3.4,1.4s-1,2.5-1,4.6v10.9h-5.7v-20.8h5.5Z"/>
    <path class="cls-1" d="M386,244.3c-.2,1.1-.7,2.1-1.5,3s-1.8,1.7-3.3,2.4c-1.4.7-3.3,1-5.7,1-1,0-2.1-.1-3.1-.4s-2-.7-2.9-1.2-1.6-1.2-2.2-2.1c-.6-.8-.9-1.9-1-3h5.7c.3,1.1.8,1.8,1.6,2.2s1.7.6,2.7.6c1.6,0,2.8-.5,3.5-1.5s1.1-2.2,1.1-3.7v-2.7h-.1c-.6,1.1-1.5,1.9-2.6,2.4s-2.3.8-3.6.8c-1.6,0-2.9-.3-4-.8s-2.1-1.3-2.8-2.3c-.7-1-1.2-2.1-1.6-3.3-.3-1.3-.5-2.6-.5-4,0-1.3.2-2.6.6-3.9s1-2.3,1.7-3.3c.8-1,1.7-1.7,2.8-2.3,1.1-.6,2.4-.8,3.8-.8s2.6.3,3.6.8,1.9,1.4,2.6,2.6h.1v-2.8h5.4v19.5c0,.7-.1,1.7-.3,2.8ZM378.2,237.3c.6-.3,1.1-.8,1.5-1.3s.7-1.2.9-1.8c.2-.7.3-1.4.3-2.2,0-.9-.1-1.7-.2-2.4s-.4-1.5-.8-2c-.4-.6-.9-1.1-1.5-1.4s-1.4-.5-2.3-.5c-.8,0-1.5.2-2.1.5s-1.1.8-1.5,1.3-.7,1.2-.8,1.9c-.2.7-.3,1.5-.3,2.2,0,.8.1,1.5.2,2.2.2.7.4,1.4.8,2s.8,1.1,1.4,1.5,1.3.6,2.2.6c.8-.1,1.5-.2,2.2-.6Z"/>
    <path class="cls-1" d="M6.6,262.3v11h11.6v-11h6.3v28.8h-6.3v-12.4H6.6v12.4H.3v-28.8h6.3Z"/>
    <path class="cls-1" d="M30.4,276.2c.5-1.4,1.2-2.5,2.2-3.5.9-1,2.1-1.7,3.4-2.2,1.3-.5,2.8-.8,4.4-.8s3.1.3,4.4.8c1.3.5,2.5,1.3,3.4,2.2.9,1,1.7,2.1,2.2,3.5s.8,2.9.8,4.5c0,1.7-.3,3.2-.8,4.5s-1.2,2.5-2.2,3.5c-.9,1-2.1,1.7-3.4,2.2s-2.8.8-4.4.8-3.1-.3-4.4-.8c-1.3-.5-2.4-1.2-3.4-2.2-.9-1-1.7-2.1-2.2-3.5-.5-1.3-.8-2.8-.8-4.5.1-1.7.3-3.2.8-4.5ZM35.6,283.1c.2.8.4,1.5.8,2.1s.9,1.1,1.6,1.5c.6.4,1.4.6,2.4.6s1.8-.2,2.4-.6,1.2-.9,1.6-1.5c.4-.6.7-1.3.8-2.1.2-.8.2-1.6.2-2.4s-.1-1.7-.2-2.5-.4-1.5-.8-2.1-.9-1.1-1.6-1.5-1.5-.6-2.4-.6-1.8.2-2.4.6-1.2.9-1.6,1.5-.7,1.3-.8,2.1c-.2.8-.2,1.6-.2,2.5,0,.8.1,1.7.2,2.4Z"/>
    <path class="cls-1" d="M65.7,274c-.9,0-1.7.2-2.3.6-.6.4-1.1,1-1.5,1.6-.4.7-.7,1.4-.8,2.2-.2.8-.2,1.6-.2,2.4s.1,1.5.2,2.3c.2.8.4,1.5.8,2.1s.9,1.2,1.5,1.5c.6.4,1.4.6,2.3.6,1.4,0,2.4-.4,3.2-1.2.7-.8,1.2-1.8,1.4-3.1h5.5c-.4,2.8-1.5,4.9-3.2,6.3s-4,2.2-6.8,2.2c-1.6,0-3-.3-4.3-.8s-2.4-1.3-3.3-2.2-1.6-2.1-2.1-3.4-.8-2.7-.8-4.3.2-3.1.7-4.5,1.2-2.6,2.1-3.6,2-1.8,3.4-2.4c1.3-.6,2.8-.8,4.5-.8,1.2,0,2.4.2,3.6.5,1.1.3,2.2.8,3.1,1.5s1.6,1.5,2.2,2.5.9,2.2,1,3.5h-5.6c-.8-2.3-2.2-3.5-4.6-3.5Z"/>
    <path class="cls-1" d="M85.4,262.3v10.8h.1c.7-1.2,1.6-2.1,2.8-2.6s2.2-.8,3.3-.8c1.5,0,2.8.2,3.8.6s1.8,1,2.3,1.7c.6.7,1,1.6,1.2,2.7s.3,2.2.3,3.5v12.8h-5.7v-11.8c0-1.7-.3-3-.8-3.8s-1.5-1.3-2.9-1.3c-1.6,0-2.7.5-3.4,1.4s-1,2.5-1,4.6v10.9h-5.7v-28.8l5.7.1h0Z"/>
    <path class="cls-1" d="M109.2,285.9c.2.4.6.8,1,1.1.4.3.9.5,1.4.6s1.1.2,1.6.2c.4,0,.8,0,1.3-.1.4-.1.9-.2,1.2-.4s.7-.5.9-.8.4-.8.4-1.3c0-.9-.6-1.5-1.7-1.9-1.1-.4-2.7-.9-4.8-1.3-.8-.2-1.6-.4-2.4-.7s-1.5-.6-2.1-1-1.1-.9-1.5-1.6c-.4-.6-.6-1.4-.6-2.3,0-1.3.3-2.4.8-3.3s1.2-1.5,2.1-2,1.8-.8,2.9-1c1.1-.2,2.2-.3,3.3-.3s2.2.1,3.3.3c1.1.2,2,.6,2.8,1.1s1.5,1.2,2.1,2,.9,1.9,1,3.2h-5.4c-.1-1.1-.5-1.8-1.2-2.2s-1.6-.6-2.7-.6c-.3,0-.7,0-1,.1-.4,0-.7.1-1,.3s-.6.3-.8.6c-.2.3-.3.6-.3,1,0,.5.2.9.6,1.2s.9.6,1.5.8c.6.2,1.3.4,2.1.5s1.6.3,2.4.5c.8.2,1.6.4,2.4.7.8.3,1.5.6,2.1,1.1s1.1,1,1.5,1.7.6,1.5.6,2.4c0,1.4-.3,2.5-.8,3.5s-1.3,1.7-2.2,2.2c-.9.6-1.9,1-3,1.2s-2.3.3-3.5.3-2.4-.1-3.5-.4c-1.2-.2-2.2-.6-3.1-1.2s-1.6-1.3-2.2-2.2-.9-2.1-1-3.5h5.4c-.3.6-.2,1.1.1,1.5Z"/>
    <path class="cls-1" d="M136.8,274c-.9,0-1.7.2-2.3.6s-1.1,1-1.5,1.6-.7,1.4-.8,2.2c-.2.8-.2,1.6-.2,2.4s.1,1.5.2,2.3c.2.8.4,1.5.8,2.1.4.6.9,1.2,1.5,1.5.6.4,1.4.6,2.3.6,1.4,0,2.4-.4,3.2-1.2.7-.8,1.2-1.8,1.4-3.1h5.5c-.4,2.8-1.5,4.9-3.2,6.3s-4,2.2-6.8,2.2c-1.6,0-3-.3-4.3-.8s-2.4-1.3-3.3-2.2-1.6-2.1-2.1-3.4-.8-2.7-.8-4.3.2-3.1.7-4.5,1.2-2.6,2.1-3.6c.9-1,2-1.8,3.4-2.4s2.8-.8,4.5-.8c1.2,0,2.4.2,3.6.5,1.1.3,2.2.8,3.1,1.5s1.6,1.5,2.2,2.5c.6,1,.9,2.2,1,3.5h-5.6c-.8-2.3-2.2-3.5-4.6-3.5Z"/>
    <path class="cls-1" d="M156.5,262.3v10.8h.1c.7-1.2,1.6-2.1,2.8-2.6s2.2-.8,3.3-.8c1.5,0,2.8.2,3.8.6s1.8,1,2.3,1.7c.6.7,1,1.6,1.2,2.7s.3,2.2.3,3.5v12.8h-5.7v-11.8c0-1.7-.3-3-.8-3.8s-1.5-1.3-2.9-1.3c-1.6,0-2.7.5-3.4,1.4s-1,2.5-1,4.6v10.9h-5.7v-28.8l5.7.1h0Z"/>
    <path class="cls-1" d="M189.6,291.1v-2.9h-.1c-.7,1.2-1.7,2.1-2.8,2.6-1.2.5-2.3.8-3.5.8-1.5,0-2.8-.2-3.8-.6s-1.8-1-2.3-1.7c-.6-.7-1-1.6-1.2-2.7s-.3-2.2-.3-3.5v-12.8h5.7v11.8c0,1.7.3,3,.8,3.8s1.5,1.3,2.9,1.3c1.6,0,2.7-.5,3.4-1.4s1-2.5,1-4.6v-10.9h5.7v20.8h-5.5Z"/>
    <path class="cls-1" d="M206.1,262.3v28.8h-5.7v-28.8h5.7Z"/>
    <path class="cls-1" d="M217.5,286.1c.9.8,2.1,1.2,3.7,1.2,1.2,0,2.1-.3,3-.9.8-.6,1.3-1.2,1.5-1.8h5c-.8,2.5-2,4.3-3.7,5.4s-3.7,1.6-6,1.6c-1.6,0-3.1-.3-4.4-.8-1.3-.5-2.4-1.3-3.4-2.2-.9-1-1.6-2.1-2.1-3.5-.5-1.3-.8-2.8-.8-4.4s.3-3,.8-4.3,1.2-2.5,2.2-3.5,2.1-1.8,3.4-2.3c1.3-.6,2.8-.8,4.3-.8,1.8,0,3.3.3,4.6,1s2.4,1.6,3.2,2.8c.9,1.2,1.5,2.5,1.8,4,.4,1.5.5,3,.4,4.6h-15c.1,1.7.6,3.1,1.5,3.9ZM223.9,275.1c-.7-.8-1.7-1.1-3.1-1.1-.9,0-1.7.2-2.3.5s-1.1.7-1.5,1.2-.6.9-.8,1.5-.2,1-.3,1.4h9.3c-.1-1.6-.6-2.7-1.3-3.5Z"/>
    <path class="cls-1" d="M256.8,262.3l6.7,19.8h.1l6.4-19.8h8.9v28.8h-5.9v-20.4h-.1l-7,20.4h-4.9l-7-20.2h-.1v20.2h-5.9v-28.8h8.8Z"/>
    <path class="cls-1" d="M284.4,276.7c.1-1.3.4-2.5,1-3.3.6-.9,1.3-1.6,2.3-2.1.9-.5,1.9-.9,3.1-1.2,1.1-.2,2.3-.3,3.5-.3,1,0,2.1.1,3.2.2,1.1.2,2.1.4,2.9.9.9.4,1.6,1,2.2,1.8s.9,1.8.9,3v10.8c0,.9,0,1.8.2,2.7.1.9.3,1.5.6,1.9h-5.8c-.1-.3-.2-.7-.3-1-.1-.3-.1-.7-.1-1-.9.9-2,1.6-3.2,2s-2.5.6-3.8.6c-1,0-1.9-.1-2.8-.4s-1.6-.6-2.3-1.1c-.6-.5-1.1-1.2-1.5-1.9-.4-.8-.5-1.7-.5-2.8,0-1.2.2-2.2.6-2.9.4-.8,1-1.4,1.6-1.8.7-.5,1.4-.8,2.3-1s1.7-.4,2.6-.5,1.7-.2,2.5-.3c.8-.1,1.6-.2,2.2-.4s1.2-.4,1.5-.7c.4-.3.5-.8.5-1.3,0-.6-.1-1.1-.3-1.5-.2-.4-.5-.7-.8-.8-.3-.2-.7-.3-1.2-.4s-.9-.1-1.4-.1c-1.1,0-2,.2-2.7.7-.6.5-1,1.3-1.1,2.4l-5.9-.2h0ZM297.6,280.9c-.2.2-.5.4-.9.5s-.8.2-1.2.3-.9.2-1.3.2c-.5.1-.9.1-1.4.2-.4.1-.9.2-1.3.3-.4.1-.8.3-1.1.5s-.6.5-.8.9-.3.8-.3,1.3.1.9.3,1.3.4.6.8.8.7.3,1.1.4.9.1,1.3.1c1.1,0,2-.2,2.6-.6s1.1-.8,1.4-1.3.5-1,.5-1.6c.1-.5.1-1,.1-1.3l.2-2h0Z"/>
    <path class="cls-1" d="M314,270.3v2.9h.1c.7-1.2,1.7-2.1,2.8-2.6,1.1-.5,2.3-.8,3.6-.8,1.5,0,2.8.2,3.8.6s1.8,1,2.3,1.7c.6.7,1,1.6,1.2,2.7s.3,2.2.3,3.5v12.8h-5.7v-11.8c0-1.7-.3-3-.8-3.8s-1.5-1.3-2.9-1.3c-1.6,0-2.7.5-3.4,1.4s-1,2.5-1,4.6v10.9h-5.7v-20.8h5.4Z"/>
    <path class="cls-1" d="M338.7,270.3v2.9h.1c.7-1.2,1.7-2.1,2.8-2.6,1.2-.5,2.3-.8,3.5-.8,1.5,0,2.8.2,3.8.6s1.8,1,2.3,1.7c.6.7,1,1.6,1.2,2.7s.3,2.2.3,3.5v12.8h-5.7v-11.8c0-1.7-.3-3-.8-3.8s-1.5-1.3-2.9-1.3c-1.6,0-2.7.5-3.4,1.4s-1,2.5-1,4.6v10.9h-5.7v-20.8h5.5Z"/>
    <path class="cls-1" d="M363.7,262.3v10.8h.1c.7-1.2,1.7-2.1,2.8-2.6s2.2-.8,3.3-.8c1.5,0,2.8.2,3.8.6s1.8,1,2.3,1.7c.6.7,1,1.6,1.2,2.7s.3,2.2.3,3.5v12.8h-5.7v-11.8c0-1.7-.3-3-.8-3.8s-1.5-1.3-2.9-1.3c-1.6,0-2.7.5-3.4,1.4s-1,2.5-1,4.6v10.9h-5.7v-28.8l5.7.1h0Z"/>
    <path class="cls-1" d="M388.8,286.1c.9.8,2.1,1.2,3.7,1.2,1.2,0,2.2-.3,3-.9s1.3-1.2,1.5-1.8h5c-.8,2.5-2,4.3-3.7,5.4s-3.7,1.6-6,1.6c-1.6,0-3.1-.3-4.4-.8s-2.4-1.3-3.3-2.2c-.9-1-1.6-2.1-2.1-3.5-.5-1.3-.8-2.8-.8-4.4s.3-3,.8-4.3,1.2-2.5,2.2-3.5c.9-1,2.1-1.8,3.4-2.3s2.8-.8,4.3-.8c1.8,0,3.3.3,4.6,1,1.3.7,2.4,1.6,3.2,2.8s1.5,2.5,1.8,4c.4,1.5.5,3,.4,4.6h-15c.1,1.7.5,3.1,1.4,3.9ZM395.3,275.1c-.7-.8-1.7-1.1-3.1-1.1-.9,0-1.7.2-2.3.5-.6.3-1.1.7-1.5,1.2s-.6.9-.8,1.5c-.2.5-.2,1-.3,1.4h9.3c-.2-1.6-.6-2.7-1.3-3.5Z"/>
    <path class="cls-1" d="M406.8,267v-4.7h5.7v4.7h-5.7ZM412.5,270.3v20.8h-5.7v-20.8h5.7Z"/>
    <path class="cls-1" d="M423.3,270.3v2.8h.1c.8-1.1,1.7-1.9,2.7-2.5s2.3-.9,3.7-.9c1.3,0,2.5.3,3.6.8s1.9,1.4,2.5,2.7c.6-.9,1.5-1.7,2.5-2.4s2.3-1,3.8-1c1.1,0,2.1.1,3.1.4s1.8.7,2.4,1.3c.7.6,1.2,1.4,1.6,2.3.4,1,.6,2.1.6,3.5v13.9h-5.7v-11.8c0-.7,0-1.4-.1-2s-.2-1.2-.4-1.6c-.2-.5-.6-.8-1.1-1.1-.5-.3-1.1-.4-1.9-.4s-1.5.2-2,.5-.9.7-1.2,1.2c-.3.5-.5,1.1-.6,1.7s-.1,1.3-.1,1.9v11.6h-5.7v-13.5c0-.6-.1-1.2-.3-1.7s-.5-.9-1-1.2c-.5-.3-1.2-.5-2.1-.5-.3,0-.6.1-1.1.2s-.9.3-1.3.7c-.4.3-.8.8-1.1,1.5s-.4,1.5-.4,2.5v12.1h-5.7v-20.8l5.2-.2h0Z"/>
    <path class="cls-1" d="M52.9,59.7v51.9H0v-51.9h52.9Z"/>
    <path class="cls-1" d="M146.5,59.7v51.9h-52.9v-51.9h52.9Z"/>
    <path class="cls-1" d="M240.5,59.7v51.9c0,7.6-1.4,14.6-4.2,21s-6.6,12-11.3,16.7-10.3,8.6-16.7,11.6-13.2,5.1-20.4,6.2v-24.2c3.4-.7,6.6-2,9.6-4s5.7-4.4,7.9-7.2,3.9-6,5-9.4c1.1-3.5,1.6-7,1.4-10.6h-24.2v-51.9l52.9-.1h0Z"/>
    <path class="cls-1" d="M447.9,0v40.7h-167V0h167Z"/>
  </g>
</svg>