<?xml version="1.0" encoding="UTF-8"?>
<svg id="Ebene_2" data-name="Ebene 2" xmlns="http://www.w3.org/2000/svg" viewBox="0 0 200.3 62.95">
  <defs>
    <style>
      .cls-1 {
        fill: #1d1d1b;
      }
    </style>
  </defs>
  <g id="Ebene_1-2" data-name="Ebene 1">
    <g>
      <path class="cls-1" d="M90.84,20.44c-.91,2.63-1.76,5.06-2.63,7.58h5.18c-.85-2.52-1.67-4.96-2.55-7.58ZM90.84,20.44c-.91,2.63-1.76,5.06-2.63,7.58h5.18c-.85-2.52-1.67-4.96-2.55-7.58ZM90.84,20.44c-.91,2.63-1.76,5.06-2.63,7.58h5.18c-.85-2.52-1.67-4.96-2.55-7.58ZM90.84,20.44c-.91,2.63-1.76,5.06-2.63,7.58h5.18c-.85-2.52-1.67-4.96-2.55-7.58ZM90.84,20.44c-.91,2.63-1.76,5.06-2.63,7.58h5.18c-.85-2.52-1.67-4.96-2.55-7.58ZM90.84,20.44c-.91,2.63-1.76,5.06-2.63,7.58h5.18c-.85-2.52-1.67-4.96-2.55-7.58ZM65.71,43.28c-.17-.02-.55.17-.55.26.01.34.13.67.22,1.01.1.01.2.03.3.04.18-.3.39-.58.49-.9.03-.09-.28-.38-.46-.41ZM65.16,46.2c-.73.52-.91,1.08-.54,1.59.38.54,1.08.57,1.91.03-.46-.54-.92-1.08-1.37-1.62ZM90.84,20.44c-.91,2.63-1.76,5.06-2.63,7.58h5.18c-.85-2.52-1.67-4.96-2.55-7.58ZM90.84,20.44c-.91,2.63-1.76,5.06-2.63,7.58h5.18c-.85-2.52-1.67-4.96-2.55-7.58ZM65.16,46.2c-.73.52-.91,1.08-.54,1.59.38.54,1.08.57,1.91.03-.46-.54-.92-1.08-1.37-1.62ZM65.71,43.28c-.17-.02-.55.17-.55.26.01.34.13.67.22,1.01.1.01.2.03.3.04.18-.3.39-.58.49-.9.03-.09-.28-.38-.46-.41ZM65.71,43.28c-.17-.02-.55.17-.55.26.01.34.13.67.22,1.01.1.01.2.03.3.04.18-.3.39-.58.49-.9.03-.09-.28-.38-.46-.41ZM65.16,46.2c-.73.52-.91,1.08-.54,1.59.38.54,1.08.57,1.91.03-.46-.54-.92-1.08-1.37-1.62ZM90.84,20.44c-.91,2.63-1.76,5.06-2.63,7.58h5.18c-.85-2.52-1.67-4.96-2.55-7.58ZM90.84,20.44c-.91,2.63-1.76,5.06-2.63,7.58h5.18c-.85-2.52-1.67-4.96-2.55-7.58ZM65.16,46.2c-.73.52-.91,1.08-.54,1.59.38.54,1.08.57,1.91.03-.46-.54-.92-1.08-1.37-1.62ZM65.71,43.28c-.17-.02-.55.17-.55.26.01.34.13.67.22,1.01.1.01.2.03.3.04.18-.3.39-.58.49-.9.03-.09-.28-.38-.46-.41ZM65.71,43.28c-.17-.02-.55.17-.55.26.01.34.13.67.22,1.01.1.01.2.03.3.04.18-.3.39-.58.49-.9.03-.09-.28-.38-.46-.41ZM65.16,46.2c-.73.52-.91,1.08-.54,1.59.38.54,1.08.57,1.91.03-.46-.54-.92-1.08-1.37-1.62ZM90.84,20.44c-.91,2.63-1.76,5.06-2.63,7.58h5.18c-.85-2.52-1.67-4.96-2.55-7.58ZM90.84,20.44c-.91,2.63-1.76,5.06-2.63,7.58h5.18c-.85-2.52-1.67-4.96-2.55-7.58ZM65.16,46.2c-.73.52-.91,1.08-.54,1.59.38.54,1.08.57,1.91.03-.46-.54-.92-1.08-1.37-1.62ZM65.71,43.28c-.17-.02-.55.17-.55.26.01.34.13.67.22,1.01.1.01.2.03.3.04.18-.3.39-.58.49-.9.03-.09-.28-.38-.46-.41ZM65.71,43.28c-.17-.02-.55.17-.55.26.01.34.13.67.22,1.01.1.01.2.03.3.04.18-.3.39-.58.49-.9.03-.09-.28-.38-.46-.41ZM65.16,46.2c-.73.52-.91,1.08-.54,1.59.38.54,1.08.57,1.91.03-.46-.54-.92-1.08-1.37-1.62ZM90.84,20.44c-.91,2.63-1.76,5.06-2.63,7.58h5.18c-.85-2.52-1.67-4.96-2.55-7.58ZM90.84,20.44c-.91,2.63-1.76,5.06-2.63,7.58h5.18c-.85-2.52-1.67-4.96-2.55-7.58ZM65.16,46.2c-.73.52-.91,1.08-.54,1.59.38.54,1.08.57,1.91.03-.46-.54-.92-1.08-1.37-1.62ZM65.71,43.28c-.17-.02-.55.17-.55.26.01.34.13.67.22,1.01.1.01.2.03.3.04.18-.3.39-.58.49-.9.03-.09-.28-.38-.46-.41ZM65.71,43.28c-.17-.02-.55.17-.55.26.01.34.13.67.22,1.01.1.01.2.03.3.04.18-.3.39-.58.49-.9.03-.09-.28-.38-.46-.41ZM65.16,46.2c-.73.52-.91,1.08-.54,1.59.38.54,1.08.57,1.91.03-.46-.54-.92-1.08-1.37-1.62ZM90.84,20.44c-.91,2.63-1.76,5.06-2.63,7.58h5.18c-.85-2.52-1.67-4.96-2.55-7.58ZM90.84,20.44c-.91,2.63-1.76,5.06-2.63,7.58h5.18c-.85-2.52-1.67-4.96-2.55-7.58ZM65.16,46.2c-.73.52-.91,1.08-.54,1.59.38.54,1.08.57,1.91.03-.46-.54-.92-1.08-1.37-1.62ZM65.71,43.28c-.17-.02-.55.17-.55.26.01.34.13.67.22,1.01.1.01.2.03.3.04.18-.3.39-.58.49-.9.03-.09-.28-.38-.46-.41ZM65.71,43.28c-.17-.02-.55.17-.55.26.01.34.13.67.22,1.01.1.01.2.03.3.04.18-.3.39-.58.49-.9.03-.09-.28-.38-.46-.41ZM65.16,46.2c-.73.52-.91,1.08-.54,1.59.38.54,1.08.57,1.91.03-.46-.54-.92-1.08-1.37-1.62ZM90.84,20.44c-.91,2.63-1.76,5.06-2.63,7.58h5.18c-.85-2.52-1.67-4.96-2.55-7.58ZM90.84,20.44c-.91,2.63-1.76,5.06-2.63,7.58h5.18c-.85-2.52-1.67-4.96-2.55-7.58ZM65.16,46.2c-.73.52-.91,1.08-.54,1.59.38.54,1.08.57,1.91.03-.46-.54-.92-1.08-1.37-1.62ZM65.71,43.28c-.17-.02-.55.17-.55.26.01.34.13.67.22,1.01.1.01.2.03.3.04.18-.3.39-.58.49-.9.03-.09-.28-.38-.46-.41ZM65.71,43.28c-.17-.02-.55.17-.55.26.01.34.13.67.22,1.01.1.01.2.03.3.04.18-.3.39-.58.49-.9.03-.09-.28-.38-.46-.41ZM65.16,46.2c-.73.52-.91,1.08-.54,1.59.38.54,1.08.57,1.91.03-.46-.54-.92-1.08-1.37-1.62ZM90.84,20.44c-.91,2.63-1.76,5.06-2.63,7.58h5.18c-.85-2.52-1.67-4.96-2.55-7.58ZM90.84,20.44c-.91,2.63-1.76,5.06-2.63,7.58h5.18c-.85-2.52-1.67-4.96-2.55-7.58ZM65.16,46.2c-.73.52-.91,1.08-.54,1.59.38.54,1.08.57,1.91.03-.46-.54-.92-1.08-1.37-1.62ZM65.71,43.28c-.17-.02-.55.17-.55.26.01.34.13.67.22,1.01.1.01.2.03.3.04.18-.3.39-.58.49-.9.03-.09-.28-.38-.46-.41ZM65.71,43.28c-.17-.02-.55.17-.55.26.01.34.13.67.22,1.01.1.01.2.03.3.04.18-.3.39-.58.49-.9.03-.09-.28-.38-.46-.41ZM65.16,46.2c-.73.52-.91,1.08-.54,1.59.38.54,1.08.57,1.91.03-.46-.54-.92-1.08-1.37-1.62ZM90.84,20.44c-.91,2.63-1.76,5.06-2.63,7.58h5.18c-.85-2.52-1.67-4.96-2.55-7.58ZM90.84,20.44c-.91,2.63-1.76,5.06-2.63,7.58h5.18c-.85-2.52-1.67-4.96-2.55-7.58ZM65.16,46.2c-.73.52-.91,1.08-.54,1.59.38.54,1.08.57,1.91.03-.46-.54-.92-1.08-1.37-1.62ZM65.71,43.28c-.17-.02-.55.17-.55.26.01.34.13.67.22,1.01.1.01.2.03.3.04.18-.3.39-.58.49-.9.03-.09-.28-.38-.46-.41ZM65.71,43.28c-.17-.02-.55.17-.55.26.01.34.13.67.22,1.01.1.01.2.03.3.04.18-.3.39-.58.49-.9.03-.09-.28-.38-.46-.41ZM65.16,46.2c-.73.52-.91,1.08-.54,1.59.38.54,1.08.57,1.91.03-.46-.54-.92-1.08-1.37-1.62ZM90.84,20.44c-.91,2.63-1.76,5.06-2.63,7.58h5.18c-.85-2.52-1.67-4.96-2.55-7.58ZM90.84,20.44c-.91,2.63-1.76,5.06-2.63,7.58h5.18c-.85-2.52-1.67-4.96-2.55-7.58ZM65.16,46.2c-.73.52-.91,1.08-.54,1.59.38.54,1.08.57,1.91.03-.46-.54-.92-1.08-1.37-1.62ZM65.68,44.59c.18-.3.39-.58.49-.9.03-.09-.28-.38-.46-.41-.17-.02-.55.17-.55.26.01.34.13.67.22,1.01.1.01.2.03.3.04ZM0,0v62.95h200.3V0H0ZM169.58,14.1h4.17v17.57h9.66v3.75h-13.83V14.1ZM54.5,36.01c-.22.22-.45.39-.7.51-.12.06-.25.1-.39.13-.82.18-1.79-.18-2.8-1.09-.14.18-.34.34-.39.53-.1.33-.2.66-.3.99-.22.65-.44,1.3-.69,1.94-.38.96-.8,1.9-1.27,2.82-.32.62-.66,1.22-1.03,1.82h0c.08,0,.16-.01.23-.02.05-.01.09-.01.14-.02.06,0,.11-.01.17-.01.05-.01.11-.01.16-.01h.12c.14,0,.27.01.4.03.65.11,1.19.45,1.53.94.13.19.23.41.29.65.07.29.11.57.11.83,0,.12-.01.24-.02.35-.01.02-.01.04-.01.05-.01.08-.02.15-.04.22-.03.14-.07.26-.12.38-.04.1-.09.2-.14.3-.05.09-.11.17-.17.25-.02.03-.04.05-.06.08-.02.04-.05.07-.08.1h0s-.03.04-.04.05c-.05.05-.1.1-.15.15-.19.17-.4.32-.64.45-.87.46-2.19.27-2.84-.49-.12-.14-.19-.32-.24-.51-.02-.07-.04-.14-.05-.22-.01-.07-.03-.14-.04-.21-.01-.05-.02-.09-.04-.13.01-.01,0-.01,0-.02-.01-.03-.02-.06-.03-.09-.02-.06-.05-.11-.08-.15-.03-.04-.06-.06-.09-.08t-.02-.02s-.02,0-.03,0c-.03-.02-.07-.03-.11-.03s-.08.01-.13.03c-.01-.01-.02,0-.03,0h-.01s-.01,0-.02.01h-.01c-.06.02-.13.05-.2.09-.29.18-.58.38-.84.6-2.78,2.32-5.97,3.5-9.59,3.43-.18,0-.37-.01-.55-.02-.36-.03-.71-.08-1.06-.14-.52-.1-1.04-.25-1.54-.45-.34-.14-.67-.29-.99-.47-.18-.1-.35-.2-.51-.31-.01,0-.01-.01-.01-.01-.16-.12-.31-.24-.45-.37-.17-.15-.32-.32-.45-.49-.33-.42-.57-.88-.72-1.38-.16-.57-.2-1.19-.09-1.82.13-.77.55-1.49,1.16-2.05.15-.14.32-.27.49-.39.09-.06.18-.12.27-.17.18-.11.38-.2.58-.27.2-.08.41-.14.62-.19.06-.01.11-.02.17-.03.05-.01.11-.02.16-.02.18-.02.36-.03.54-.05,0,0,.01.01.02,0,.96-.04,1.93.05,2.9.08.28.01.54.04.75.07.06.01.12.02.17.02.01-.15.01-.3.01-.45v-.07c0-.24-.01-.48.01-.7,0-.08.02-.17.04-.25v-.02c.02-.07.04-.14.07-.21.04-.11.09-.21.13-.3.05-.09.11-.17.17-.25.65-.82,1.79-.76,2.68-.33.19.09.36.22.51.38.13.12.24.27.33.43.34.54.5,1.24.38,1.82-.16.77-.46,1.4-.88,1.87-.04.04-.07.08-.11.11-.27.29-.59.51-.95.66-.1.04-.19.08-.28.11-.1.03-.2.06-.3.08-.3.08-.62.11-.96.11s-.71-.04-1.1-.12c-.17-.03-.35-.06-.52-.09-.17-.03-.35-.07-.52-.09-.03,0-.05-.01-.07-.01-.56-.08-1.11-.11-1.66-.03-.23.03-.45.07-.67.14-.05.02-.11.03-.16.05-.1.05-.19.09-.28.14-.05.02-.09.05-.12.09-.12.09-.2.21-.25.37-.02.06-.04.12-.05.19-.01.11-.01.2.01.29,0,.05.02.09.04.14.03.08.07.15.13.22.11.13.26.23.43.29.25.1.51.21.76.31.17.07.34.13.52.18.13.04.26.07.39.1.13.03.26.05.39.07.77.07,1.55.04,2.32-.08,2.06-.32,4.07-1.27,5.67-2.64.09-.08.19-.16.28-.25.05-.05.1-.09.15-.14.14-.13.27-.26.4-.4.17-.18.34-.37.49-.56.32-.38.6-.78.84-1.19.13-.21.24-.42.35-.64.04-.1.09-.19.13-.29h0c.04-.11.08-.21.11-.31.07-.22.11-.42.12-.58.02-.17.01-.3-.03-.4-.01-.04-.03-.07-.05-.1-.05-.08-.14-.14-.26-.17-.13-.04-.32-.04-.55-.02-.1.01-.21.03-.32.04-.09.01-.19.03-.28.04-.27.02-.52.01-.76-.03-.15-.02-.29-.06-.43-.11-.28-.1-.52-.24-.73-.43-.2-.19-.37-.41-.5-.67-.12-.26-.2-.56-.23-.89-.06-.71.16-1.49.63-2.07.05-.07.11-.13.17-.19.02-.03.05-.05.08-.08.09-.08.19-.16.3-.23.14-.1.29-.17.46-.23.12-.05.24-.08.38-.1.01-.01.02,0,.02,0,.01-.01.01,0,.01,0,0,0,0-.01.01-.01h.02s.02-.01.03,0c.02-.01.05-.02.07-.01,0-.01.02-.01.03,0,0,0,.01-.01.02,0h.01s.02-.02.04-.01c.03-.01.06-.01.09-.01.02-.01.03-.01.05,0h.1c.11,0,.22,0,.32.01.1,0,.2.01.3.03.09.02.17.03.26.06.06.02.13.03.19.05.01-.01.02,0,.03,0,0-.01.02,0,.03.01.08.02.16.05.23.08.07.03.14.06.21.09h.01s.01.01.02.02c0-.01,0,0,.02,0,.07.03.13.07.19.11.01,0,.02,0,.03.02.06.04.12.08.18.13.07.06.14.12.21.19.33.33.57.76.75,1.3.03.08.09.14.32.23h.01c.13-.5.29-1.02.42-1.53.14-.51.27-1.03.33-1.55.47-3.65-.06-7.1-2.35-10.12-.3-.39-.61-.77-.92-1.11-.31-.34-.64-.67-.99-.96-2.09-1.83-4.63-2.79-7.64-2.75-.16,0-.31.01-.47.02-1.4.08-2.84.45-4.2,1.07-.15.07-.3.14-.45.22-.3.15-.59.32-.87.49-.71.43-1.38.95-2,1.54-.12.11-.24.23-.36.36-.23.24-.46.5-.68.77-.21.27-.41.55-.6.83t-.01.01c-.15.24-.3.48-.44.73-.62,1.13-1.05,2.4-1.23,3.79-.08.64-.12,1.28-.09,1.89.01.28.03.55.07.81.05.4.14.79.25,1.17.08.25.17.5.27.74.05.12.11.25.17.37.13.24.26.47.41.69.07.11.15.23.24.34.17.21.36.43.56.63.09.1.2.21.31.31.11.1.23.19.35.29,1.01.8,2.14,1.09,3.29.97.49-.05.98-.18,1.48-.37.28-.12.54-.26.76-.44.98-.72,1.39-1.89,1.58-3.15.04-.29.07-.58.12-1.02-.18.17-.35.32-.53.46-.74.59-1.51.97-2.42,1.1-.34.04-.66.05-.96.02-.1-.01-.19-.02-.28-.04-.1,0-.21-.04-.3-.06-.16-.05-.31-.1-.45-.17-1.05-.45-1.73-1.46-1.81-2.83-.01-.2-.02-.41-.02-.61,0-.08,0-.15,0-.22.01-.15.02-.3.04-.44.06-.43.16-.84.34-1.21.12-.24.27-.47.47-.66.1-.1.2-.19.32-.28h.01c.08-.05.16-.11.26-.16.04-.02.09-.05.14-.07.13-.06.26-.12.39-.17,1.15-.41,2.28-.23,3.34.47.44.29.83.65,1.24.98.06-.04.11-.08.18-.12h.01c-.04-.09-.07-.17-.1-.26-.03-.07-.06-.14-.1-.2-.01-.02-.02-.03-.03-.05-.03-.04-.07-.08-.11-.12-.23-.3-.52-.58-.74-.88-.04-.04-.07-.09-.1-.13-.91-1.36-.74-2.95.22-4,.06-.06.12-.13.19-.19.1-.09.2-.18.31-.25.18-.13.38-.25.59-.34.11-.05.23-.1.35-.14.07-.03.14-.05.21-.07.21-.06.43-.1.64-.14.49-.07.98-.06,1.45.03.26.06.52.13.77.23.17.06.34.14.51.23.72.39,1.22,1.03,1.42,1.76.04.13.06.25.08.38,0,.06,0,.12,0,.19.03.41-.03.83-.19,1.25-.05.12-.1.24-.16.37-.07.16-.16.32-.26.48-.1.19-.22.38-.34.56-.22.34-.47.65-.72.96-.09.1-.18.21-.26.31.02.03.04.07.05.1,0,.03.02.06.04.09h0s.08-.02.12-.04c.1-.04.21-.07.3-.12.03,0,.05-.02.07-.03.02-.01.04-.02.06-.03.13-.09.26-.18.38-.28.07-.05.13-.1.19-.14.07-.04.13-.09.19-.14h0c.13-.11.25-.2.38-.29.13-.09.26-.17.39-.25.17-.1.35-.19.54-.25.15-.05.29-.09.43-.12.14-.02.29-.04.43-.06,2.05-.17,3.55,1.55,3.32,3.95-.07.75-.28,1.38-.64,1.9-.09.13-.2.25-.31.37-.33.34-.76.61-1.29.82-1.04.4-1.98.36-2.86-.02-.45-.2-.89-.49-1.31-.85-.04-.03-.07-.06-.1-.09-.09-.12-.19-.27-.37-.5h-.01c-.03.45-.08.89-.14,1.32h0c-.03.22-.06.43-.1.64-.04.21-.09.42-.14.62-.1.41-.22.8-.36,1.18-.7,1.88-1.96,3.35-4.11,4.17-3.28,1.24-6.38.69-9.07-1.84-.06.16-.11.32-.16.46-.02.07-.05.14-.07.21-.02.07-.04.14-.06.21-.09.43-.25.79-.47,1.09-.08.1-.16.19-.25.27-.27.26-.59.45-.95.58-.12.04-.25.08-.38.11-.3.08-.61.13-.9.13-.43,0-.84-.1-1.22-.32-.15-.09-.29-.2-.43-.33-.07-.07-.14-.14-.21-.22-.88-1.01-.99-2.33-.33-3.34.17-.26.39-.5.66-.71.18-.14.36-.24.55-.32t0,0c.05-.02.1-.03.15-.04.04-.02.08-.03.12-.03.05-.01.1-.02.15-.02h.01s0,0,0,0c0,0,0-.01.01,0h0s.05-.01.05-.01c.02-.01.03-.01.05-.01h.03c.14,0,.28.02.44.05.07,0,.14.03.22.06.15.04.31.11.47.19.08.04.16.08.24.13.01,0,.01,0,.01,0h0c.08.06.16.11.24.16.08.06.17.12.26.19-.04-.42-.05-.75-.1-1.06-.05-.26-.12-.51-.22-.74-.24-.52-.43-1.04-.57-1.57h0c-.09-.36-.17-.71-.22-1.07-.2-1.31-.14-2.66.1-4.02,0-.01-.01-.03-.01-.03.01-.01,0-.02,0-.03,0-.01-.01-.03-.02-.05,0-.02-.01-.04-.02-.06-.15.08-.3.14-.43.24-.25.18-.51.32-.77.41-.25.09-.5.14-.74.14-.31,0-.6-.06-.87-.19-.08-.05-.16-.09-.24-.15-.09-.07-.18-.13-.27-.21-.08-.07-.16-.14-.23-.23-.59-.66-.85-1.56-.59-2.37.3-.94.74-1.78,1.83-2.05.85-.2,1.45-.11,1.89.38.1.09.18.2.26.33t0,.01c.08.13.15.27.22.43.04.08.07.14.1.2.04.07.07.12.1.15.11.15.23.15.38.02.07-.06.16-.15.25-.27.05-.07.08-.15.13-.22.3-.5.58-1.02.88-1.53.13-.21.25-.43.38-.64.03-.04.06-.08.08-.12.13-.21.28-.43.43-.64.02-.03.04-.06.06-.09.34-.48.72-.92,1.11-1.36.4-.44.81-.88,1.21-1.33-.64-.17-1.25-.39-1.71-.87-.05-.04-.09-.09-.12-.14-.11-.12-.21-.26-.29-.42-.27-.53-.34-1.11-.22-1.66.03-.17.09-.34.16-.5.04-.1.1-.2.16-.29.01-.02.02-.04.04-.06h0c.08-.12.16-.23.26-.33.06-.07.13-.14.2-.2.82-.73,2.07-.95,2.95-.56.09.04.18.09.27.15.06.04.12.09.18.13.05.04.1.09.15.15s.1.11.14.17c.09.11.15.24.2.37.17.45.15.96-.09,1.44-.01.02-.02.04-.03.06h0s0,.02,0,.03c-.01.03-.03.06-.05.08-.03.06-.06.11-.1.17-.07.11-.16.23-.24.36h.01c.27.24.55.27.84.22.08-.01.17-.03.25-.06.05-.01.1-.02.15-.04h.01c.43-.16.84-.33,1.26-.49.21-.08.42-.16.63-.23.21-.07.43-.14.64-.2.17-.05.33-.1.5-.14.33-.08.66-.14,1-.2.33-.05.67-.08,1-.11,1-.08,2-.07,3-.02.1,0,.21,0,.38,0-.1-.33-.19-.62-.27-.92-.16-.57-.14-1.11.03-1.58.03-.07.06-.14.09-.21,0-.02.02-.04.04-.06.02-.04.05-.09.07-.13,0-.01.01-.03.03-.04,0-.01.01-.01.01-.02.03-.04.06-.08.09-.12h.01c.04-.07.09-.12.15-.18.14-.15.3-.28.48-.39.09-.05.19-.1.3-.15.2-.09.43-.16.67-.21.11-.02.21-.03.31-.05h.01c.8-.08,1.52.14,2.04.59.06.05.11.1.16.15.05.06.1.11.14.17.05.05.09.1.12.15.01,0,.01.02.01.03.02.03.04.07.06.1.02.02.04.05.05.08h0s.02.03.02.05c.03.05.06.11.08.17.04.07.07.14.08.22.05.15.08.31.1.48.04.33-.01.64-.14.9-.17.35-.48.62-.89.77-.14.05-.29.1-.51.16-.08.02-.16.05-.25.08.08.09.16.18.23.27.11.14.21.27.31.38.1.11.2.2.32.26.1.05.21.11.31.17.38.19.75.4,1.11.62.68.4,1.33.84,1.96,1.32.52.4,1.04.83,1.54,1.29.5.47.99.97,1.46,1.51h.01c.05-.28.12-.55.21-.79h0c.1-.24.22-.45.37-.62.06-.07.13-.14.2-.2,0-.02.03-.04.05-.05.06-.05.13-.1.21-.15.02-.01.05-.03.07-.04.01-.02.03-.03.04-.03.03-.02.06-.04.09-.05t.02,0s0-.01,0,0c.03-.02.07-.03.1-.04,0,0,.02,0,.03,0,.02,0,.04-.02.06-.02.01-.01.03-.02.04-.02s.01,0,.02-.01c.09-.03.19-.05.28-.07.19-.04.39-.06.59-.06.4,0,.81.06,1.16.19.69.25,1.18.91,1.39,1.67.03.11.06.21.07.32.06.4.05.82-.06,1.21-.04.16-.1.32-.18.46-.07.14-.16.27-.27.38-.15.17-.34.3-.55.38-.08.03-.15.05-.23.06-.25.05-.51.04-.78.02-.35-.03-.71-.1-1.09-.13h0c0,.25-.08.57.01.83.19.57.35,1.15.49,1.73.07.3.13.59.19.88.06.3.12.59.16.88.22,1.41.3,2.85.26,4.3,0,.02.01.03.02.05.01,0,.03.03.04.05h.01c.29-.26.58-.46.87-.62.2-.11.4-.19.59-.26.95-.3,1.85-.12,2.5.58.8.85.78,2.76-.04,3.64ZM67.78,49.25s-.09-.07-.13-.11c-.09-.08-.17-.17-.24-.3-.88.63-1.85.86-2.86.5-.3-.11-.61-.28-.85-.51-.07-.06-.14-.14-.2-.21,0-.01,0-.02-.02-.03-.07-.09-.13-.18-.18-.26-.05-.11-.1-.22-.14-.33-.11-.32-.11-.67,0-1.02.01-.01,0-.01,0-.01.06-.18.13-.36.23-.54.2-.36.51-.74.9-1.12-.09-.17-.17-.33-.25-.49h0s-.01,0-.01,0c-.04-.1-.08-.2-.11-.29-.03-.06-.04-.11-.06-.16-.25-.76-.17-1.33.25-1.74.09-.09.19-.17.3-.24.87-.56,2.17-.41,2.76.33.61.76.48,1.43-.55,2.49-.09.09-.19.18-.29.28h0c.36.44.73.87,1.17,1.39.1-.36.19-.65.27-.94.03-.1.06-.19.09-.29h1.32c-.14.47-.23.95-.39,1.38-.05.15-.11.29-.18.42-.02.05-.04.09-.05.12-.02.04-.03.07-.04.11-.08.25-.01.43.21.65.22.23.41.47.67.78.04.05.08.11.13.16.04.05.09.11.13.17-.4-.06-.79,0-1.15,0-.27,0-.51-.03-.73-.18ZM76.83,44.43s-.03-.01-.05-.01c-.21-.04-.49-.16-.58-.34-.19-.36-.44-.56-.75-.63-.04-.02-.09-.03-.14-.03-.14-.02-.28-.01-.44.01-.6.09-.91.49-.93,1.06-.02.94-.04,1.88.07,2.81.01.04.02.08.03.12.03.08.08.16.15.24.13.16.32.3.49.38.04.03.08.04.12.05h.09s.09.01.13.01h.01s.09,0,.14-.01c.25-.01.52-.09.66-.2.04-.03.07-.06.09-.1.07-.14.15-.25.23-.34.08-.09.17-.15.26-.2.09-.04.18-.07.27-.09.31-.05.65.01.98,0,.11,1.17-.96,2.24-2.31,2.33-.48.03-.92-.02-1.3-.17-.16-.06-.31-.14-.45-.22-.14-.09-.27-.19-.39-.31-.11-.11-.22-.24-.31-.37-.14-.21-.25-.44-.33-.69-.04-.13-.07-.27-.09-.41-.03-.13-.04-.28-.05-.43-.03-.84-.03-1.68.02-2.5.01-.25.07-.49.15-.72.04-.12.1-.24.17-.35.05-.09.11-.18.18-.27.02-.02.04-.05.05-.07.08-.09.16-.17.25-.25.07-.06.14-.12.22-.18.06-.04.12-.08.19-.12.27-.17.58-.28.91-.34.05-.01.11-.02.16-.03.11-.01.22-.02.33-.02h.06c.13,0,.26.01.39.03.13.02.26.04.38.08.16.04.31.1.45.17h.01c.14.07.28.15.4.25.07.05.13.1.18.15.06.05.11.11.17.17.08.08.15.18.21.28.07.09.13.2.18.3.05.11.09.22.12.34.03.12.06.24.08.37.01.08.02.17.02.26-.1,0-.2,0-.29,0-.21,0-.4.01-.59-.02ZM74.54,35.31v-8.82h-7.23v8.82h-4.16V14c.44,0,.88,0,1.31-.01h.34c.38,0,.76,0,1.14.01.37,0,.75,0,1.13.02.01,0,.03.01.04.02.02.01.03.02.04.04.03.03.05.07.07.11.02.04.04.09.06.14,0,0,0,.01.01.01.01.04.02.09.03.13.01.01.01.02.01.03.01.04.01.07.01.1.01.61.02,1.21.01,1.82.02,1.82.01,3.64.01,5.45v.8h7.13v-8.64h4.2v21.28h-4.15ZM80.78,49.46h-1.47v-7.41h1.47v7.41ZM87.48,43.44h-3.29v1.67h2.78v1.28h-2.76v1.72h3.27v1.35c-1.27,0-2.5.01-3.75,0h-.13c-.34,0-.56.01-.71-.01-.06,0-.11-.03-.15-.06-.01-.01-.02-.03-.03-.05h-.01s-.01-.05-.02-.07v-.02h-.01s-.01-.03,0-.05c-.02-.16,0-.41,0-.79-.01-.52-.01-1.03-.01-1.55v-4.7h4.82v1.28ZM87.01,31.6h-.01c-.09.28-.18.55-.28.83-.28.83-.56,1.64-.86,2.45-.03.08-.09.17-.14.24-.03.02-.05.05-.07.07-.09.08-.19.15-.27.15-.74.02-1.48.03-2.23.03-.6,0-1.22-.01-1.85-.01.24-.65.47-1.29.69-1.92.23-.63.45-1.25.68-1.87,2.06-5.64,4.12-11.27,6.15-16.91.04-.12.09-.22.14-.31.03-.05.06-.09.09-.12.08-.11.19-.18.32-.22.04-.02.09-.02.13-.03.1-.01.21-.01.33,0,.13.01.25.02.38.01.52.04,1.04.02,1.56-.01.33-.03.53.05.67.24.06.07.1.15.14.24.02.04.04.09.06.14,1.03,2.86,2.07,5.72,3.11,8.57,1.03,2.86,2.07,5.72,3.11,8.57.11.29.22.59.33.89.11.3.22.6.33.9.22.61.45,1.24.69,1.89-1.44,0-2.77.01-4.1-.02-.1,0-.23-.09-.32-.21-.04-.04-.07-.09-.1-.13,0-.03-.02-.05-.03-.07-.09-.25-.18-.5-.26-.75-.25-.74-.48-1.49-.75-2.23-.01-.04-.04-.09-.07-.13-.02-.03-.04-.05-.06-.07-.02-.03-.04-.05-.06-.06-.09-.08-.18-.13-.26-.13-.8-.01-1.59-.02-2.39-.01-1.59-.01-3.19-.01-4.8-.01ZM94.06,49.19c-.1.3-.17.51-.25.66-.06.1-.11.17-.18.23-.2.14-.51.11-1.16.05.03-.1.05-.2.07-.29.03-.1.06-.19.09-.29.78-2.37,1.57-4.75,2.36-7.12.14-.42.22-.68.35-.84.04-.04.07-.07.11-.1.03-.02.06-.04.1-.05.03-.01.07-.02.11-.03.18-.03.41-.02.75,0,.07,0,.14,0,.22.01-.05.16-.1.31-.15.46-.15.46-.3.9-.44,1.34-.66,1.99-1.32,3.98-1.98,5.97ZM99.42,45.1c-.14.4-.28.81-.41,1.21-.32.97-.63,1.95-.96,2.93-.03.09-.06.18-.08.26-.03.07-.05.15-.08.21-.05.12-.1.21-.14.29-.02.03-.04.05-.07.08-.02.02-.04.03-.06.05-.05.04-.1.06-.16.07-.05.01-.1.01-.15.01-.1,0-.22-.01-.36-.03-.14-.03-.31-.05-.5-.09.32-.94.63-1.88.94-2.81l.57-1.68c.11-.35.22-.7.34-1.05l.18-.57c.18-.54.35-1.07.53-1.61.15-.46.24-.73.4-.87.01-.02.03-.03.05-.04,0-.02.01-.01.01-.01.04-.03.08-.05.13-.06.03-.01.06-.01.1-.01.12-.02.27,0,.46.01h.02c.13.02.28.04.45.07-.41,1.22-.81,2.43-1.21,3.64ZM112.61,47.37c-.03.13-.07.26-.11.4-.04.14-.08.27-.12.4-.03.12-.07.24-.1.36-.03.15-.07.3-.1.45-.01.05-.02.09-.03.13-.05.15-.13.25-.23.31-.09.04-.2.05-.32.05-.03-.01-.06-.01-.09-.01h-.13s-.1,0-.14-.01c-.05,0-.1,0-.14,0-.04,0-.07,0-.1-.02-.07-.02-.12-.05-.18-.11-.03-.03-.05-.06-.07-.1-.02-.02-.03-.05-.04-.08-.02-.03-.03-.07-.04-.11-.33-1.24-.73-2.46-1.16-3.86-.42,1.38-.82,2.57-1.15,3.79-.11.46-.37.5-.71.52h-.24c-.12-.01-.22-.02-.29-.06-.06-.02-.11-.06-.15-.12-.07-.09-.11-.21-.15-.36-.28-1.12-.58-2.24-.88-3.36-.3-1.12-.6-2.24-.91-3.38h1.53c.35,1.39.69,2.77,1.03,4.15.05.01.09.01.13.02h.01c.21-.69.41-1.39.61-2.08.1-.35.2-.69.3-1.04.1-.35.2-.69.31-1.03.69-.08.95-.11,1.12.12.05.07.09.17.13.29.04.12.08.27.13.45.29.99.58,1.97.87,2.96.03.1.06.2.21.33.35-1.39.7-2.77,1.06-4.17h1.53c-.46,1.75-.93,3.46-1.39,5.18ZM119.86,43.42h-3.28v1.66h.01s2.76.01,2.76.01v1.31h-2.77s-.01.01-.01.01v1.71h3.29v1.3h-4.74v-7.21h4.74v1.21ZM120.11,35.41c-.7,0-1.41.01-2.15.01v-12.04s-.02,0-.04,0c-.03-.01-.06-.02-.08-.02h-.01c-.03.06-.06.12-.09.18-.11.18-.21.35-.3.53-.95,1.9-1.93,3.8-2.88,5.72-.14.27-.27.55-.41.82-.06.13-.12.23-.2.31-.02.02-.05.04-.08.06-.03.02-.06.04-.09.05s-.06.03-.1.03c-.03.01-.07.02-.11.02-.03,0-.06.01-.1.01h-.1c-.35-.02-.72.02-1.09.04-.27,0-.54,0-.78-.03-.14-.03-.28-.08-.4-.15-.07-.04-.13-.09-.19-.15-.24-.22-.4-.58-.55-.95-.08-.18-.15-.37-.23-.55-.04-.09-.08-.18-.12-.26-.44-.87-.88-1.73-1.32-2.6s-.88-1.75-1.32-2.62c-.06-.12-.13-.24-.25-.35-.04-.04-.08-.07-.13-.11v12.03h-4.2V14.05c.55,0,1.09.02,1.61.02.21,0,.41,0,.62,0,.2,0,.41-.02.61-.04.05-.01.1-.01.15-.01.04,0,.09,0,.14,0,.1,0,.2,0,.3.02.18.02.34.07.48.14.08.04.15.09.22.15.06.05.12.11.18.18.13.14.24.32.36.53.04.07.08.15.11.23,1.46,3.2,3.03,6.34,4.56,9.5.05.1.1.21.16.33.06.11.13.24.2.39,0,0,0,.01,0,.01.16-.33.32-.67.48-1,.16-.34.32-.67.48-1,.96-1.98,1.89-3.92,2.82-5.86.31-.63.61-1.27.92-1.9.21-.43.42-.85.63-1.28l.03-.06c.07-.1.18-.22.28-.28.04-.02.08-.03.11-.04h.01c1.28-.03,2.57-.01,3.91-.01,0,.06.01.13.01.18,0,.09,0,.17,0,.25v.24c0,6.68-.02,13.35-.02,20.02,0,.09,0,.17-.01.24s-.02.13-.04.18c-.04.12-.12.19-.25.23-.09.04-.22.05-.37.04-.23-.01-.46-.02-.7-.01-.23-.01-.46-.01-.69-.01ZM123.08,49.34c-.07.05-.1.09-.14.09-.41.05-.69.08-.89.06-.03,0-.06,0-.09-.01-.06-.01-.11-.03-.15-.06-.03-.01-.06-.04-.08-.07-.03-.04-.06-.1-.08-.16-.01-.04-.02-.09-.02-.14,0-.02,0-.04,0-.06-.01-.06-.01-.13-.01-.21-.01-.08-.01-.17-.01-.27,0-.08.01-.17.01-.27,0-.93.01-1.86.02-2.79.01-.93.02-1.87.03-2.8,0-.14.02-.29.03-.46h1.39v7.15ZM130.48,49.45c-.86.19-.99.08-1.5-.71-.36-.57-.73-1.13-1.12-1.69-.37-.57-.76-1.13-1.19-1.69v.02h-.01s0,4.02,0,4.02h-1.43v-7.15c.08-.02.15-.04.22-.06.1-.02.19-.04.28-.05.57-.09.79.09,1.2.73.37.58.75,1.16,1.13,1.75.19.3.39.6.58.91.2.31.4.62.61.95v-.03s.01.01.01.02v-4.28h1.46v7.2c-.09.02-.17.04-.24.06ZM140.71,47.75c-.02.08-.03.15-.06.22-.01.05-.03.1-.06.16-.05.12-.11.23-.18.34,0,.01-.01.02-.01.02-.06.09-.13.17-.2.25-.1.11-.21.21-.33.29-.6.41-1.42.57-2.23.5-.1,0-.21-.02-.31-.03-.08-.02-.15-.04-.23-.05-.1-.02-.2-.05-.3-.08-.14-.04-.26-.09-.39-.14-.16-.07-.32-.15-.47-.24h0c-.09-.06-.19-.12-.27-.19h-.01s-.01-.01-.01-.01c-.08-.08-.16-.15-.23-.22.16-.15.31-.29.45-.41.14-.14.27-.25.38-.35.26.05.52.11.79.16.13.03.26.06.39.08.14.03.27.05.4.07.18.03.36.05.54.06.14.01.28-.01.4-.05.14-.05.26-.13.35-.24.04-.04.07-.09.09-.14.03-.03.04-.08.05-.12.04-.09.05-.18.05-.29,0-.07-.01-.14-.02-.2-.02-.11-.06-.21-.12-.29-.06-.07-.13-.14-.22-.18-.03-.02-.06-.04-.09-.05-.06-.03-.13-.05-.21-.07-.07-.02-.15-.03-.23-.04-.25-.02-.51-.06-.76-.1-.08-.02-.17-.04-.25-.05-.09-.02-.17-.04-.26-.06-.17-.04-.31-.09-.45-.17-.05-.02-.09-.04-.14-.07-.15-.07-.28-.17-.39-.29-.04-.04-.08-.08-.11-.12-.05-.06-.1-.12-.14-.19-.06-.09-.1-.19-.14-.29-.04-.09-.06-.18-.08-.27,0-.05-.02-.09-.03-.15-.02-.09-.03-.18-.03-.28,0-.07,0-.14.01-.2-.01-.21.02-.41.08-.6.02-.05.03-.09.05-.14.05-.16.12-.31.22-.44.03-.04.07-.1.11-.14.04-.07.1-.14.17-.19.06-.06.13-.12.2-.16.03-.03.07-.05.1-.07.08-.06.17-.1.27-.14.11-.05.23-.1.36-.13.38-.1.77-.16,1.14-.16.13,0,.27.01.4.03.11.01.21.03.32.05.02,0,.04,0,.06.01.05.02.1.03.14.04.08.02.16.05.24.08.09.03.17.06.25.11.06.03.13.06.19.09.07.05.15.09.22.14.15.09.29.2.44.33-.08.09-.15.17-.22.24-.07.07-.14.14-.2.21-.06.06-.12.12-.18.18-.03.02-.06.05-.08.08-.03.02-.06.05-.08.07h-.04s-.03,0-.04,0c-.03-.01-.06-.01-.09-.02-.61-.13-1.11-.26-1.61-.3-.08-.01-.15,0-.22.01-.04,0-.08,0-.12.02-.05.01-.1.02-.14.04-.07.02-.14.06-.2.11-.05.04-.1.09-.14.14-.03.04-.06.08-.08.14-.03.05-.05.1-.06.16-.02.05-.03.11-.03.18-.02.27.08.46.24.59.08.05.16.1.26.14.1.03.21.06.32.08.4.07.8.12,1.2.2.16.03.3.07.43.12.01,0,.02,0,.03.01.13.05.25.1.35.17.05.03.11.06.16.11.07.05.14.11.2.19.03.03.06.05.06.08.07.07.13.16.17.25.02.02.03.05.04.08.04.08.07.16.1.25.03.1.06.21.08.32.01.08.03.15.04.23,0,.08.01.17.01.25,0,.15-.02.31-.05.45ZM141.8,24.02c-1.11,2.19-2.24,4.39-3.33,6.6-.18.36-.39.53-.79.47-.03-.01-.06-.01-.09-.01-.06,0-.11.01-.16,0-.04,0-.07,0-.11.01-.15-.01-.31,0-.47.02h-.11c-.33.02-.66.04-.95-.01-.07-.01-.13-.03-.19-.05-.04-.02-.06-.03-.09-.04-.03-.02-.06-.04-.09-.05-.06-.04-.12-.09-.18-.14-.16-.16-.28-.38-.4-.62-.14-.33-.26-.69-.42-.99-.25-.48-.49-.96-.74-1.44-.5-.96-1-1.93-1.52-2.89-.26-.48-.52-.96-.8-1.44v.02s-.01-.01-.01-.02c-.01.11-.01.21-.01.32-.01.11-.01.21-.01.32-.01,3.55-.02,7.09.01,10.63,0,.13-.01.24-.03.33-.02.1-.05.17-.1.23-.07.09-.17.13-.31.15-.06.01-.12.01-.19.01h-.09c-.23-.01-.46-.02-.69-.01-.23-.01-.47-.01-.7-.01-.69,0-1.39.01-2.1.01V14.05c1.32,0,2.6-.02,3.88.02.04,0,.08.02.13.04.04.03.08.06.13.11.08.08.15.19.2.28.27.56.54,1.12.81,1.68,1.08,2.2,2.14,4.4,3.2,6.6.26.54.52,1.07.78,1.61.16.34.33.68.55,1.12.59-1.22,1.16-2.42,1.73-3.6.57-1.17,1.13-2.33,1.68-3.49h.01c.63-1.32,1.26-2.64,1.91-3.94.04-.09.12-.19.21-.27.02-.02.04-.04.06-.06.07-.05.14-.09.2-.09.38-.01.76-.01,1.14-.01.31-.01.61-.01.92-.01h.22c.51.01,1.03.01,1.55.01v21.36h-4.18v-11.92s-.1-.03-.15-.05h0c-.1.2-.21.38-.31.58ZM147.22,43.44h-3.26v1.65h2.79v1.32h-2.79v1.75h3.26v1.28h-4.72v-7.23h4.72v1.23ZM150.54,49.51h-1.47v-7.3h1.47v7.3ZM157.21,43.46h-1.84v5.98h-1.43v-5.95h-1.9v-1.28h5.17v1.25ZM164.58,49.44h-1.34v-5.72c-.26.21-.5.41-.72.59-.11.09-.22.18-.32.26-.11.08-.22.16-.32.25-.02-.04-.03-.08-.04-.13-.02-.06-.03-.13-.04-.2-.04-.34-.02-.65.07-.94.04-.12.1-.24.16-.35.01,0,.02-.02.03-.04.04-.07.09-.14.14-.2h.01c.06-.08.13-.15.2-.21.05-.05.1-.09.16-.13.04-.03.09-.06.13-.08.04-.03.09-.05.14-.07.1-.05.19-.1.29-.13.09-.03.19-.06.29-.08.11-.02.22-.04.34-.05.1-.01.2-.02.31-.02.17,0,.34.02.51.04v7.21ZM151.44,35.42V14.12h14.04v3.68h-9.83v4.95h.76c1.56,0,3.12,0,4.68-.01.08.01.16.01.24,0h2.1c.09,0,.16,0,.23.01.14,0,.24.06.31.13.04.04.07.1.08.16.01.03.02.07.02.11.01.03.01.06.01.1h0s.01.02,0,.03v.11c0,.11-.01.23,0,.34h0s-.01.02,0,.03t0,.02s-.01.01,0,.02t0,.02s-.01.01,0,.02t0,.02h0s-.01.02,0,.03h0c-.01.18-.01.36-.01.53,0,.69.01,1.39.01,2.12h-8.43s-.01.01-.01.01v5.13h.01s9.83.01,9.83.01v3.73h-14.04ZM171.35,44.03c-.56,1.57-1.24,3.11-1.78,4.68-.04.11-.08.2-.12.28-.04.09-.09.16-.14.22-.12.16-.27.26-.47.29-.07,0-.14.02-.21.02-.08,0-.17-.01-.26-.03-.04,0-.09,0-.13-.01-.09,0-.18,0-.3-.01-.06,0-.12,0-.19-.01.8-2.04,1.55-3.99,2.33-5.98h0s-1.81-.01-1.81-.01h0s-.01.01-.01.01c0,.18-.01.35-.01.53,0,.09,0,.18-.02.27,0,.09-.01.17-.02.27h-1.22v-2.34h4.7c-.11.64-.14,1.26-.34,1.82ZM177.38,48.24v1.27h-4.33s-.01-.06-.02-.08c-.06-.37-.07-.7.01-1,.02-.08.04-.15.07-.23.03-.07.07-.14.11-.21.07-.14.18-.28.31-.41.77-.78,1.48-1.62,2.14-2.49.22-.3.29-.78.29-1.17-.01-.11-.16-.28-.33-.38-.03-.02-.06-.03-.08-.04-.03-.02-.05-.03-.08-.03-.03-.02-.05-.03-.07-.03-.03,0-.06,0-.1,0-.07,0-.15,0-.23.02-.07.01-.14.03-.2.05-.02,0-.03,0-.03.01-.07.02-.13.05-.18.08h-.01s-.09.07-.1.11c-.04.13-.09.23-.14.31-.09.14-.2.22-.33.26-.05.01-.09.02-.13.03-.28.04-.6-.06-.9-.05-.02-.27,0-.53.06-.76,0,0,.01-.02.01-.02.05-.17.13-.33.22-.48,0,0,.01,0,.01,0,.05-.07.11-.14.17-.21.05-.06.1-.1.15-.14.05-.05.11-.09.17-.13.06-.04.12-.08.18-.11.07-.04.14-.07.21-.1.35-.15.75-.2,1.15-.17.04.01.08.01.12.01s.08.01.11.02c.14.02.27.05.4.09.09.03.18.06.26.1.08.03.15.07.22.11.09.05.17.11.25.17.08.06.16.13.22.21.08.1.15.2.22.31.06.11.1.22.14.34.04.09.06.18.08.28h0s.02.09.02.13c.08.49-.01,1.01-.29,1.41-.58.79-1.26,1.52-1.89,2.28-.14.17-.28.35-.51.64h2.65ZM183.33,48.09c-.06.19-.15.37-.27.55-.05.07-.11.14-.17.21-.04.05-.09.09-.14.14-.05.05-.11.09-.17.13-.11.08-.23.15-.36.21-.15.07-.31.13-.48.17-.07.02-.14.03-.22.04-.14.02-.29.04-.45.04-.28,0-.58-.05-.86-.14-.09-.02-.17-.05-.25-.09-.04-.02-.08-.03-.12-.05-.15-.07-.29-.16-.41-.28-.04-.03-.08-.06-.11-.09-.05-.05-.1-.11-.14-.16-.02-.04-.05-.08-.07-.12-.03-.03-.05-.07-.06-.11-.02-.05-.05-.1-.08-.16-.03-.04-.04-.08-.05-.13-.02-.04-.03-.08-.04-.13-.03-.09-.05-.2-.06-.31,0-.11-.02-.22-.02-.33v-.08h1.25c.03.06.06.13.09.21.01.02.02.05.03.08.04.1.09.2.15.27.07.1.15.17.24.23.05.03.11.06.17.07.15.05.33.06.52.03.08-.01.15-.03.22-.06.06-.02.11-.04.15-.07.09-.05.16-.12.22-.18.04-.06.09-.13.11-.21.02-.05.04-.1.05-.16.02-.08.03-.17.03-.26,0-.42-.17-.76-.53-.89-.07-.02-.16-.04-.25-.05-.05,0-.09-.01-.13-.02-.08-.02-.14-.05-.18-.08-.07-.05-.11-.12-.13-.2-.02-.08-.03-.18-.02-.3,0-.11,0-.22.01-.32,0-.04.01-.07.01-.1,0-.04.03-.07.05-.1.02-.02.03-.04.04-.05.02-.02.03-.03.05-.04.03-.02.07-.04.11-.05.04-.01.1-.02.16-.03.11-.01.2-.03.28-.07.06-.02.11-.05.16-.09.07-.05.13-.13.17-.22.02-.04.04-.09.05-.14.04-.09.05-.2.05-.32,0-.05-.01-.11-.02-.16-.02-.18-.08-.33-.19-.44-.02-.03-.05-.06-.08-.08-.04-.03-.07-.05-.11-.07-.07-.05-.16-.08-.25-.1-.24-.05-.46-.03-.63.07-.05.03-.1.06-.14.1-.02.01-.04.03-.06.06-.03.03-.05.05-.06.08-.05.05-.08.11-.11.17s-.06.12-.1.17c0,.01-.01.01-.01.02-.02.03-.05.05-.07.07-.01.01-.02.02-.03.02-.04.02-.07.04-.1.06-.12.05-.25.05-.38.03-.2-.02-.4-.08-.59-.04-.04,0-.07.01-.11.03-.01-.17,0-.34.02-.49.02-.11.04-.21.07-.31.07-.2.16-.37.28-.53.06-.08.12-.15.2-.22.15-.14.32-.25.52-.35.1-.04.21-.08.32-.12.25-.08.52-.12.77-.12.15,0,.29.01.42.04.02-.01.04-.01.05.01.12.01.23.04.34.08.05.01.1.03.14.05.11.04.22.09.32.16.06.04.12.08.17.12.06.03.11.07.16.13.14.12.26.27.35.43.05.09.1.18.14.26.08.17.13.34.15.51.1.63-.14,1.24-.7,1.78.1.11.19.23.27.35.08.12.16.23.22.34.07.12.12.23.16.34.02.06.04.12.06.17.05.13.08.26.09.4.02.17.02.34-.01.5-.02.1-.04.19-.07.29ZM88.21,28.02h5.18c-.85-2.52-1.67-4.96-2.55-7.58-.91,2.63-1.76,5.06-2.63,7.58ZM64.62,47.79c.38.54,1.08.57,1.91.03-.46-.54-.92-1.08-1.37-1.62-.73.52-.91,1.08-.54,1.59ZM65.68,44.59c.18-.3.39-.58.49-.9.03-.09-.28-.38-.46-.41-.17-.02-.55.17-.55.26.01.34.13.67.22,1.01.1.01.2.03.3.04ZM65.71,43.28c-.17-.02-.55.17-.55.26.01.34.13.67.22,1.01.1.01.2.03.3.04.18-.3.39-.58.49-.9.03-.09-.28-.38-.46-.41ZM65.16,46.2c-.73.52-.91,1.08-.54,1.59.38.54,1.08.57,1.91.03-.46-.54-.92-1.08-1.37-1.62ZM90.84,20.44c-.91,2.63-1.76,5.06-2.63,7.58h5.18c-.85-2.52-1.67-4.96-2.55-7.58ZM90.84,20.44c-.91,2.63-1.76,5.06-2.63,7.58h5.18c-.85-2.52-1.67-4.96-2.55-7.58ZM65.16,46.2c-.73.52-.91,1.08-.54,1.59.38.54,1.08.57,1.91.03-.46-.54-.92-1.08-1.37-1.62ZM65.71,43.28c-.17-.02-.55.17-.55.26.01.34.13.67.22,1.01.1.01.2.03.3.04.18-.3.39-.58.49-.9.03-.09-.28-.38-.46-.41ZM65.71,43.28c-.17-.02-.55.17-.55.26.01.34.13.67.22,1.01.1.01.2.03.3.04.18-.3.39-.58.49-.9.03-.09-.28-.38-.46-.41ZM65.16,46.2c-.73.52-.91,1.08-.54,1.59.38.54,1.08.57,1.91.03-.46-.54-.92-1.08-1.37-1.62ZM90.84,20.44c-.91,2.63-1.76,5.06-2.63,7.58h5.18c-.85-2.52-1.67-4.96-2.55-7.58ZM90.84,20.44c-.91,2.63-1.76,5.06-2.63,7.58h5.18c-.85-2.52-1.67-4.96-2.55-7.58ZM65.16,46.2c-.73.52-.91,1.08-.54,1.59.38.54,1.08.57,1.91.03-.46-.54-.92-1.08-1.37-1.62ZM65.71,43.28c-.17-.02-.55.17-.55.26.01.34.13.67.22,1.01.1.01.2.03.3.04.18-.3.39-.58.49-.9.03-.09-.28-.38-.46-.41ZM65.71,43.28c-.17-.02-.55.17-.55.26.01.34.13.67.22,1.01.1.01.2.03.3.04.18-.3.39-.58.49-.9.03-.09-.28-.38-.46-.41ZM65.16,46.2c-.73.52-.91,1.08-.54,1.59.38.54,1.08.57,1.91.03-.46-.54-.92-1.08-1.37-1.62ZM90.84,20.44c-.91,2.63-1.76,5.06-2.63,7.58h5.18c-.85-2.52-1.67-4.96-2.55-7.58ZM90.84,20.44c-.91,2.63-1.76,5.06-2.63,7.58h5.18c-.85-2.52-1.67-4.96-2.55-7.58ZM65.16,46.2c-.73.52-.91,1.08-.54,1.59.38.54,1.08.57,1.91.03-.46-.54-.92-1.08-1.37-1.62ZM65.71,43.28c-.17-.02-.55.17-.55.26.01.34.13.67.22,1.01.1.01.2.03.3.04.18-.3.39-.58.49-.9.03-.09-.28-.38-.46-.41ZM65.71,43.28c-.17-.02-.55.17-.55.26.01.34.13.67.22,1.01.1.01.2.03.3.04.18-.3.39-.58.49-.9.03-.09-.28-.38-.46-.41ZM65.16,46.2c-.73.52-.91,1.08-.54,1.59.38.54,1.08.57,1.91.03-.46-.54-.92-1.08-1.37-1.62ZM90.84,20.44c-.91,2.63-1.76,5.06-2.63,7.58h5.18c-.85-2.52-1.67-4.96-2.55-7.58ZM90.84,20.44c-.91,2.63-1.76,5.06-2.63,7.58h5.18c-.85-2.52-1.67-4.96-2.55-7.58ZM65.16,46.2c-.73.52-.91,1.08-.54,1.59.38.54,1.08.57,1.91.03-.46-.54-.92-1.08-1.37-1.62ZM65.71,43.28c-.17-.02-.55.17-.55.26.01.34.13.67.22,1.01.1.01.2.03.3.04.18-.3.39-.58.49-.9.03-.09-.28-.38-.46-.41ZM65.71,43.28c-.17-.02-.55.17-.55.26.01.34.13.67.22,1.01.1.01.2.03.3.04.18-.3.39-.58.49-.9.03-.09-.28-.38-.46-.41ZM65.16,46.2c-.73.52-.91,1.08-.54,1.59.38.54,1.08.57,1.91.03-.46-.54-.92-1.08-1.37-1.62ZM90.84,20.44c-.91,2.63-1.76,5.06-2.63,7.58h5.18c-.85-2.52-1.67-4.96-2.55-7.58ZM90.84,20.44c-.91,2.63-1.76,5.06-2.63,7.58h5.18c-.85-2.52-1.67-4.96-2.55-7.58ZM65.16,46.2c-.73.52-.91,1.08-.54,1.59.38.54,1.08.57,1.91.03-.46-.54-.92-1.08-1.37-1.62ZM65.71,43.28c-.17-.02-.55.17-.55.26.01.34.13.67.22,1.01.1.01.2.03.3.04.18-.3.39-.58.49-.9.03-.09-.28-.38-.46-.41ZM65.71,43.28c-.17-.02-.55.17-.55.26.01.34.13.67.22,1.01.1.01.2.03.3.04.18-.3.39-.58.49-.9.03-.09-.28-.38-.46-.41ZM65.16,46.2c-.73.52-.91,1.08-.54,1.59.38.54,1.08.57,1.91.03-.46-.54-.92-1.08-1.37-1.62ZM90.84,20.44c-.91,2.63-1.76,5.06-2.63,7.58h5.18c-.85-2.52-1.67-4.96-2.55-7.58ZM90.84,20.44c-.91,2.63-1.76,5.06-2.63,7.58h5.18c-.85-2.52-1.67-4.96-2.55-7.58ZM65.16,46.2c-.73.52-.91,1.08-.54,1.59.38.54,1.08.57,1.91.03-.46-.54-.92-1.08-1.37-1.62ZM65.71,43.28c-.17-.02-.55.17-.55.26.01.34.13.67.22,1.01.1.01.2.03.3.04.18-.3.39-.58.49-.9.03-.09-.28-.38-.46-.41ZM65.71,43.28c-.17-.02-.55.17-.55.26.01.34.13.67.22,1.01.1.01.2.03.3.04.18-.3.39-.58.49-.9.03-.09-.28-.38-.46-.41ZM65.16,46.2c-.73.52-.91,1.08-.54,1.59.38.54,1.08.57,1.91.03-.46-.54-.92-1.08-1.37-1.62ZM90.84,20.44c-.91,2.63-1.76,5.06-2.63,7.58h5.18c-.85-2.52-1.67-4.96-2.55-7.58ZM90.84,20.44c-.91,2.63-1.76,5.06-2.63,7.58h5.18c-.85-2.52-1.67-4.96-2.55-7.58ZM65.16,46.2c-.73.52-.91,1.08-.54,1.59.38.54,1.08.57,1.91.03-.46-.54-.92-1.08-1.37-1.62ZM65.71,43.28c-.17-.02-.55.17-.55.26.01.34.13.67.22,1.01.1.01.2.03.3.04.18-.3.39-.58.49-.9.03-.09-.28-.38-.46-.41ZM65.71,43.28c-.17-.02-.55.17-.55.26.01.34.13.67.22,1.01.1.01.2.03.3.04.18-.3.39-.58.49-.9.03-.09-.28-.38-.46-.41ZM65.16,46.2c-.73.52-.91,1.08-.54,1.59.38.54,1.08.57,1.91.03-.46-.54-.92-1.08-1.37-1.62ZM90.84,20.44c-.91,2.63-1.76,5.06-2.63,7.58h5.18c-.85-2.52-1.67-4.96-2.55-7.58ZM90.84,20.44c-.91,2.63-1.76,5.06-2.63,7.58h5.18c-.85-2.52-1.67-4.96-2.55-7.58ZM65.16,46.2c-.73.52-.91,1.08-.54,1.59.38.54,1.08.57,1.91.03-.46-.54-.92-1.08-1.37-1.62ZM65.71,43.28c-.17-.02-.55.17-.55.26.01.34.13.67.22,1.01.1.01.2.03.3.04.18-.3.39-.58.49-.9.03-.09-.28-.38-.46-.41ZM90.84,20.44c-.91,2.63-1.76,5.06-2.63,7.58h5.18c-.85-2.52-1.67-4.96-2.55-7.58ZM90.84,20.44c-.91,2.63-1.76,5.06-2.63,7.58h5.18c-.85-2.52-1.67-4.96-2.55-7.58ZM90.84,20.44c-.91,2.63-1.76,5.06-2.63,7.58h5.18c-.85-2.52-1.67-4.96-2.55-7.58ZM90.84,20.44c-.91,2.63-1.76,5.06-2.63,7.58h5.18c-.85-2.52-1.67-4.96-2.55-7.58ZM90.84,20.44c-.91,2.63-1.76,5.06-2.63,7.58h5.18c-.85-2.52-1.67-4.96-2.55-7.58ZM90.84,20.44c-.91,2.63-1.76,5.06-2.63,7.58h5.18c-.85-2.52-1.67-4.96-2.55-7.58ZM90.84,20.44c-.91,2.63-1.76,5.06-2.63,7.58h5.18c-.85-2.52-1.67-4.96-2.55-7.58ZM90.84,20.44c-.91,2.63-1.76,5.06-2.63,7.58h5.18c-.85-2.52-1.67-4.96-2.55-7.58Z"/>
      <path class="cls-1" d="M99.01,46.31c-.32.97-.63,1.95-.96,2.93-.03.09-.06.18-.08.26.03-.08.06-.17.09-.26.32-.98.63-1.96.96-2.93.13-.4.26-.81.4-1.21-.14.4-.28.81-.41,1.21ZM99,42.38c-.17.53-.34,1.07-.52,1.6.18-.54.35-1.07.53-1.61h-.01ZM92.62,49.55c-.03.09-.06.19-.08.29.03-.1.06-.19.09-.29.78-2.37,1.57-4.75,2.36-7.12-.79,2.37-1.58,4.75-2.37,7.12ZM96.63,41.42c-.05.16-.1.31-.15.46.05-.15.1-.3.16-.46h-.01ZM161.84,44.69l.03.14h0s-.03-.09-.04-.14ZM155.37,43.46v5.98h0v-5.98h0ZM152.03,42.21v1.28h.01v-1.28h-.01ZM168.27,43.47h0s1.81.01,1.81.01h0s-1.81-.01-1.81-.01ZM166.99,44.55v-2.34h-.01v2.35h1.23s-1.22-.01-1.22-.01ZM174.55,43.72c-.04.13-.09.23-.14.31.06-.08.11-.18.15-.31,0-.04.04-.07.09-.11-.05.03-.09.07-.1.11ZM183.41,47.3c.02.17.02.34-.01.5.01-.06.02-.12.02-.18.01-.1.01-.21-.01-.32ZM180.8,45.49c-.03.1-.02.21-.02.32-.01.11,0,.22.03.3-.02-.08-.03-.18-.02-.3,0-.11,0-.22.01-.32ZM179.98,42.37c.1-.04.21-.08.32-.12.25-.08.52-.12.77-.12-.25,0-.52.03-.77.11-.11.04-.22.08-.32.13ZM180.14,47.61s.02.05.03.08c.04.1.09.2.15.27-.05-.08-.1-.17-.14-.27-.01-.03-.02-.05-.04-.08ZM178.98,43.47c.07-.2.16-.37.28-.53-.13.15-.22.33-.28.53ZM178.8,47.48v-.08h-.01s0,.06.01.08ZM76.83,44.43c.18.04.38.03.59.02-.21,0-.4.01-.59-.02ZM138.35,48.17c-.17-.01-.35-.03-.53-.05.18.03.36.05.54.06.14.01.28-.01.4-.05-.12.04-.26.05-.41.04ZM139.84,43.76h-.04s.04.01.05.01c.02-.02.04-.05.07-.08-.03.02-.06.05-.08.07ZM140.72,46.82c-.02-.11-.05-.22-.09-.32.03.1.06.21.08.32.01.08.03.15.04.23,0-.08,0-.16-.03-.23ZM116.58,46.4h0s2.77.01,2.77.01h0s-2.77-.01-2.77-.01ZM116.58,43.42v1.66h.01v-1.65h3.27s-3.28-.01-3.28-.01ZM115.12,49.42v-7.21h-.01v7.22h4.75s-4.74-.01-4.74-.01ZM83.73,49.46c1.23.02,2.47,0,3.75,0-1.27,0-2.5.01-3.75,0ZM82.89,49.45c.14.03.36.01.71.01-.34,0-.56.01-.71-.01ZM82.65,42.16c0,1.42,0,2.81.01,4.19v-4.19h-.01ZM63.48,48.59c-.07-.09-.13-.18-.18-.26.05.09.1.18.17.26.01.02.02.02.03.03,0-.01,0-.02-.02-.03ZM65.71,43.28c-.17-.02-.55.17-.55.26.01.34.13.67.22,1.01.1.01.2.03.3.04.18-.3.39-.58.49-.9.03-.09-.28-.38-.46-.41ZM65.16,46.2c-.73.52-.91,1.08-.54,1.59.38.54,1.08.57,1.91.03-.46-.54-.92-1.08-1.37-1.62ZM69.66,49.43c-.4-.06-.79,0-1.15,0,.36,0,.75-.06,1.16.01h0s-.01-.01-.01-.01ZM130.72,42.19v7.2h.01v-7.2h-.01ZM129.25,42.19v4.26s.01.01.01.02v-4.28h-.01ZM126.66,45.37v4.03h-1.43s1.44.01,1.44.01v-4.03h-.01ZM125.23,42.24h0c.08-.01.15-.03.22-.05-.07,0-.14.03-.22.05ZM111.92,49.42c.11-.06.18-.15.23-.31-.05.15-.13.25-.23.31ZM108.95,42.21c.69-.08.95-.11,1.12.12-.16-.24-.41-.21-1.12-.12ZM108.94,42.21c-.1.34-.2.68-.3,1.03.1-.35.2-.69.31-1.03h-.01ZM107.41,49.47s.06.01.09.01c.05,0,.1,0,.15-.01h-.24ZM105.03,42.19h-.01c.3,1.14.61,2.26.92,3.38-.3-1.12-.6-2.24-.91-3.38Z"/>
      <rect class="cls-1" x="183.41" y="31.67" width=".01" height="3.75"/>
      <rect class="cls-1" x="151.43" y="14.12" width="0" height="21.3"/>
      <rect class="cls-1" x="155.64" y="26.55" width=".01" height="5.13"/>
      <path class="cls-1" d="M161.09,22.74c-1.56.01-3.12.01-4.68.01h-.76s5.44-.01,5.44-.01Z"/>
      <rect class="cls-1" x="165.48" y="14.12" width=".01" height="3.68"/>
      <rect class="cls-1" x="165.48" y="31.69" width=".01" height="3.73"/>
      <path class="cls-1" d="M130.62,35.43c.11.01.2,0,.28-.01-.08.02-.17.02-.28.02-.47-.02-.92-.03-1.39-.03.47,0,.93,0,1.39.02Z"/>
      <path class="cls-1" d="M131.02,14.06c.08,0,.17.07.25.16-.09-.09-.18-.15-.26-.15-1.28-.04-2.56-.02-3.88-.02,1.32,0,2.6-.02,3.89.01Z"/>
      <path class="cls-1" d="M131.35,23.44s.01,0,.01.02c-.01.1-.02.2-.02.3,0-.11,0-.21.01-.32Z"/>
      <path class="cls-1" d="M134.42,29.21c.16.3.28.66.42.99-.15-.32-.28-.68-.43-.98-.24-.49-.49-.97-.73-1.45.25.48.49.96.74,1.44Z"/>
      <path class="cls-1" d="M135.42,30.96c.06.03.11.06.18.09-.07-.02-.12-.05-.18-.08-.07-.04-.13-.09-.18-.15.06.05.12.1.18.14Z"/>
      <path class="cls-1" d="M136.74,31.11c-.33.03-.67.05-.95-.01.29.05.62.03.95.01Z"/>
      <path class="cls-1" d="M137.43,31.08s.1,0,.16,0c-.05,0-.1.01-.16.01-.19-.01-.39.01-.58.02.2-.02.39-.03.58-.03Z"/>
      <polygon class="cls-1" points="146.45 14.05 146.45 35.42 142.26 35.42 142.26 35.41 146.44 35.41 146.44 14.05 146.45 14.05"/>
      <path class="cls-1" d="M105.63,14.02c-.2.02-.41.04-.61.04.21-.01.41-.03.61-.05.1,0,.2,0,.29,0-.1,0-.18,0-.29.02Z"/>
      <rect class="cls-1" x="102.79" y="35.38" width="4.2" height=".01"/>
      <path class="cls-1" d="M110.01,29.03c.04.08.08.17.12.26-.04-.09-.09-.18-.13-.26-.44-.86-.87-1.74-1.31-2.6.44.87.88,1.73,1.32,2.6Z"/>
      <path class="cls-1" d="M111.1,30.94c.12.07.26.12.4.15-.14-.02-.28-.07-.4-.14-.07-.04-.14-.1-.19-.16.06.06.12.11.19.15Z"/>
      <path class="cls-1" d="M112.5,25.48s0-.01,0-.01c.33-.67.65-1.33.97-1.99-.31.66-.64,1.33-.96,2Z"/>
      <path class="cls-1" d="M113.37,31.08c.07,0,.14,0,.2-.01-.06.02-.13.02-.21.02-.35-.03-.72.01-1.08.03.37-.02.74-.06,1.09-.04Z"/>
      <path class="cls-1" d="M117.83,23.35h.01c-.04.06-.07.12-.1.18.03-.06.06-.12.09-.18Z"/>
      <path class="cls-1" d="M117.82,14.44s.02-.04.04-.06l-.03.06c-.21.43-.42.85-.63,1.28.21-.43.42-.85.62-1.28Z"/>
      <path class="cls-1" d="M117.92,23.37s.03,0,.04,0h0s-.03,0-.04,0Z"/>
      <path class="cls-1" d="M121.87,35.39c-.09.04-.22.06-.38.05-.45-.02-.92-.03-1.38-.03.46,0,.93,0,1.39.02.15.01.28,0,.37-.04Z"/>
      <path class="cls-1" d="M83.15,35.37h-1.86.01c.63-.01,1.25,0,1.85,0Z"/>
      <path class="cls-1" d="M93.39,28.02h-5.18c.87-2.52,1.72-4.95,2.63-7.58.88,2.62,1.7,5.06,2.55,7.58Z"/>
      <path class="cls-1" d="M100.21,35.42c-1.45,0-2.77.02-4.1-.02,1.33.03,2.66.02,4.1.02Z"/>
      <path class="cls-1" d="M100.22,35.42h-.01c-.24-.65-.47-1.28-.69-1.89.23.6.46,1.23.7,1.89Z"/>
      <path class="cls-1" d="M67.07,14.02c-.76-.03-1.51-.03-2.27-.03.76,0,1.52,0,2.27.02.01,0,.03.01.04.03-.01-.01-.03-.02-.04-.02Z"/>
      <polygon class="cls-1" points="63.15 35.31 67.31 35.31 67.31 35.32 63.14 35.32 63.14 14 63.15 14 63.15 35.31"/>
      <rect class="cls-1" x="74.54" y="35.31" width="4.15" height="0"/>
      <path class="cls-1" d="M17.47,28.42c.08.06.16.1.24.15-.09-.04-.17-.08-.25-.14-.19-.13-.35-.28-.49-.45.15.17.31.31.5.44Z"/>
      <path class="cls-1" d="M18.56,36.24c.18-.14.37-.25.56-.31-.19.08-.37.18-.55.32-.27.21-.49.45-.66.71.16-.26.38-.51.65-.72Z"/>
      <path class="cls-1" d="M21.59,36.6c-.7-.54-1.34-.79-1.91-.78.57-.02,1.21.24,1.91.78Z"/>
      <path class="cls-1" d="M19.68,35.82c-.19,0-.38.04-.55.11.18-.07.36-.1.55-.11Z"/>
      <path class="cls-1" d="M20.52,27.97c-.14.08-.3.15-.43.24.13-.1.28-.16.43-.24Z"/>
      <path class="cls-1" d="M23.36,21.57c.34-.48.73-.92,1.12-1.36-.39.44-.77.88-1.11,1.36-.06.08-.11.16-.16.24.05-.08.1-.16.15-.24Z"/>
      <path class="cls-1" d="M22.42,23.06c.25-.43.51-.84.79-1.25-.28.41-.55.82-.79,1.25Z"/>
      <path class="cls-1" d="M26.87,29.68c0-.15.03-.3.05-.44-.02.14-.03.29-.04.44,0,.07,0,.14,0,.22v-.22Z"/>
      <path class="cls-1" d="M26.92,29.24c.06-.44.16-.85.34-1.21-.18.37-.28.78-.34,1.21Z"/>
      <path class="cls-1" d="M27.26,28.03c.12-.24.27-.47.47-.66-.2.2-.35.42-.47.66Z"/>
      <path class="cls-1" d="M28.45,26.85c.13-.06.27-.12.4-.16-.13.05-.26.11-.39.17-.15.07-.28.15-.4.23.12-.09.25-.17.39-.24Z"/>
      <path class="cls-1" d="M31.29,46.46c.11.12.27.22.43.29-.17-.06-.32-.16-.43-.29Z"/>
      <path class="cls-1" d="M31.28,42.05c.18-.02.36-.04.54-.04-.18.02-.36.03-.54.05-.11,0-.22.03-.33.05.11-.03.22-.04.33-.06Z"/>
      <path class="cls-1" d="M34.74,42.09c-.97-.03-1.94-.12-2.9-.08.96-.05,1.94.05,2.9.08Z"/>
      <path class="cls-1" d="M33.62,28.02h-.01c-.03-.09-.06-.17-.09-.26.03.09.06.17.1.26Z"/>
      <path class="cls-1" d="M32.64,44.83c.55-.08,1.1-.05,1.66.03-.55-.07-1.1-.1-1.66-.03Z"/>
      <path class="cls-1" d="M34.31,21.38c.21-.06.43-.11.64-.13-.21.04-.43.08-.64.14-.58.16-1.07.44-1.46.8.39-.36.88-.64,1.46-.81Z"/>
      <path class="cls-1" d="M36.1,47.33c-.77.12-1.55.15-2.32.08-.26-.03-.52-.09-.78-.17.26.08.52.13.78.16.77.07,1.55.05,2.32-.07Z"/>
      <path class="cls-1" d="M35.67,41.73c0,.15,0,.3-.01.45-.05,0-.11-.01-.17-.02.06,0,.11.01.16.01.01-.15.02-.29.02-.44Z"/>
      <path class="cls-1" d="M37.17,21.51c-.72-.28-1.46-.37-2.22-.26.77-.11,1.51-.03,2.22.26Z"/>
      <path class="cls-1" d="M37.47,28.15s-.08.03-.12.05h0s.08-.04.12-.05Z"/>
      <path class="cls-1" d="M39.1,23.5c.17.58.14,1.21-.09,1.83-.05.12-.11.24-.17.36.06-.13.11-.25.16-.37.24-.61.26-1.24.1-1.82Z"/>
      <path class="cls-1" d="M39.97,26.61c.29-.09.58-.15.86-.17-.28.03-.56.08-.86.18-.19.06-.37.15-.54.25.17-.11.35-.2.54-.26Z"/>
      <path class="cls-1" d="M43.09,43.34c.31-.38.59-.78.84-1.19-.24.41-.52.81-.84,1.19Z"/>
      <path class="cls-1" d="M43.43,39.69c-.37.06-.72.06-1.04,0,.32.05.67.05,1.04-.01.39-.06.68-.08.87-.02-.19-.06-.48-.04-.87.03Z"/>
      <path class="cls-1" d="M44.27,41.51c.05-.09.09-.19.14-.29-.04.1-.09.19-.13.29-.11.22-.22.43-.35.64.12-.21.23-.42.34-.64Z"/>
      <path class="cls-1" d="M44.51,40.91c.07-.23.11-.42.13-.58-.01.16-.05.36-.12.58-.03.1-.07.2-.11.3.04-.1.07-.2.1-.3Z"/>
      <path class="cls-1" d="M45.43,47c.03.14.05.29.09.43-.04-.14-.07-.29-.1-.44-.02-.09-.03-.16-.06-.23.03.07.05.15.07.24Z"/>
      <path class="cls-1" d="M46.93,43.66c.37-.6.71-1.2,1.03-1.82-.31.62-.65,1.22-1.02,1.82h0Z"/>
      <path class="cls-1" d="M49.68,44.57c.14.2.24.41.29.65-.06-.24-.16-.46-.29-.65Z"/>
      <path class="cls-1" d="M49.98,45.23c.27,1.1.01,2.08-.74,2.75.74-.68,1.01-1.65.73-2.76h.01Z"/>
      <path class="cls-1" d="M50.53,32.62s.03.03.05.04h-.01s-.03-.03-.04-.04Z"/>
      <path class="cls-1" d="M20.58,24.71c-.14-.32-.3-.58-.48-.77.19.18.35.44.49.77.03.08.06.14.09.2-.03-.06-.06-.12-.1-.2Z"/>
      <path class="cls-1" d="M21,41.04c.13-.03.26-.07.38-.11-.13.05-.26.09-.39.12-.3.07-.6.12-.89.12.29,0,.6-.05.9-.13Z"/>
      <path class="cls-1" d="M21.4,24.8c.05-.07.1-.14.14-.21-.05.07-.08.15-.13.22-.09.12-.18.21-.25.27.07-.07.15-.16.24-.28Z"/>
      <path class="cls-1" d="M23.05,38.99c.02-.07.04-.14.06-.21-.02.07-.03.14-.05.21-.09.43-.25.79-.48,1.09.22-.3.38-.66.47-1.09Z"/>
      <path class="cls-1" d="M23.51,15.29c.11-.25.27-.48.46-.68-.2.21-.35.44-.46.68Z"/>
      <path class="cls-1" d="M24.16,14.41h.01c-.07.06-.14.13-.2.2.06-.08.12-.14.19-.2Z"/>
      <path class="cls-1" d="M27.57,14.13c-.06-.04-.12-.09-.18-.13-.09-.06-.18-.11-.27-.15.09.04.18.08.27.14.06.04.12.09.18.14Z"/>
      <path class="cls-1" d="M27.54,16.96c.08-.13.17-.25.24-.36-.07.11-.15.23-.23.36h-.01Z"/>
      <path class="cls-1" d="M27.92,47c.15.5.39.96.72,1.38-.33-.41-.57-.88-.72-1.38Z"/>
      <path class="cls-1" d="M27.98,16.26c-.03.06-.06.11-.1.17.04-.05.06-.11.09-.17.24-.48.26-.99.09-1.44.17.45.16.96-.08,1.44Z"/>
      <path class="cls-1" d="M28.79,17.08s-.1.03-.15.04c.06-.02.11-.03.16-.05h-.01Z"/>
      <path class="cls-1" d="M30.06,49.56c.32.18.65.33.99.47-.34-.13-.67-.28-.99-.46-.18-.1-.35-.21-.51-.32.16.11.33.21.51.31Z"/>
      <path class="cls-1" d="M31.12,45.8c-.03.17-.01.31.04.44-.05-.12-.07-.26-.05-.43.01-.07.03-.13.05-.19-.02.06-.03.12-.04.18Z"/>
      <path class="cls-1" d="M31.17,36.63c.29-.12.55-.26.77-.43-.22.18-.48.32-.76.44-.5.19-.99.32-1.48.37.49-.06.98-.19,1.47-.38Z"/>
      <path class="cls-1" d="M31.33,16.16c-.21.06-.43.13-.64.2.21-.08.43-.15.64-.21.17-.05.33-.09.5-.13-.17.04-.33.09-.5.14Z"/>
      <path class="cls-1" d="M33.28,27.39c-.24-.29-.52-.57-.74-.88.22.3.51.58.74.88Z"/>
      <path class="cls-1" d="M35.79,40.48c-.03.07-.05.14-.07.21.02-.07.04-.14.06-.21.08-.21.19-.4.31-.55-.12.15-.22.34-.3.55Z"/>
      <path class="cls-1" d="M35.41,45.05c.39.08.75.12,1.1.12-.35,0-.72-.03-1.1-.11-.35-.07-.7-.14-1.04-.19.35.05.69.12,1.04.18Z"/>
      <path class="cls-1" d="M37.26,32.01h.01c-.07.92-.19,1.78-.39,2.59.2-.81.32-1.68.38-2.59Z"/>
      <path class="cls-1" d="M37.52,27.69c-.08.1-.17.2-.25.31.01.03.03.07.04.1-.01-.03-.03-.07-.05-.1.08-.1.17-.21.26-.31Z"/>
      <path class="cls-1" d="M37.74,32.61c.42.36.86.65,1.31.85-.45-.19-.89-.47-1.31-.84-.04-.03-.07-.06-.1-.1.03.03.06.06.1.09Z"/>
      <path class="cls-1" d="M37.9,27.96c.52-.34,1-.79,1.53-1.09-.53.31-1.01.76-1.53,1.1-.04.02-.08.05-.13.06.05-.02.09-.04.13-.07Z"/>
      <path class="cls-1" d="M36.97,13.19c.28-.76.96-1.32,1.93-1.52.11-.02.22-.04.32-.04-.1.02-.2.03-.31.05-.97.19-1.65.76-1.94,1.51Z"/>
      <path class="cls-1" d="M40.73,38.48c.13.26.3.48.5.67-.2-.18-.37-.41-.5-.67Z"/>
      <path class="cls-1" d="M41.91,13.12c-.11-.28-.28-.53-.48-.75.21.21.37.46.48.75Z"/>
      <path class="cls-1" d="M41.95,14.72c.13-.26.18-.57.14-.9-.02-.17-.05-.33-.1-.48.06.15.09.32.11.49.04.32-.02.63-.15.89Z"/>
      <path class="cls-1" d="M43.81,22.68c-.32-.34-.65-.66-.99-.96.35.29.68.62.99.96Z"/>
      <path class="cls-1" d="M45.25,35.46c-.54-.54-1.27-.8-2.23-.81-.32-.01-.61.04-.88.14.26-.1.56-.15.88-.15.96.01,1.7.27,2.23.82Z"/>
      <path class="cls-1" d="M45.28,46.61c-.14-.18-.35-.17-.65.01-.29.17-.58.37-.84.59.26-.22.55-.42.84-.6.31-.18.52-.19.65,0Z"/>
      <path class="cls-1" d="M46.32,36.99c.13-.51.29-1.02.43-1.53-.13.51-.29,1.03-.42,1.54h-.01Z"/>
      <path class="cls-1" d="M46.94,43.66c.08-.01.15-.02.22-.02-.07.01-.15.02-.23.03h0s0-.01,0-.01Z"/>
      <path class="cls-1" d="M47.76,20.76c-.09.24-.16.51-.21.8h-.01c.05-.3.12-.56.22-.8Z"/>
      <path class="cls-1" d="M47.76,20.75c.09-.23.22-.44.37-.61-.15.17-.27.38-.37.61Z"/>
      <path class="cls-1" d="M47.75,43.59c.14,0,.27.02.4.04-.13-.02-.26-.03-.4-.03h-.12s.08-.01.12-.01Z"/>
      <path class="cls-1" d="M49.94,19.39c-.2,0-.4.02-.59.06-.51.1-.92.33-1.22.69.29-.37.7-.6,1.22-.7.19-.04.39-.05.59-.05Z"/>
      <path class="cls-1" d="M49.4,23.95c.38.03.74.1,1.09.13-.35-.03-.71-.09-1.09-.12h0Z"/>
      <path class="cls-1" d="M54.5,36.01c-.22.23-.45.4-.7.51.25-.12.48-.29.7-.51Z"/>
      <path class="cls-1" d="M102.79,14.04c.55,0,1.08.02,1.61.03-.52,0-1.06-.02-1.61-.02h0Z"/>
      <path class="cls-1" d="M106.99,23.35s.09.07.13.11c-.04-.03-.08-.07-.13-.1h0Z"/>
      <path class="cls-1" d="M107.1,14.49c.18.19.33.44.47.76-.15-.32-.3-.57-.47-.76Z"/>
      <path class="cls-1" d="M117.44,24.06c.09-.18.19-.35.3-.53-.1.18-.2.35-.29.53-.96,1.91-1.93,3.81-2.89,5.72.95-1.92,1.93-3.82,2.88-5.72Z"/>
      <path class="cls-1" d="M122.2,14.72c-.01,6.67-.03,13.35-.02,20.02,0,.18-.02.32-.06.42.04-.11.05-.24.05-.42,0-6.67.02-13.34.02-20.02,0-.16,0-.32,0-.49,0,.18.02.33.02.49Z"/>
      <path class="cls-1" d="M131.36,23.44c.28.48.54.96.8,1.44-.26-.47-.53-.95-.8-1.42v-.02Z"/>
      <path class="cls-1" d="M142.11,23.44s.1.03.15.05h0s-.1-.03-.15-.04h0Z"/>
      <path class="cls-1" d="M146.44,14.04h0c-.52.01-1.04.01-1.55,0h1.55Z"/>
      <path class="cls-1" d="M63.15,13.99h1.31c-.43.01-.87.01-1.31.01h0Z"/>
      <path class="cls-1" d="M67.15,14.08c.1.1.2.37.2.52.01.61.01,1.21,0,1.82.01-.61,0-1.21-.01-1.82,0-.16-.1-.4-.19-.52Z"/>
      <rect class="cls-1" x="74.53" y="26.49" width=".01" height="8.82"/>
      <rect class="cls-1" x="78.69" y="14.03" width=".01" height="21.28"/>
      <path class="cls-1" d="M163.66,22.75c-.07-.01-.14-.01-.23-.01h-2.1c.71.01,1.41,0,2.11-.01.08,0,.16,0,.22.02Z"/>
      <rect class="cls-1" x="155.65" y="26.54" width="8.43" height=".01"/>
      <rect class="cls-1" x="155.65" y="17.8" width="9.83" height=".01"/>
      <rect class="cls-1" x="155.65" y="31.68" width="9.83" height=".01"/>
      <path class="cls-1" d="M87,31.6c-.09.28-.18.55-.28.83.1-.27.19-.55.29-.83h-.01ZM89.84,13.97c-.13-.01-.24-.01-.34.01.1-.01.21-.01.33,0,.13.01.25.02.38.01-.12,0-.25-.01-.37-.02ZM98.87,31.74c-1.04-2.85-2.08-5.71-3.12-8.57,1.03,2.86,2.07,5.72,3.11,8.57.11.29.22.59.33.89-.11-.3-.21-.59-.32-.89Z"/>
      <rect class="cls-1" x="169.58" y="14.09" width="4.17" height=".01"/>
      <path class="cls-1" d="M107.72,46.36c.2-.69.41-1.39.62-2.08-.2.69-.4,1.39-.61,2.08h-.01Z"/>
      <path class="cls-1" d="M111.2,46.03c-.29-.99-.58-1.97-.87-2.96-.05-.18-.09-.33-.13-.45.04.12.09.27.14.45.28.99.57,1.97.86,2.96Z"/>
      <path class="cls-1" d="M111.51,49.46s.06,0,.09.01h-.09s-.09-.01-.13-.01h.13Z"/>
      <path class="cls-1" d="M114,42.19c-.47,1.76-.92,3.47-1.38,5.18-.04.14-.08.27-.12.4.04-.14.08-.27.11-.4.46-1.72.93-3.43,1.39-5.18Z"/>
      <rect class="cls-1" x="125.22" y="42.25" width=".01" height="7.15"/>
      <path class="cls-1" d="M126.67,45.36c.43.56.82,1.12,1.19,1.69-.38-.56-.77-1.12-1.19-1.67v-.02Z"/>
      <path class="cls-1" d="M128.06,44.62c.38.59.77,1.19,1.19,1.83v.03c-.42-.65-.81-1.27-1.19-1.86Z"/>
      <path class="cls-1" d="M130.72,49.39h0c-.09.03-.17.05-.24.06.07-.02.15-.04.24-.06Z"/>
      <path class="cls-1" d="M69.4,49.1c.08.11.17.21.26.33h.01c-.1-.12-.19-.23-.27-.33ZM68.52,47.67c.02-.07.06-.14.1-.23.07-.13.12-.28.17-.42-.05.15-.11.29-.18.42-.04.09-.07.16-.09.23ZM66.33,45.49c.11-.1.21-.2.29-.29-.09.09-.19.18-.29.28h0ZM64.11,42.62c-.59.57-.53,1.41.18,2.69-.7-1.27-.76-2.12-.18-2.69ZM63.16,48c-.15-.49-.07-1.02.23-1.57-.31.55-.39,1.08-.23,1.57Z"/>
      <path class="cls-1" d="M65.71,43.28c.18.03.49.32.46.41-.1.32-.31.6-.49.9-.1-.01-.2-.03-.3-.04-.09-.34-.21-.67-.22-1.01,0-.09.38-.28.55-.26ZM64.62,47.79c-.37-.51-.19-1.07.54-1.59.45.54.91,1.08,1.37,1.62-.83.54-1.53.51-1.91-.03Z"/>
      <path class="cls-1" d="M82.74,49.39c-.12-.11-.08-.37-.08-.98v-1.55c0,.52,0,1.03.01,1.55,0,.6-.04.87.07.98Z"/>
      <rect class="cls-1" x="84.19" y="45.1" width="2.78" height=".01"/>
      <rect class="cls-1" x="84.21" y="46.39" width="2.76" height=".01"/>
      <rect class="cls-1" x="84.21" y="48.1" width="3.27" height=".01"/>
      <rect class="cls-1" x="116.57" y="46.41" width=".01" height="1.71"/>
      <rect class="cls-1" x="116.59" y="45.08" width="2.76" height=".01"/>
      <polygon class="cls-1" points="146.75 45.09 146.76 45.09 146.76 46.42 143.96 46.42 143.96 46.41 146.75 46.41 146.75 45.09"/>
      <rect class="cls-1" x="142.5" y="42.2" width="4.72" height=".01"/>
      <polygon class="cls-1" points="143.96 43.44 147.22 43.44 147.22 43.45 143.97 43.45 143.97 45.09 143.96 45.09 143.96 43.44"/>
      <path class="cls-1" d="M135.41,48.57c.15.15.32.29.52.42-.19-.12-.37-.25-.52-.42Z"/>
      <path class="cls-1" d="M140.61,42.99c-.08.08-.16.16-.23.23.07-.07.14-.15.22-.24h.01Z"/>
      <path class="cls-1" d="M72.44,44.38c.02-.25.07-.49.16-.71-.08.23-.14.47-.15.72-.05.82-.05,1.66-.02,2.5-.03-.84-.04-1.68,0-2.51Z"/>
      <path class="cls-1" d="M74.8,48.08s.06,0,.09.01c-.03,0-.06,0-.09,0-.04-.01-.08-.02-.12-.05.04.02.08.03.12.04Z"/>
      <path class="cls-1" d="M74.89,48.09c.09,0,.18.02.28,0-.1.02-.2.01-.28,0Z"/>
      <path class="cls-1" d="M77.72,44.44h-.01c0-.09-.01-.18-.02-.26.02.08.03.17.03.26Z"/>
      <rect class="cls-1" x="178.8" y="47.39" width="1.25" height=".01"/>
      <path class="cls-1" d="M180.21,49.44c.28.09.58.14.86.14-.28,0-.57-.05-.85-.13h-.01Z"/>
      <path class="cls-1" d="M181.91,44.12s.02.11.02.16c0,.12-.01.23-.05.32.03-.09.04-.2.04-.32,0-.05,0-.11-.01-.16Z"/>
      <path class="cls-1" d="M183.02,43.15c-.09-.16-.21-.31-.35-.43.14.12.26.26.36.43.05.08.09.17.13.26-.04-.08-.09-.17-.14-.26Z"/>
      <path class="cls-1" d="M173.03,49.43s.01.05.02.08h-.01s-.01-.05-.01-.08Z"/>
      <path class="cls-1" d="M173.05,44.27h-.01c-.02-.28.01-.53.07-.76-.06.23-.08.49-.06.76Z"/>
      <path class="cls-1" d="M175.4,43.44s.04,0,.07.03c-.03-.01-.05-.02-.08-.02h-.09s.07,0,.1,0Z"/>
      <path class="cls-1" d="M167.75,49.46c.07.01.13.01.19.01h-.19Z"/>
      <path class="cls-1" d="M168.21,44.55c.01-.1.02-.18.02-.27,0,.09-.01.18-.01.27h-.01Z"/>
      <path class="cls-1" d="M168.27,43.48c-.01.18-.01.36-.02.53,0-.18.01-.35.01-.53h.01Z"/>
      <path class="cls-1" d="M168.37,49.49c.09.02.18.03.26.03-.08,0-.17-.01-.26-.02-.04-.01-.09-.01-.13-.02.04.01.09.01.13.01Z"/>
      <rect class="cls-1" x="153.93" y="43.49" width=".01" height="5.95"/>
      <path class="cls-1" d="M161.88,44.82c.21-.17.42-.33.64-.51-.22.18-.43.36-.64.53v-.02Z"/>
      <rect class="cls-1" x="79.3" y="42.05" width=".01" height="7.41"/>
      <path class="cls-1" d="M93.63,50.08c.07-.06.12-.13.18-.23-.05.11-.11.18-.18.23Z"/>
      <path class="cls-1" d="M96.41,41.41c-.34-.02-.57-.03-.75,0,.17-.04.4-.03.75,0Z"/>
      <rect class="cls-1" x="149.07" y="42.2" width="1.47" height=".01"/>
      <path class="cls-1" d="M97.46,50.2c-.2.04-.5,0-1.01-.1h0c.5.08.8.14,1.01.1Z"/>
      <path class="cls-1" d="M97.95,45.6c.12-.35.23-.7.35-1.05-.12.35-.23.7-.34,1.05l-.57,1.68c.19-.56.37-1.12.56-1.68Z"/>
      <path class="cls-1" d="M100.64,41.45h-.01c-.52-.07-.83-.11-1.03-.06.2-.07.51-.02,1.04.06Z"/>
      <path class="cls-1" d="M121.63,45.45c0,.93-.02,1.86-.02,2.79,0,.1-.01.19-.01.27v-.27c.01-.93.02-1.86.03-2.79Z"/>
      <path class="cls-1" d="M93.39,28.02h-5.18c.87-2.52,1.72-4.95,2.63-7.58.88,2.62,1.7,5.06,2.55,7.58Z"/>
      <path class="cls-1" d="M66.53,47.82c-.83.54-1.53.51-1.91-.03-.37-.51-.19-1.07.54-1.59.45.54.91,1.08,1.37,1.62Z"/>
      <path class="cls-1" d="M66.17,43.69c-.1.32-.31.6-.49.9-.1-.01-.2-.03-.3-.04-.09-.34-.21-.67-.22-1.01,0-.09.38-.28.55-.26.18.03.49.32.46.41Z"/>
    </g>
  </g>
</svg>