<?xml version="1.0" encoding="UTF-8"?>
<svg id="Ebene_2" data-name="Ebene 2" xmlns="http://www.w3.org/2000/svg" viewBox="0 0 718.25 243.58">
  <defs>
    <style>
      .cls-1 {
        fill: #1d1d1b;
      }
    </style>
  </defs>
  <g id="Ebene_1-2" data-name="Ebene 1">
    <path class="cls-1" d="M545.89,229.52h-23.81c-.65,0-.98-.33-.98-.98v-12.05c0-.65.33-.98.98-.98h22.59c.55,0,1.03-.2,1.42-.61.39-.41.59-.87.59-1.4v-10.04c0-.56-.2-1.03-.61-1.42-.41-.39-.87-.59-1.4-.59h-22.59c-.65-.03-.98-.37-.98-1.03v-12c0-.69.33-1.03.98-1.03h23.42c.52,0,.98-.2,1.37-.61.39-.41.59-.87.59-1.4v-10.04c0-.52-.2-.99-.59-1.4-.39-.41-.85-.61-1.37-.61h-36.45c-.52,0-.99.2-1.4.61-.41.41-.61.87-.61,1.4v66.24c0,.52.2.99.61,1.4.41.41.87.61,1.4.61h36.85c.52,0,.99-.2,1.4-.61.41-.41.61-.87.61-1.4v-10.04c0-.52-.2-.99-.61-1.4-.41-.41-.87-.61-1.4-.61h0ZM494.05,173.32h-10.04c-.52,0-.99.2-1.4.61-.41.41-.61.87-.61,1.4v25.09c0,.69-.33,1.03-.98,1.03h-15.29c-.65-.03-.98-.37-.98-1.03v-25.09c0-.52-.2-.99-.61-1.4-.41-.41-.87-.61-1.4-.61h-10.04c-.52,0-.99.2-1.4.61-.41.41-.61.87-.61,1.4v66.24c0,.52.2.99.61,1.4.41.41.87.61,1.4.61h9.55c.52,0,1.07-.2,1.64-.61.57-.41.86-.87.86-1.4v-25.09c0-.65.33-.98.98-.98h15.29c.65,0,.98.33.98.98v25.09c0,.52.2.99.61,1.4.41.41.87.61,1.4.61h10.04c.52,0,.99-.2,1.4-.61.41-.41.61-.87.61-1.4v-66.24c0-.52-.2-.99-.61-1.4-.41-.41-.87-.61-1.4-.61h0ZM568.43,173.32h-10.04c-.52,0-.99.2-1.4.61-.41.41-.61.87-.61,1.4v66.24c0,.52.2.99.61,1.4.41.41.87.61,1.4.61h10.04c.52,0,.99-.2,1.4-.61.41-.41.61-.87.61-1.4v-66.24c0-.52-.2-.99-.61-1.4-.41-.41-.87-.61-1.4-.61h0ZM459.19,151.61c.39-.41.59-.87.59-1.4v-53.16c.03-.69.37-1.03,1.03-1.03h12.5c.52,0,.98-.2,1.39-.61.41-.41.61-.87.61-1.4v-10.04c0-.52-.2-.99-.61-1.4-.41-.41-.87-.61-1.39-.61h-41.11c-.52,0-.99.2-1.39.61-.41.41-.61.87-.61,1.4v10.04c0,.56.2,1.03.61,1.42.41.39.87.59,1.39.59h12.5c.68.03,1.03.38,1.03,1.03v53.16c0,.52.2.99.59,1.4.39.41.85.61,1.38.61h10.08c.56,0,1.03-.2,1.43-.61h0ZM513.29,125.13v25.09c0,.52.2.99.61,1.4.41.41.87.61,1.4.61h10.04c.52,0,.99-.2,1.4-.61.41-.41.61-.87.61-1.4v-66.25c0-.52-.2-.99-.61-1.4-.41-.41-.87-.61-1.4-.61h-10.04c-.52,0-.99.2-1.4.61-.41.41-.61.87-.61,1.4v25.09c0,.69-.33,1.03-.98,1.03h-15.29c-.65-.03-.98-.37-.98-1.03v-25.09c0-.52-.2-.99-.61-1.4-.41-.41-.87-.61-1.4-.61h-10.04c-.52,0-.99.2-1.4.61-.41.41-.61.87-.61,1.4v66.25c0,.52.2.99.61,1.4.41.41.87.61,1.4.61h9.55c.52,0,1.07-.2,1.64-.61.57-.41.86-.87.86-1.4v-25.09c0-.65.33-.98.98-.98h15.29c.65,0,.98.33.98.98h0ZM717.64,138.77c-.41-.41-.87-.61-1.4-.61h-23.81c-.65,0-.98-.33-.98-.98v-12.05c0-.65.33-.98.98-.98h22.59c.55,0,1.03-.2,1.42-.61.39-.41.59-.87.59-1.4v-10.04c0-.56-.2-1.03-.61-1.42-.41-.39-.87-.59-1.4-.59h-22.59c-.65-.03-.98-.37-.98-1.03v-12c0-.69.33-1.03.98-1.03h23.42c.52,0,.98-.2,1.37-.61.39-.41.59-.87.59-1.4v-10.04c0-.52-.2-.99-.59-1.4-.39-.41-.85-.61-1.37-.61h-36.45c-.52,0-.99.2-1.4.61-.41.41-.61.87-.61,1.4v66.25c0,.52.2.99.61,1.4.41.41.87.61,1.4.61h36.84c.52,0,.99-.2,1.4-.61.41-.41.61-.87.61-1.4v-10.04c0-.52-.2-.99-.61-1.4h0ZM563.32,124.83h-9.21c-.59,0-.88-.23-.88-.69,0-.13.02-.28.05-.44l4.85-24.06c.07-.26.23-.39.49-.39h.2c.26,0,.43.13.49.39l4.8,24.06c.07.16.1.31.1.44,0,.46-.29.69-.88.69h0ZM585.02,151.53c.26-.33.38-.64.34-.93,0-.13-.02-.26-.05-.39l-17.88-66.74c-.2-1.01-.83-1.52-1.91-1.52h-13.43c-1.08,0-1.72.51-1.91,1.52l-17.98,66.74c-.03.13-.05.26-.05.39,0,.29.11.61.34.93.33.46.9.69,1.71.69h10.53c1.08,0,1.72-.51,1.91-1.52l2.79-10.34c.2-.98.7-1.47,1.52-1.47h15.24c.49,0,.83.15,1.03.44.2.29.36.64.49,1.03l3.14,10.34c.33,1.01.96,1.52,1.91,1.52h10.53c.82,0,1.39-.23,1.71-.69h0ZM669.89,138.16h-21.07c-.65,0-.98-.33-.98-.98v-53.21c0-.52-.2-.99-.61-1.4-.41-.41-.87-.61-1.4-.61h-10.04c-.52,0-.99.2-1.4.61-.41.41-.61.87-.61,1.4v66.25c0,.52.2.99.61,1.4.41.41.87.61,1.4.61h34.1c.56,0,1.03-.2,1.42-.61.39-.41.59-.87.59-1.4v-10.04c0-.52-.2-.99-.61-1.4-.41-.41-.87-.61-1.4-.61h0ZM638.74,173.32h-14.75c-1.14,0-1.84.57-2.11,1.71l-10.63,43.95c-.13.33-.33.49-.61.49s-.48-.16-.61-.49l-10.24-43.95c-.26-1.14-.96-1.71-2.11-1.71h-14.85c-.52,0-.99.2-1.4.61-.41.41-.61.87-.61,1.4v66.24c0,.52.2.99.61,1.4.41.41.87.61,1.4.61h8.82c.55,0,1.03-.2,1.42-.61.39-.41.59-.87.59-1.4v-37.83c0-.33.12-.52.37-.59.24-.07.43.07.56.39l10,38.32c.29,1.14,1.01,1.71,2.16,1.71h7.89c1.14,0,1.84-.57,2.11-1.71l10.24-38.32c.13-.33.32-.46.56-.39.24.07.37.26.37.59v37.83c0,.52.2.99.61,1.4.41.41.87.61,1.4.61h8.82c.52,0,.99-.2,1.4-.61.41-.41.61-.87.61-1.4v-66.24c0-.52-.2-.99-.61-1.4-.41-.41-.87-.61-1.4-.61h0ZM412.84,151.73c3.02-1.08,5.61-2.59,7.78-4.54,2.17-1.94,3.86-4.26,5.07-6.94,1.21-2.68,1.81-5.66,1.81-8.93,0-3.47-.62-6.48-1.86-9.04-1.24-2.55-2.93-4.72-5.07-6.51-2.14-1.78-4.7-3.23-7.69-4.32-2.99-1.1-6.21-2.02-9.66-2.78-2.61-.52-4.74-1.37-6.4-2.55-1.66-1.18-2.49-2.73-2.49-4.66,0-2.03.75-3.72,2.25-5.06,1.5-1.34,3.65-2.01,6.45-2.01s5.06.77,6.6,2.3c1.53,1.53,2.3,3.3,2.3,5.31v1.53c0,.53.2,1,.61,1.41.41.41.87.62,1.39.62h10.07c.52,0,.98-.2,1.39-.61.41-.41.61-.87.61-1.4v-1.52c0-2.94-.57-5.7-1.7-8.28-1.14-2.58-2.72-4.83-4.75-6.74-2.03-1.91-4.46-3.41-7.29-4.51-2.83-1.09-5.9-1.64-9.21-1.64s-6.43.55-9.2,1.63c-2.77,1.09-5.19,2.59-7.24,4.49-2.06,1.9-3.66,4.14-4.8,6.71-1.14,2.57-1.71,5.32-1.71,8.25,0,3.21.59,6.01,1.76,8.4,1.18,2.39,2.76,4.42,4.75,6.09,1.99,1.67,4.37,3.06,7.13,4.17,2.76,1.11,5.7,2,8.83,2.65,3.78.88,6.46,1.91,8.04,3.07,1.58,1.16,2.37,2.82,2.37,4.98,0,2.36-.9,4.32-2.71,5.89-1.81,1.57-4.21,2.36-7.21,2.36-3.16,0-5.59-.78-7.28-2.35-1.69-1.57-2.54-3.53-2.54-5.88v-2.99c0-.56-.2-1.03-.61-1.42-.41-.39-.87-.59-1.39-.59l-10.07-.03c-.52,0-.98.2-1.39.61-.41.41-.61.88-.61,1.4v2.99c0,3.07.6,5.95,1.81,8.63,1.21,2.68,2.86,5.01,4.97,6.99,2.1,1.98,4.62,3.54,7.54,4.68,2.92,1.14,6.11,1.72,9.57,1.72s6.8-.54,9.82-1.62h0ZM273.55,173.32h-14.75c-1.14,0-1.85.57-2.11,1.71l-10.63,43.95c-.13.33-.34.49-.61.49s-.48-.16-.61-.49l-10.24-43.95c-.26-1.14-.96-1.71-2.11-1.71h-14.85c-.52,0-.99.2-1.4.61-.41.41-.61.87-.61,1.4v66.24c0,.52.2.99.61,1.4.41.41.87.61,1.4.61h8.82c.56,0,1.03-.2,1.42-.61.39-.41.59-.87.59-1.4v-37.83c0-.33.12-.52.37-.59.25-.07.43.07.56.39l10,38.32c.29,1.14,1.01,1.71,2.16,1.71h7.89c1.14,0,1.84-.57,2.11-1.71l10.24-38.32c.13-.33.32-.46.56-.39.25.07.37.26.37.59v37.83c0,.52.2.99.61,1.4.41.41.87.61,1.4.61h8.82c.52,0,.99-.2,1.4-.61.41-.41.61-.87.61-1.4v-66.24c0-.52-.2-.99-.61-1.4-.41-.41-.87-.61-1.4-.61h0ZM592.18,152.22h34.1c.55,0,1.03-.2,1.42-.61.39-.41.59-.87.59-1.4v-10.04c0-.52-.2-.99-.61-1.4-.41-.41-.87-.61-1.4-.61h-21.07c-.65,0-.98-.33-.98-.98v-53.21c0-.52-.2-.99-.61-1.4-.41-.41-.87-.61-1.4-.61h-10.04c-.52,0-.99.2-1.4.61-.41.41-.61.87-.61,1.4v66.25c0,.52.2.99.61,1.4.41.41.87.61,1.4.61h0ZM292.72,153.35c3.46,0,6.65-.59,9.57-1.76,2.92-1.18,5.43-2.77,7.54-4.78,2.11-2.01,3.75-4.37,4.94-7.08,1.19-2.71,1.79-5.57,1.79-8.57v-47.19c0-.52-.2-.99-.61-1.4-.41-.41-.87-.61-1.39-.61h-10.06c-.55,0-1.03.2-1.42.61-.39.41-.59.87-.59,1.4v47.27c0,2.23-.86,4.12-2.58,5.69-1.72,1.57-4.12,2.36-7.2,2.36s-5.36-.78-7.05-2.36c-1.69-1.57-2.53-3.47-2.53-5.69v-47.27c0-.52-.2-.99-.61-1.4-.41-.41-.87-.61-1.39-.61h-10.06c-.55,0-1.03.2-1.42.61-.39.41-.59.87-.59,1.4v47.19c0,3.01.58,5.86,1.74,8.57,1.16,2.71,2.79,5.07,4.9,7.08,2.1,2.01,4.62,3.6,7.54,4.78,2.92,1.18,6.08,1.76,9.47,1.76h0ZM217.73,152.22h10.02c.53,0,.99-.2,1.41-.61.41-.41.62-.87.62-1.4v-26.31c0-.33.13-.51.39-.54.26-.03.46.05.59.24l17.15,27.39c.16.29.41.57.73.83.33.26.86.39,1.62.39h10.83c1.14,0,1.89-.46,2.25-1.37.16-.39.24-.77.24-1.13,0-.46-.13-.9-.39-1.32l-20.58-31.8c-.39-.59-.61-1.13-.64-1.62-.03-.49.18-1.06.64-1.71l18.77-27.68c.52-.72.6-1.5.25-2.35-.36-.85-1.01-1.27-1.96-1.27h-10.14c-.72,0-1.23.12-1.54.37-.31.24-.53.47-.66.66l-16.56,24.4c-.13.2-.33.27-.59.22-.26-.05-.39-.24-.39-.56v-23.08c0-.52-.21-.99-.62-1.4-.41-.41-.88-.61-1.41-.61h-10.02c-.53,0-1,.2-1.41.61-.41.41-.62.87-.62,1.4v66.25c0,.52.2.99.62,1.4.41.41.88.61,1.41.61h0ZM312.7,216.19h-9.21c-.59,0-.88-.23-.88-.69,0-.13.02-.28.05-.44l4.85-24.06c.07-.26.23-.39.49-.39h.2c.26,0,.43.13.49.39l4.8,24.06c.07.16.1.31.1.44,0,.46-.29.69-.88.69h0ZM316.82,174.84c-.2-1.01-.83-1.52-1.91-1.52h-13.43c-1.08,0-1.71.51-1.91,1.52l-17.98,66.74c-.03.13-.05.26-.05.39,0,.29.11.61.34.93.33.46.9.69,1.71.69h10.53c1.08,0,1.71-.51,1.91-1.52l2.79-10.34c.2-.98.7-1.47,1.52-1.47h15.24c.49,0,.83.15,1.03.44.2.29.36.64.49,1.03l3.14,10.34c.33,1.01.96,1.52,1.91,1.52h10.53c.82,0,1.39-.23,1.71-.69.26-.33.38-.64.34-.93,0-.13-.02-.26-.05-.39l-17.88-66.74h0ZM383.91,173.32h-10.04c-.52,0-.99.2-1.4.61-.41.41-.61.87-.61,1.4v37.73c0,.36-.12.57-.34.64-.23.07-.41-.07-.54-.39l-13.77-38.17c-.13-.46-.39-.87-.78-1.25-.39-.37-.96-.56-1.71-.56h-11.96c-.52,0-.99.2-1.4.61-.41.41-.61.87-.61,1.4v66.24c0,.52.2.99.61,1.4.41.41.87.61,1.4.61h10.04c.52,0,.99-.2,1.4-.61.41-.41.61-.87.61-1.4v-34.74c0-.33.11-.52.34-.59.23-.07.41.07.54.39l13.67,35.23c.13.39.39.78.78,1.15.39.38,1.03.56,1.91.56h11.86c.52,0,.99-.2,1.4-.61.41-.41.61-.87.61-1.4v-66.24c0-.52-.2-.99-.61-1.4-.41-.41-.87-.61-1.4-.61h0ZM354.72,151.66c.39.38,1.03.56,1.91.56h11.86c.52,0,.99-.2,1.4-.61.41-.41.61-.87.61-1.4v-66.25c0-.52-.2-.99-.61-1.4-.41-.41-.87-.61-1.4-.61h-10.04c-.52,0-.99.2-1.4.61-.41.41-.61.87-.61,1.4v37.73c0,.36-.12.57-.34.64-.23.07-.41-.07-.54-.39l-13.77-38.17c-.13-.46-.39-.87-.78-1.25-.39-.37-.96-.56-1.71-.56h-11.96c-.52,0-.99.2-1.4.61-.41.41-.61.87-.61,1.4v66.25c0,.52.2.99.61,1.4.41.41.87.61,1.4.61h10.04c.52,0,.99-.2,1.4-.61.41-.41.61-.87.61-1.4v-34.74c0-.33.11-.52.34-.59.23-.07.41.07.54.39l13.67,35.23c.13.39.39.78.78,1.15h0ZM438.88,173.32h-10.04c-.52,0-.99.2-1.4.61-.41.41-.61.87-.61,1.4v37.73c0,.36-.11.57-.34.64-.23.07-.41-.07-.54-.39l-13.77-38.17c-.13-.46-.39-.87-.78-1.25-.39-.37-.96-.56-1.71-.56h-11.96c-.52,0-.99.2-1.4.61-.41.41-.61.87-.61,1.4v66.24c0,.52.2.99.61,1.4.41.41.87.61,1.4.61h10.04c.52,0,.99-.2,1.4-.61.41-.41.61-.87.61-1.4v-34.74c0-.33.11-.52.34-.59.23-.07.41.07.54.39l13.67,35.23c.13.39.39.78.78,1.15.39.38,1.03.56,1.91.56h11.86c.52,0,.99-.2,1.4-.61.41-.41.61-.87.61-1.4v-66.24c0-.52-.2-.99-.61-1.4-.41-.41-.87-.61-1.4-.61h0Z"/>
    <path class="cls-1" d="M44.19,174.84v68.55H0V35.42h44.14v120.89c.74-.89,1.15-1.3,1.45-1.77,11.33-17.95,22.67-35.91,33.95-53.89.89-1.41,1.89-2.06,3.56-2.29,16.22-2.24,32.42-4.6,48.63-6.86,11.41-1.59,22.84-3.07,34.26-4.6.37-.05.74-.13,1.73-.3-1.03-.47-1.52-.75-2.04-.92-27.41-9.17-54.82-18.35-82.26-27.45-2.02-.67-2.79-1.6-2.57-3.71.24-2.28-.63-5.17.48-6.72,1.1-1.54,4.05-1.79,6.22-2.53,25.88-8.74,51.77-17.46,77.66-26.19.64-.21,1.25-.51,1.81-1.18-4.61-.54-9.21-1.08-13.82-1.62-14.61-1.71-29.22-3.42-43.82-5.12-8.77-1.02-17.53-2.08-26.31-2.97-1.8-.18-2.32-.79-2.21-2.48.12-1.81.03-3.63.03-5.72,31.33,4.38,62.38,8.73,93.74,13.11,0,3.15.1,6.23-.09,9.3-.04.56-1.2,1.27-1.97,1.53-12.7,4.34-25.42,8.63-38.14,12.91-15.2,5.12-30.41,10.23-45.61,15.35-.13.05-.23.2-.58.5.77.31,1.42.6,2.1.83,27.08,9.16,54.16,18.34,81.27,27.41,2.33.78,3.36,1.75,3.09,4.3-.27,2.51-.06,5.06-.06,7.79-6.9,1-13.64,1.99-20.38,2.97-5.82.84-11.65,1.62-17.46,2.57-.88.14-1.89.85-2.42,1.59-15.18,21.02-30.29,42.1-45.49,63.1-1.11,1.53-.67,2.45.17,3.73,16.17,24.67,32.32,49.37,48.47,74.06.43.66.85,1.33,1.43,2.25-.78.09-1.35.22-1.92.22-17.19,0-34.38-.03-51.57.06-1.72,0-2.32-.83-3.01-2.05-12.22-21.68-24.46-43.34-36.7-65.01-.34-.61-.72-1.2-1.09-1.8-.16.04-.33.08-.49.11Z"/>
  </g>
</svg>