<?xml version="1.0" encoding="UTF-8"?>
<svg id="Ebene_2" data-name="Ebene 2" xmlns="http://www.w3.org/2000/svg" viewBox="0 0 831.97 164.95">
  <g id="Ebene_1-2" data-name="Ebene 1">
    <g>
      <path d="M258.08,153.87H2.06s-2.06,0-2.06,2.08v6.9s0,2.08,2.06,2.08h256.02s2.06,0,2.06-2.08v-6.9s0-2.08-2.06-2.08Z"/>
      <path d="M258.08,123.96H2.06s-2.06,0-2.06,2.08v6.9s0,2.08,2.06,2.08h256.02s2.06,0,2.06-2.08v-6.9s0-2.08-2.06-2.08Z"/>
      <path d="M258.08,64.15H2.06s-2.06,0-2.06,2.08v6.9s0,2.08,2.06,2.08h256.02s2.06,0,2.06-2.08v-6.9s0-2.08-2.06-2.08Z"/>
      <path d="M258.08,94.06H2.06s-2.06,0-2.06,2.08v6.9s0,2.08,2.06,2.08h256.02s2.06,0,2.06-2.08v-6.9s0-2.08-2.06-2.08Z"/>
      <path d="M2.06,11.07h57.07s2.92,0,5.55,1.27l16.35,9.59s1.86.9,1.86-1.18v-8.11s0-2.08-1.86-2.98l-13.87-8.39s-2.63-1.27-5.55-1.27H2.06C0,0,0,2.08,0,2.08v6.9c0,2.08,2.06,2.08,2.06,2.08Z"/>
      <path d="M2.06,43.05h47.64s4.13-.08,6.35.17c2.14.24,6.11,1.43,6.11,1.43l11.62,2.72s3.96,1.15,6.23,1.46c1.06.15,98.99.15,100.05,0,2.28-.31,6.23-1.46,6.23-1.46l11.62-2.72s3.97-1.19,6.11-1.43c2.22-.25,6.35-.17,6.35-.17h47.65s2.06,0,2.06-2.08v-6.9s0-2.08-2.06-2.08h-50.82s-3.89-.01-5.81.29c-1.92.3-6.1,1.64-6.1,1.64l-9.58,2.24s-5.32,1.5-6.91,1.62c-1.35.1-96.2.1-97.55,0-1.59-.12-6.91-1.62-6.91-1.62l-9.58-2.24s-4.18-1.34-6.1-1.64c-1.92-.3-5.81-.29-5.81-.29H2.06c-2.06,0-2.06,2.08-2.06,2.08v6.9c0,2.08,2.06,2.08,2.06,2.08Z"/>
      <path d="M258.08,0h-60.41s-2.06,0-3.91.9l-14.7,8.77s-1.86.9-1.86,2.98v7.24s0,2.95,2.63,1.68l15.63-9.22s2.63-1.27,5.55-1.27h57.07s2.06,0,2.06-2.08V2.08s0-2.08-2.06-2.08Z"/>
      <path d="M368.71,103.87h-6.3c-.38,0-1.08.34-1.31.86l-21.42,37.16h-.15l-21.33-37.16c-.23-.52-.92-.86-1.31-.86h-6.45c-.61,0-1.31.6-1.39,1.38v57.81c0,1.17.55,1.89,1.47,1.89h9.08c.77,0,1.39-.69,1.46-1.38l-.02-26.58h.15l16.41,27.02c.23.52.85.95,1.31.95h1.39c.38,0,1.08-.43,1.31-.95l16.37-27.02h.16v26.58c.09.69.78,1.38,1.47,1.38h9.08c.92,0,1.41-.77,1.41-1.89v-57.81c-.08-.78-.77-1.38-1.39-1.38Z"/>
      <path d="M407.47,104.81c-.24-.52-.8-.95-1.36-.95h-.8c-.56,0-1.12.43-1.36.95l-24.98,57.9c-.48,1.12.16,2.24,1.36,2.24h8.78c1.59,0,2.47-1.03,2.87-2.07l2.87-6.88h21.71l2.87,6.8c.72,1.63,1.36,2.15,2.79,2.15h8.86c1.2,0,1.84-1.12,1.36-2.24l-24.98-57.9ZM399.65,144.3l5.99-14.2h.08l6.06,14.2h-12.13Z"/>
      <path d="M483.31,122.71c0-10.38-7.84-18.85-17.43-18.85h-23.91c-.88,0-1.52.79-1.52,1.66v57.77c0,.87.64,1.66,1.52,1.66h9.52c.8,0,1.52-.79,1.52-1.66v-22.25h5.52l10.64,23.12c.16.35.64.79,1.28.79h10.64c1.36,0,1.92-1.4,1.36-2.53l-10.95-22.16c6.96-3.05,11.83-9.51,11.83-17.54ZM464.84,129.96h-11.84v-13.61h11.84c3.28,0,6.08,2.97,6.08,6.63s-2.8,6.98-6.08,6.98Z"/>
      <path d="M522.77,116.68c4.08,0,8.15,1.53,11.23,4.33.58.6,1.5.6,2.08,0l6.49-6.87c.67-.68.67-1.7-.08-2.38-5.66-5.26-11.81-7.89-20.13-7.89-16.64,0-30.03,13.66-30.03,30.62s13.39,30.46,30.03,30.46c7.4,0,14.56-2.63,20.21-8.23.58-.59.67-1.69.08-2.29l-6.49-7.04c-.5-.59-1.58-.59-2.16-.08-2.99,2.63-7.24,4.07-11.14,4.07-9.4,0-16.39-7.81-16.39-17.22s6.9-17.48,16.3-17.48Z"/>
      <path d="M603.93,103.87h-10.13c-.94,0-1.62.79-1.62,1.66v21.99h-24.35v-21.99c0-.87-.68-1.66-1.62-1.66h-10.13c-.85,0-1.62.79-1.62,1.66v57.77c0,.87.77,1.66,1.62,1.66h10.13c.94,0,1.62-.79,1.62-1.66v-22.95h24.35v22.95c0,.87.68,1.66,1.62,1.66h10.13c.85,0,1.62-.79,1.62-1.66v-57.77c0-.87-.77-1.66-1.62-1.66Z"/>
      <path d="M634.5,103.87h-10.72c-.89,0-1.7.79-1.7,1.66v57.77c0,.87.8,1.66,1.7,1.66h10.72c.89,0,1.7-.79,1.7-1.66v-57.77c0-.87-.8-1.66-1.7-1.66Z"/>
      <path d="M699.12,103.87h-10.6c-.64,0-1.2.52-1.35.95l-13.15,31.4h-.48l-13.15-31.4c-.16-.43-.72-.95-1.36-.95h-10.6c-1.2,0-1.83,1.12-1.35,2.24l24.87,57.9c.24.52.72.95,1.35.95h.8c.64,0,1.11-.43,1.35-.95l25.03-57.9c.48-1.12-.16-2.24-1.35-2.24Z"/>
      <path d="M756.68,103.87h-10.49c-.94,0-1.62.78-1.62,1.63v34.84c0,6.02-4.52,10.84-10.67,10.84s-10.5-4.82-10.5-10.84v-34.84c0-.86-.68-1.63-1.62-1.63h-10.5c-.85,0-1.62.78-1.62,1.63v35.53c0,13.08,10.84,23.92,24.24,23.92s24.41-10.84,24.41-23.92v-35.53c0-.86-.77-1.63-1.62-1.63Z"/>
      <path d="M831.92,105.24c-.08-.78-.77-1.38-1.39-1.38h-6.3c-.38,0-1.08.34-1.31.86l-21.42,37.16h-.15l-21.33-37.16c-.23-.52-.92-.86-1.31-.86h-6.45c-.62,0-1.31.6-1.39,1.38v57.81c0,1.17.55,1.89,1.47,1.89h9.08c.77,0,1.39-.69,1.46-1.38l-.02-26.58h.15l16.41,27.02c.23.52.85.95,1.31.95h1.39c.38,0,1.08-.43,1.31-.95l16.37-27.02h.16v26.58c.09.69.78,1.38,1.47,1.38h9.08c.92,0,1.46-.77,1.46-1.89l-.06-57.81Z"/>
    </g>
  </g>
</svg>