<?xml version="1.0" encoding="UTF-8"?>
<svg id="Ebene_2" data-name="Ebene 2" xmlns="http://www.w3.org/2000/svg" viewBox="0 0 414 414.7">
  <defs>
    <style>
      .cls-1 {
        stroke: #000;
        stroke-miterlimit: 10;
      }
    </style>
  </defs>
  <g id="Ebene_1-2" data-name="Ebene 1">
    <g>
      <path class="cls-1" d="M290.2,370.2h-5.3v6.6h5.3c2.9,0,4.3-1.4,4.3-3.3s-1.4-3.3-4.3-3.3Z"/>
      <path class="cls-1" d="M383.2,331.1c0-1.9-1.5-3.3-4.4-3.3v-.2h-5.4v6.8h5.4c2.9,0,4.4-1.4,4.4-3.3Z"/>
      <polygon class="cls-1" points="80.8 341 87.2 341 84.1 330.7 80.8 341"/>
      <path class="cls-1" d="M.5.5v413.7h413V.5H.5ZM21,21h61.2l24.3,90.5,24-90.5h64.9v51.7l40.9-51.7h58l56.9,95.9V21h42.7v146.6h-65.4l-68.2-115.2-23.3,27.7,52,87.5h-49.2l-30.7-54.1-13.7,16.3v37.8h-42.1v-100.1l-28.3,100.1h-37.5l-28.8-99.6v99.6H21V21ZM355,332.8v8.4h-16.6v4.5h17.6v8.4h-27.6v-34.1h27.4v8.4h-17.4v4.3h16.6v.1ZM253.4,332.8v8.4h-16.5v4.5h17.6v8.4h-27.6v-34.1h27.4v8.4h-17.4v4.3h16.5v.1ZM197.1,341v13h-9.9v-34.3h9.9v12.7h11.8v-12.7h9.9v34.3h-9.9v-13h-11.8ZM138.8,319.8v34.3h-12.2l-10.6-21.8v21.8h-9.1v-34.3h12.4l10.4,21.8v-21.8h9.1ZM20.7,319.6h14.5l5.8,21.6,5.8-21.4h14.5v34.3h-8.9v-23.8l-6.8,23.8-8.9-.2-7-23.6v23.6h-8.9v-34.3h-.1ZM41.3,396.7l-7.4-12.7-3.3,3.9v8.8h-9.9v-34.3h9.9v12.3l9.9-12.3h12.1l-11.9,13.8,12.3,20.6-11.7-.1h0ZM87.9,381.5c0,10.7-4.1,15.8-15.4,15.8s-15.6-4.1-15.6-15.4v-19.5h10.1v20.1c0,4.3,1.2,6.6,5.6,6.6s5.6-2.5,5.6-6.6v-20.1h9.7v19.1ZM89.5,348.4h-11l-1.9,5.8h-10.5l12.4-34.3h11l12.6,34.3h-10.7l-1.9-5.8ZM127.2,396.7l-12.3-.2-10.5-21.8v22h-9v-34.3h12.1l10.5,21.8v-21.8h9.3l-.1,34.3h0ZM149.2,397.2c-6,.2-11.7-1.6-16.4-4.9l4.9-8c3.5,2.5,7.6,3.9,11.9,4.1,2.7,0,4.5-.4,4.5-1.9s-1.9-2.3-5.1-2.9l-3.9-.8c-5.3-1-10.7-3.7-10.7-10.3,0-7.4,7.2-10.9,14.6-10.7,5.1-.2,10.5,1.2,15,3.7l-4.1,8.2c-3.3-2.1-7.2-3.1-11.3-3.3-2.5,0-4.1.8-4.1,1.9s.8,1.6,2.9,2.1l4.9.8c6.4,1.4,11.9,3.5,11.9,10.3,0,7.7-6.8,11.7-15,11.7ZM156.2,332.3v21.8h-9.1v-34.3h12.2l10.6,21.8v-21.8h9.1v34.3h-12l-10.8-21.8ZM198.5,370.8h-10.3v25.9h-9.9v-25.9h-10.3v-8.4h30.4v8.4h.1ZM224.2,396.5h-10.9l-11.5-34.3h10.9l6.2,22.6,6.4-22.6h10.5l-11.6,34.3ZM267.6,396.5h-27.3v-34.1h27.1v8.4h-17.3v4.3h16.4v8.4h-16.4v4.5h17.5v8.5ZM271.7,354.1h-9.9v-34.3h9.9v34.3ZM295.8,396.5l-7-11.9h-4.1v11.9h-9.9v-34.3h14.2c8.8,0,15.6,2.3,15.6,11.1.2,4.1-2.3,8-6.2,9.5l8.2,13.8h-10.8v-.1h0ZM304.6,354.1h-8.9l-7-23.6v23.6h-8.9v-34.3h14.5l5.8,21.4,5.8-21.4h14.5v34.3h-8.9v-23.8l-6.9,23.8ZM339.2,396.7h-27.3v-34.1h27.1v8.4h-17.3v4.3h16.4v8.4h-16.4v4.5h17.5v8.5h0ZM356.4,396.5h-9.9v-34.3h9.9v34.3ZM363.5,319.8h14.3c8.9,0,15.8,2.3,15.8,11.1.2,4.1-2.3,8-6.2,9.5l8.3,13.8h-11.2l-6.8-12.1h-4.1v12.1h-9.9v-34.4h-.2ZM396.1,396.7h-12.1l-10.5-21.8v21.8h-9.3v-34.3h12.1l10.5,21.8v-21.8h9.3v34.3Z"/>
    </g>
  </g>
</svg>