<?xml version="1.0" encoding="UTF-8"?>
<svg id="Ebene_2" data-name="Ebene 2" xmlns="http://www.w3.org/2000/svg" viewBox="0 0 465.65 563.58">
  <g id="Ebene_1-2" data-name="Ebene 1">
    <g>
      <path d="M183.28,320.11c-3.35-3.15-6.08-6.06-9.15-8.54-4.43-3.58-9.07-6.93-13.73-10.21-1.22-.86-1.64-1.67-1.63-3.1.05-13.48.01-26.96.06-40.44,0-1.49-.25-2.13-1.97-2.13-29.21.05-58.42.04-87.63.04h-1.73c-.05.86-.12,1.6-.12,2.34,0,9.95-.04,19.9.03,29.85.01,1.83-.58,2.51-2.98,3.04-6.94,1.52-13.6,4.35-19,8.97-.73.62-1.35.86-2.4,1.4v-125.33c30.92,16.43,61.62,32.74,92.64,49.22v-49.14c30.61,16.27,60.89,32.36,91.53,48.65v-48.62l91.63,48.71v-49.12c1,.45,1.62.69,2.2.99,29.37,15.61,58.75,31.23,88.12,46.84.98.52,1.74.96,1.74,2.38-.06,22.53-.04,45.07-.04,67.6,0,.32-.04.63-.09,1.25-.8-.29-1.47-.56-2.15-.78-6.75-2.22-13.47-4.5-20.26-6.6-1.39-.43-1.95-.85-1.94-2.38.08-9.12.02-18.23.06-27.35,0-1.31-.18-1.95-1.75-1.95-28.18.05-56.36.03-84.55.04-.25,0-.51.04-1.1.09,0,.72,0,1.46,0,2.19,0,15.28-.02,30.56.03,45.84,0,1.89-.58,2.97-2.9,4.18-6.98,3.67-12.97,8.97-17.04,15.72-3.22,5.34-2.52,4.28-4.5,6.68v-74.59h-91.38v64.27Z"/>
      <path d="M367.8,505.23c0-2.6.03-4.96-.01-7.31-.02-1.33-1.09-.96-1.86-1.01-5.94-.42-11.92-.57-17.82-1.31-4.59-.58-9.09-1.88-13.94-2.93,3.09-5.21,4.99-8.48,8.37-13.82,1.74-2.75,3.42-5.54,4.92-8.42.76-1.46,1.48-1.75,2.94-1.5,24.82,4.16,46.81-1.96,65.25-19.1,29-26.95,32.17-70.83,7.68-101.85-.8-1.01-.9-2.39-.22-3.49,4-6.49,7.89-13.06,11.82-19.6.36-.6.74-1.18,1.27-2.03.79.77,1.49,1.39,2.12,2.07,15.12,16.14,24.23,35.17,27.02,57.09.63,4.99.1,10.13.21,15.2.44,21.3-6.78,40.08-18.84,57.26-5.07,7.23-11.43,13.33-17.53,19.66-10.47,10.86-20.9,21.75-31.45,32.52-1.76,1.79-4,3.15-6.14,4.52-12.74,8.17-25.52,16.27-38.29,24.4-1.03.65-2.03,1.35-3.09,1.96-4.36,2.5-7.89,5.73-11.08,9.76-8.42,10.65-19.66,15.66-33.4,16.24-19.18.8-41.96-14.64-43.38-40.96-.14-2.51.21-6.6.58-9.09.65-4.27.31-8.46.27-12.69-.09-10.78-.34-21.55-.53-32.33-.18-9.75-.37-19.5-.55-29.25,0-.38,0-.76.21-1.3,9.29,20.77,23.27,37.55,42.39,49.84,19.19,12.34,40.27,18.05,63.08,17.46Z"/>
      <path d="M130.83,492.52c-10.58,3.26-21.34,4.38-32.5,4.29v8.24c22.3.58,42.99-4.89,61.91-16.74,18.87-11.82,32.89-27.98,42.23-48.22.16.02.33.04.49.05,0,1.02.02,2.04,0,3.06-.21,12.19-.4,24.37-.64,36.56-.17,8.72-.51,17.44-.52,26.16,0,2.31.99,4.61,1.43,6.94,4.52,24.05-12.94,48.06-37.24,50.42-17.98,1.75-32.32-5.02-42.31-20.41-.66-1.02-1.76-1.85-2.81-2.52-16.04-10.26-32.17-20.4-48.13-30.78-3.06-1.99-5.65-4.8-8.24-7.43-11.74-11.93-23.41-23.94-35.1-35.92-15.98-16.38-25.62-35.87-28.49-58.59-3.62-28.63,3.86-54.19,21.63-76.82.55-.69,1.14-1.35,1.88-2.22.84,1.11,1.39,1.68,1.83,2.82,2.17,5.66,5.22,10.95,9.41,15.33,3.58,3.75,4.45,4.82,3.01,7.04-18.9,29.21-15.74,66.83,7.98,92.23,15.88,17.01,35.71,24.88,58.93,24.17,2.87-.09,5.73-.7,8.6-.91.74-.05,1.87.25,2.23.78,4.75,7.16,9.4,14.39,14.06,21.6.13.21.2.45.38.88Z"/>
      <path d="M124.16,467.28c32.19-12.5,51.52-35.04,52.92-69.79,1.28-31.68-13.64-55.31-41.59-70.17-15.1-8.03-31.42-9.88-48.24-6.56-16.81,3.32-30.77,11.68-42.36,24.57-5.01-7.71-9.89-15.22-14.99-23.07,3.64-3.05,7.09-6.22,10.81-9.01,17.02-12.74,36.16-20,57.44-20.27,42.78-.53,74.4,18.52,94.76,55.99,7.52,13.85,10.83,29.02,10.93,44.79.29,44.11-26.53,80.04-62.96,95.28-2.98,1.25-3.26-.29-6.92-8.86-1.7-3.97-4.55-7.25-7.81-10.08-.82-.71-1.46-1.96-1.98-2.84Z"/>
      <path d="M416.42,340.17c-20.5-18.41-44.42-25.16-71.99-18.24-16.58,4.16-31.08,14.27-40.97,28.21-15.45,21.75-18.97,45.37-10.23,69.91,8.16,22.92,24.43,38.04,47.24,46.49-.62,1.16-.95,1.95-1.85,2.9-2.92,3.07-5.49,6.48-7.27,10.33-3.87,8.34-3.72,10.54-6.37,9.35-33.93-15.3-54.96-41.01-61.3-77.8-7.75-44.99,15.88-88.03,55.01-107.61,35.94-17.99,78.75-13.13,110.13,12.35.87.71,1.07,1.96.48,2.92-4.03,6.55-7.96,13.17-11.93,19.76-.26.43-.56.85-.96,1.44Z"/>
      <path d="M199.55,200.69c-4.16-2.19-7.77-4.09-11.38-6-8.15-4.32-16.28-8.7-24.47-12.95-1.54-.8-2.05-1.74-1.99-3.44.73-18.9,1.4-37.8,2.06-56.71.46-13.01.85-26.02,1.31-39.03.57-15.96,1.19-31.91,1.76-47.87.38-10.57.71-21.15,1.07-31.72.03-.95.17-1.89.26-2.96h24.38c2.33,66.77,4.65,133.44,6.99,200.69Z"/>
      <path d="M286.91,27.24c2.03,58.14,4.06,116.09,6.1,174.38-.95-.44-1.59-.69-2.19-1.01-11.94-6.34-23.88-12.71-35.84-19.02-1.23-.65-1.67-1.32-1.61-2.8.68-17.75,1.23-35.51,1.86-53.26.84-23.97,1.72-47.94,2.58-71.91.29-8.14.58-16.28.79-24.42.04-1.55.46-2.03,2.12-2,7.96.12,15.92.05,23.88.05.7,0,1.39,0,2.31,0Z"/>
      <path d="M212.02,401.88c14.06,10.73,27.74,10.58,41.65-.72,0,3.01-.04,5.74,0,8.46.25,15.84.49,31.69.78,47.53.17,9.62.39,19.24.66,28.85.04,1.6-.34,2.72-1.66,3.77-12.51,9.84-30.52,9.22-42.15-1.49-.83-.76-1.25-1.87-1.23-3,.23-10.89.39-21.77.6-32.66.29-15.2.58-30.4.91-45.59.04-1.66.28-3.32.44-5.14Z"/>
      <path d="M254.97,377.61c-5.64-7.08-12.96-10.44-21.79-10.64-8.75-.2-16.19,2.77-22.29,9.43-.31-.92-.53-1.33-.56-2.09-.12-3.38-.74-6.74-2.18-9.81s-1.45-3.96.09-4.99c14.42-9.69,35.11-9.42,49.37.62.96.67,1.34,1.9,1.03,3.02-1.3,4.68-2.41,9.41-3.67,14.46Z"/>
    </g>
  </g>
</svg>